<?xml version="1.0" encoding="iso-8859-1"?>
<!-- Generator: Adobe Illustrator 18.1.1, SVG Export Plug-In . SVG Version: 6.00 Build 0)  -->
<svg version="1.1" id="Capa_1" xmlns="http://www.w3.org/2000/svg" xmlns:xlink="http://www.w3.org/1999/xlink" x="0px" y="0px"
	 viewBox="0 0 28.872 28.872" style="enable-background:new 0 0 28.872 28.872;" xml:space="preserve">
<g>
	<path d="M0.001,5.815C-0.001,5.26,0.435,5.268,0.435,5.268c1.844,0,16.004,0,18.475,0.002c0.805-0.002,1.326,0,1.326,0
		s0-1.922,0-3.131c0-1.211,0.908-0.295,0.908-0.295s6.795,5.244,7.512,5.959c0.512,0.518-0.061,1.01-0.061,1.01l-7.279,6.146
		c0,0-0.867,0.912-0.865-0.076c0.002-0.996,0-3.393,0-3.393s-0.582,0-1.477-0.004c-2.559,0.004-16.562,0-18.459,0
		c0,0-0.514,0.135-0.514-0.643C0.001,10.059,0.001,6.373,0.001,5.815z"/>
	<path d="M28.869,17.832c0.002-0.559-0.434-0.547-0.434-0.547c-1.84,0-16.004,0-18.477,0.002c-0.803-0.002-1.326,0-1.326,0
		s0-1.924,0-3.133c0-1.207-0.906-0.297-0.906-0.297s-6.793,5.244-7.512,5.957c-0.514,0.52,0.061,1.018,0.061,1.018l7.277,6.146
		c0,0,0.864,0.91,0.864-0.082c-0.004-0.996,0-3.391,0-3.391s0.582,0,1.479-0.006c2.559,0.006,16.564,0,18.457,0
		c0,0,0.518,0.137,0.52-0.645C28.869,22.073,28.869,18.391,28.869,17.832z"/>
	<g>
	</g>
	<g>
	</g>
	<g>
	</g>
	<g>
	</g>
	<g>
	</g>
	<g>
	</g>
	<g>
	</g>
	<g>
	</g>
	<g>
	</g>
	<g>
	</g>
	<g>
	</g>
	<g>
	</g>
	<g>
	</g>
	<g>
	</g>
	<g>
	</g>
</g>
<g>
</g>
<g>
</g>
<g>
</g>
<g>
</g>
<g>
</g>
<g>
</g>
<g>
</g>
<g>
</g>
<g>
</g>
<g>
</g>
<g>
</g>
<g>
</g>
<g>
</g>
<g>
</g>
<g>
</g>
</svg>
