<?xml version="1.0" encoding="iso-8859-1"?>
<!-- Generator: Adobe Illustrator 16.0.0, SVG Export Plug-In . SVG Version: 6.00 Build 0)  -->
<!DOCTYPE svg PUBLIC "-//W3C//DTD SVG 1.1//EN" "http://www.w3.org/Graphics/SVG/1.1/DTD/svg11.dtd">
<svg version="1.1" id="Capa_1" xmlns="http://www.w3.org/2000/svg" xmlns:xlink="http://www.w3.org/1999/xlink" x="0px" y="0px"
	 width="410.91px" height="410.909px" viewBox="0 0 410.91 410.909" style="enable-background:new 0 0 410.91 410.909;"
	 xml:space="preserve">
<g>
	<path d="M410.91,375.424v22.412H0V13.073h22.412v362.351H410.91z M95.255,40.154H56.968v165.298h38.287V40.154z M95.255,357.213
		H56.968V215.258h38.287V357.213z M89.652,220.861H62.571v130.744h27.081V220.861z M165.297,40.154H127.01v204.473h38.287V40.154z
		 M165.297,357.213H127.01V251.116h38.287V357.213z M159.694,256.72h-27.081v94.89h27.081V256.72z M234.403,40.154h-38.287v165.298
		h38.287V40.154z M234.403,357.213h-38.287V215.258h38.287V357.213z M228.799,220.861h-27.081v130.744h27.081V220.861z
		 M307.246,38.753h-38.287v103.662h38.287V38.753z M307.246,355.812h-38.287V152.221h38.287V355.812z M301.643,157.824h-27.081
		v192.381h27.081V157.824z M380.089,38.753h-38.287v60.236h38.287V38.753z M380.089,355.812h-38.287V108.795h38.287V355.812z
		 M374.486,114.398h-27.081v235.807h27.081V114.398z"/>
</g>
<g>
</g>
<g>
</g>
<g>
</g>
<g>
</g>
<g>
</g>
<g>
</g>
<g>
</g>
<g>
</g>
<g>
</g>
<g>
</g>
<g>
</g>
<g>
</g>
<g>
</g>
<g>
</g>
<g>
</g>
</svg>
