<?xml version="1.0" encoding="iso-8859-1"?>
<!-- Generator: Adobe Illustrator 16.0.0, SVG Export Plug-In . SVG Version: 6.00 Build 0)  -->
<!DOCTYPE svg PUBLIC "-//W3C//DTD SVG 1.1//EN" "http://www.w3.org/Graphics/SVG/1.1/DTD/svg11.dtd">
<svg version="1.1" id="Capa_1" xmlns="http://www.w3.org/2000/svg" xmlns:xlink="http://www.w3.org/1999/xlink" x="0px" y="0px"
	 width="102.166px" height="102.166px" viewBox="0 0 102.166 102.166" style="enable-background:new 0 0 102.166 102.166;"
	 xml:space="preserve">
<g>
	<path d="M24.666,8.75H0v24.666h24.666V8.75z M20.666,29.416H4V12.75h16.666V29.416z M77.5,68.75v24.666h24.666V68.75H77.5z
		 M98.166,89.416H81.5V72.75h16.666V89.416z M38.75,63.268h24.666V38.601H38.75V63.268z M42.75,42.601h16.666v16.667H42.75V42.601z
		 M15.583,48.434h18.751v5h-22v-0.064h-1.751V37.1h5V48.434z M87.333,53.434H66.584v-5h23.25v0.017h2.499v16.716h-5V53.434z"/>
</g>
<g>
</g>
<g>
</g>
<g>
</g>
<g>
</g>
<g>
</g>
<g>
</g>
<g>
</g>
<g>
</g>
<g>
</g>
<g>
</g>
<g>
</g>
<g>
</g>
<g>
</g>
<g>
</g>
<g>
</g>
</svg>
