<?xml version="1.0" encoding="iso-8859-1"?>
<!-- Generator: Adobe Illustrator 16.0.0, SVG Export Plug-In . SVG Version: 6.00 Build 0)  -->
<!DOCTYPE svg PUBLIC "-//W3C//DTD SVG 1.1//EN" "http://www.w3.org/Graphics/SVG/1.1/DTD/svg11.dtd">
<svg version="1.1" id="Capa_1" xmlns="http://www.w3.org/2000/svg" xmlns:xlink="http://www.w3.org/1999/xlink" x="0px" y="0px"
	 width="96.668px" height="96.668px" viewBox="0 0 96.668 96.668" style="enable-background:new 0 0 96.668 96.668;"
	 xml:space="preserve">
<g>
	<path d="M24.666,6.001H0v24.666h24.666V6.001z M20.666,26.667H4V10.001h16.666V26.667z M72.002,6.001v24.666h24.666V6.001H72.002z
		 M92.668,26.667H76.002V10.001h16.666V26.667z M36,90.667h24.666V66.001H36V90.667z M40,70.001h16.666v16.666H40V70.001z
		 M60.666,6.001H36v24.666h24.666V6.001z M56.666,26.667H40V10.001h16.666V26.667z M0,90.667h24.666V66.001H0V90.667z M4,70.001
		h16.666v16.666H4V70.001z M72,90.667h24.666V66.001H72V90.667z M76,70.001h16.666v16.666H76V70.001z M82.107,63.067V51.334H50.834
		v11.333h-5V51.334H15.311v11.733h-4.454V34.303h4.454v12.031h30.523V35.001h5v11.333h31.273V34.303h4.453v28.765H82.107z"/>
</g>
<g>
</g>
<g>
</g>
<g>
</g>
<g>
</g>
<g>
</g>
<g>
</g>
<g>
</g>
<g>
</g>
<g>
</g>
<g>
</g>
<g>
</g>
<g>
</g>
<g>
</g>
<g>
</g>
<g>
</g>
</svg>
