<?xml version="1.0" encoding="iso-8859-1"?>
<!-- Generator: Adobe Illustrator 16.0.0, SVG Export Plug-In . SVG Version: 6.00 Build 0)  -->
<!DOCTYPE svg PUBLIC "-//W3C//DTD SVG 1.1//EN" "http://www.w3.org/Graphics/SVG/1.1/DTD/svg11.dtd">
<svg version="1.1" id="Capa_1" xmlns="http://www.w3.org/2000/svg" xmlns:xlink="http://www.w3.org/1999/xlink" x="0px" y="0px"
	 width="513.109px" height="513.11px" viewBox="0 0 513.109 513.11" style="enable-background:new 0 0 513.109 513.11;"
	 xml:space="preserve">
<g>
	<path d="M446.004,94.564c-33.248-33.249-75.207-55.202-121.336-63.486c-45.041-8.089-90.929-2.688-132.696,15.613l22.446,51.225
		c65.826-28.843,141.209-14.639,192.039,36.194c67.525,67.525,67.525,177.397,0,244.922c-67.525,67.526-177.399,67.526-244.925,0
		c-34.179-34.18-51.897-79.672-50.794-126.175l67.115,18.972l-22.693-89.581l-22.694-89.583l-66.232,64.446L0,221.555l55.681,15.739
		c-1.95,23.192-0.377,46.666,4.771,69.614c9.485,42.284,30.763,80.898,61.535,111.671c43.274,43.273,100.81,67.105,162.007,67.105
		c0.004,0-0.002,0,0.002,0c61.193,0,118.736-23.835,162.01-67.105c43.273-43.274,67.104-100.811,67.104-162.01
		C513.109,195.374,489.277,137.837,446.004,94.564z"/>
</g>
<g>
</g>
<g>
</g>
<g>
</g>
<g>
</g>
<g>
</g>
<g>
</g>
<g>
</g>
<g>
</g>
<g>
</g>
<g>
</g>
<g>
</g>
<g>
</g>
<g>
</g>
<g>
</g>
<g>
</g>
</svg>
