<?xml version="1.0" encoding="iso-8859-1"?>
<!-- Generator: Adobe Illustrator 18.0.0, SVG Export Plug-In . SVG Version: 6.00 Build 0)  -->
<!DOCTYPE svg PUBLIC "-//W3C//DTD SVG 1.1//EN" "http://www.w3.org/Graphics/SVG/1.1/DTD/svg11.dtd">
<svg version="1.1" id="Capa_1" xmlns="http://www.w3.org/2000/svg" xmlns:xlink="http://www.w3.org/1999/xlink" x="0px" y="0px"
	 viewBox="0 0 366.204 366.204" style="enable-background:new 0 0 366.204 366.204;" xml:space="preserve">
<g>
	<path d="M159.933,159.671l17.939,22.999c-1.365,2.833-2.575,5.756-3.618,8.742l-28.949,3.579c-2.757,0.341-4.828,2.683-4.828,5.461
		v37.2c0,2.777,2.071,5.12,4.828,5.461l28.95,3.576c1.042,2.984,2.253,5.905,3.618,8.737l-17.939,23
		c-1.708,2.19-1.517,5.311,0.447,7.274l26.304,26.313c1.965,1.965,5.086,2.156,7.277,0.447l22.998-17.944
		c2.828,1.363,5.75,2.572,8.738,3.616l3.576,28.953c0.34,2.758,2.684,4.828,5.461,4.828h37.203c2.777,0,5.121-2.07,5.461-4.828
		l3.576-28.953c2.986-1.043,5.908-2.252,8.74-3.617l23.006,17.945c2.189,1.709,5.311,1.518,7.275-0.448l26.299-26.311
		c1.965-1.965,2.156-5.084,0.447-7.274l-17.938-22.997c1.367-2.832,2.578-5.754,3.621-8.74l28.949-3.576
		c2.758-0.341,4.828-2.684,4.828-5.461v-37.2c0-2.778-2.07-5.12-4.828-5.461l-28.955-3.579c-1.045-2.989-2.254-5.912-3.617-8.742
		l17.939-22.999c1.709-2.191,1.518-5.313-0.447-7.276L319.989,126.1c-1.963-1.964-5.084-2.155-7.273-0.448l-23,17.933
		c-2.83-1.364-5.752-2.574-8.74-3.618l-3.576-28.945c-0.342-2.757-2.684-4.828-5.461-4.828h-37.203
		c-2.777,0-5.121,2.071-5.461,4.829l-3.576,28.945c-2.988,1.044-5.91,2.253-8.738,3.617l-23-17.938
		c-2.189-1.709-5.31-1.517-7.275,0.447l-26.303,26.301C158.417,154.359,158.225,157.48,159.933,159.671z M191.027,137.316
		l21.925,17.1c1.719,1.342,4.07,1.541,5.99,0.508c4.217-2.269,8.719-4.133,13.381-5.541c2.084-0.63,3.602-2.431,3.869-4.593
		l3.408-27.591h27.473l3.41,27.591c0.266,2.163,1.785,3.964,3.869,4.593c4.656,1.406,9.156,3.27,13.381,5.541
		c1.92,1.033,4.27,0.834,5.99-0.507l21.924-17.095l19.426,19.416l-17.102,21.922c-1.34,1.72-1.541,4.068-0.508,5.989
		c2.268,4.222,4.133,8.726,5.541,13.388c0.631,2.084,2.432,3.602,4.594,3.869l27.6,3.411v27.47l-27.594,3.408
		c-2.162,0.268-3.963,1.785-4.594,3.872c-1.402,4.65-3.27,9.15-5.545,13.374c-1.035,1.922-0.836,4.273,0.506,5.994l17.104,21.925
		l-19.422,19.431l-21.93-17.105c-1.719-1.342-4.068-1.541-5.99-0.508c-4.225,2.271-8.727,4.135-13.379,5.539
		c-2.086,0.629-3.605,2.431-3.871,4.594l-3.41,27.598H239.6l-3.408-27.598c-0.268-2.162-1.785-3.964-3.871-4.594
		c-4.66-1.407-9.162-3.271-13.379-5.539c-1.922-1.033-4.271-0.834-5.992,0.508l-21.922,17.105l-19.425-19.431l17.101-21.925
		c1.34-1.719,1.539-4.068,0.508-5.989c-2.274-4.23-4.139-8.732-5.542-13.38c-0.63-2.086-2.431-3.604-4.593-3.871l-27.594-3.408
		v-27.471l27.595-3.41c2.162-0.268,3.963-1.785,4.593-3.871c1.405-4.653,3.269-9.156,5.542-13.386
		c1.031-1.921,0.832-4.27-0.508-5.989l-17.1-21.922L191.027,137.316z"/>
	<path d="M253.337,263.69c24.611,0,44.633-20.022,44.633-44.633c0-24.614-20.022-44.64-44.633-44.64
		c-24.611,0-44.633,20.025-44.633,44.64C208.704,243.668,228.725,263.69,253.337,263.69z M253.337,185.424
		c18.541,0,33.627,15.088,33.627,33.634c0,18.542-15.086,33.627-33.627,33.627c-18.543,0-33.627-15.085-33.627-33.627
		C219.709,200.512,234.794,185.424,253.337,185.424z"/>
	<path d="M14.886,76.621l12.932,16.581c-0.775,1.665-1.481,3.372-2.116,5.115L4.827,100.9C2.07,101.242,0,103.584,0,106.361v27.898
		c0,2.778,2.071,5.121,4.829,5.461l20.872,2.578c0.634,1.74,1.341,3.448,2.117,5.115l-12.932,16.579
		c-1.708,2.19-1.517,5.31,0.447,7.274l19.725,19.734c1.964,1.965,5.084,2.157,7.276,0.449l16.585-12.933
		c1.663,0.773,3.37,1.479,5.112,2.112l2.583,20.874c0.341,2.757,2.683,4.827,5.461,4.827h27.895c2.778,0,5.121-2.07,5.461-4.827
		l2.582-20.873c1.741-0.632,3.45-1.339,5.118-2.114l16.579,12.933c2.19,1.709,5.313,1.517,7.276-0.448l19.725-19.734
		c1.963-1.965,2.155-5.084,0.447-7.274l-12.93-16.577c0.78-1.674,1.488-3.383,2.121-5.118l20.868-2.577
		c2.757-0.34,4.828-2.683,4.828-5.461v-27.898c0-2.777-2.07-5.119-4.827-5.461l-20.875-2.583c-0.635-1.743-1.341-3.451-2.116-5.115
		l12.931-16.582c1.709-2.19,1.516-5.311-0.448-7.274l-19.725-19.727c-1.965-1.965-5.085-2.156-7.276-0.448l-16.578,12.932
		c-1.673-0.779-3.383-1.487-5.119-2.119l-2.582-20.866c-0.341-2.757-2.683-4.827-5.461-4.827H72.076
		c-2.778,0-5.12,2.069-5.461,4.827l-2.583,20.867c-1.738,0.633-3.445,1.34-5.113,2.117L42.334,49.17
		c-2.19-1.707-5.311-1.515-7.274,0.449L15.334,69.346C13.37,71.309,13.178,74.429,14.886,76.621z M39.403,60.841l15.491,12.077
		c1.721,1.343,4.074,1.541,5.995,0.504c3.079-1.659,6.364-3.02,9.766-4.045c2.087-0.629,3.606-2.43,3.874-4.594l2.412-19.487h18.167
		l2.412,19.487c0.268,2.165,1.789,3.967,3.877,4.595c3.386,1.018,6.675,2.38,9.776,4.047c1.921,1.033,4.271,0.835,5.991-0.507
		l15.482-12.076l12.846,12.846l-12.077,15.486c-1.342,1.721-1.54,4.072-0.506,5.993c1.65,3.064,3.013,6.354,4.05,9.779
		c0.631,2.084,2.431,3.6,4.591,3.867l19.492,2.412v18.169l-19.486,2.406c-2.164,0.268-3.967,1.787-4.595,3.875
		c-1.019,3.383-2.382,6.672-4.052,9.777c-1.033,1.921-0.835,4.271,0.507,5.991l12.077,15.482l-12.847,12.853l-15.481-12.076
		c-1.721-1.342-4.071-1.541-5.992-0.507c-3.077,1.655-6.366,3.015-9.775,4.04c-2.089,0.628-3.609,2.43-3.877,4.594l-2.412,19.496
		H76.94l-2.412-19.496c-0.268-2.162-1.787-3.964-3.874-4.593c-3.425-1.032-6.711-2.391-9.765-4.038
		c-1.922-1.037-4.275-0.84-5.997,0.503l-15.49,12.078l-12.848-12.854l12.077-15.482c1.342-1.72,1.541-4.07,0.507-5.991
		c-1.656-3.079-3.019-6.37-4.05-9.783c-0.63-2.085-2.431-3.603-4.593-3.869l-19.491-2.406v-18.169l19.492-2.412
		c2.16-0.268,3.96-1.783,4.591-3.866c1.038-3.426,2.4-6.717,4.05-9.78c1.035-1.921,0.837-4.272-0.505-5.993L26.556,73.687
		L39.403,60.841z"/>
	<path d="M86.024,155.164c19.219,0,34.854-15.635,34.854-34.852c0-19.218-15.635-34.851-34.854-34.851
		c-19.216,0-34.85,15.634-34.85,34.851C51.175,139.529,66.809,155.164,86.024,155.164z M86.024,96.467
		c13.15,0,23.848,10.697,23.848,23.846c0,13.149-10.698,23.846-23.848,23.846c-13.147,0-23.844-10.697-23.844-23.846
		C62.181,107.164,72.877,96.467,86.024,96.467z"/>
</g>
<g>
</g>
<g>
</g>
<g>
</g>
<g>
</g>
<g>
</g>
<g>
</g>
<g>
</g>
<g>
</g>
<g>
</g>
<g>
</g>
<g>
</g>
<g>
</g>
<g>
</g>
<g>
</g>
<g>
</g>
</svg>
