<?xml version="1.0" encoding="iso-8859-1"?>
<!-- Generator: Adobe Illustrator 16.0.0, SVG Export Plug-In . SVG Version: 6.00 Build 0)  -->
<!DOCTYPE svg PUBLIC "-//W3C//DTD SVG 1.1//EN" "http://www.w3.org/Graphics/SVG/1.1/DTD/svg11.dtd">
<svg version="1.1" id="Capa_1" xmlns="http://www.w3.org/2000/svg" xmlns:xlink="http://www.w3.org/1999/xlink" x="0px" y="0px"
	 width="410.911px" height="410.91px" viewBox="0 0 410.911 410.91" style="enable-background:new 0 0 410.911 410.91;"
	 xml:space="preserve">
<g>
	<path d="M410.911,375.421v22.413H0V13.076h22.413v362.35h388.498V375.421z M97.711,234.068l58.605,40.022l30.952-29.538
		l32.662,20.41l49.707-26.23l35.547,34.056l72.347-109.251l-9.348-6.186l-64.935,98.064l-31.693-30.376l-51.154,26.999
		l-34.578-21.613L155.14,259.71l-56.264-38.417L35.79,249.165l4.531,10.251L97.711,234.068z M96.78,142.905l60.572,69.428
		l30.252-70.134l31.409,47.125l51.216-44.099l34.791,36.241l72.506-109.5l-9.348-6.183L303.4,163.605l-32.447-33.8l-49.642,42.752
		l-35.834-53.735l-31.386,72.748l-54.295-62.247l-64.001,28.279l4.531,10.25L96.78,142.905z"/>
</g>
<g>
</g>
<g>
</g>
<g>
</g>
<g>
</g>
<g>
</g>
<g>
</g>
<g>
</g>
<g>
</g>
<g>
</g>
<g>
</g>
<g>
</g>
<g>
</g>
<g>
</g>
<g>
</g>
<g>
</g>
</svg>
