<?xml version="1.0" encoding="iso-8859-1"?>
<!-- Generator: Adobe Illustrator 19.0.0, SVG Export Plug-In . SVG Version: 6.00 Build 0)  -->
<svg version="1.1" id="Capa_1" xmlns="http://www.w3.org/2000/svg" xmlns:xlink="http://www.w3.org/1999/xlink" x="0px" y="0px"
	 viewBox="0 0 156.272 156.272" style="enable-background:new 0 0 156.272 156.272;" xml:space="preserve">
<g>
	<path style="fill:#010002;" d="M124.641,156.272H31.647c-1.908,0-3.52-1.418-3.772-3.304L14.093,47.915
		c-0.141-1.092,0.193-2.183,0.913-3.007c0.72-0.817,1.767-1.292,2.859-1.292h120.542c1.092,0,2.138,0.475,2.859,1.292
		c0.72,0.824,1.054,1.916,0.913,3.007l-13.766,105.053C128.16,154.854,126.549,156.272,124.641,156.272z M34.98,148.669h86.326
		l12.771-97.449H22.202L34.98,148.669z"/>
	<path style="fill:#010002;" d="M131.309,49.876l-7.544-0.995l2.614-19.885H29.961l2.532,19.276l-7.544,0.995L21.86,25.691
		c-0.141-1.092,0.193-2.183,0.913-3.007c0.72-0.817,1.767-1.292,2.859-1.292h105.082c1.092,0,2.138,0.475,2.859,1.292
		c0.72,0.824,1.054,1.923,0.913,3.007L131.309,49.876z"/>
	<path style="fill:#010002;" d="M123.393,26.367l-7.544-0.995l2.332-17.769H38.158l2.25,17.123l-7.544,0.995L30.058,4.299
		c-0.141-1.092,0.193-2.183,0.913-3.007C31.691,0.475,32.738,0,33.83,0h88.687c1.092,0,2.138,0.475,2.859,1.292
		c0.72,0.824,1.054,1.916,0.913,3.007L123.393,26.367z"/>
	<g>
		<rect x="41.344" y="73.436" style="fill:#010002;" width="73.599" height="7.603"/>
		<rect x="41.344" y="95.519" style="fill:#010002;" width="36.8" height="7.603"/>
		<rect x="41.344" y="117.594" style="fill:#010002;" width="52.333" height="7.603"/>
	</g>
</g>
<g>
</g>
<g>
</g>
<g>
</g>
<g>
</g>
<g>
</g>
<g>
</g>
<g>
</g>
<g>
</g>
<g>
</g>
<g>
</g>
<g>
</g>
<g>
</g>
<g>
</g>
<g>
</g>
<g>
</g>
</svg>
