<?xml version="1.0" encoding="utf-8"?>
<!-- Generator: Adobe Illustrator 16.0.0, SVG Export Plug-In . SVG Version: 6.00 Build 0)  -->
<!DOCTYPE svg PUBLIC "-//W3C//DTD SVG 1.1//EN" "http://www.w3.org/Graphics/SVG/1.1/DTD/svg11.dtd">
<svg version="1.1" id="Layer_1" xmlns="http://www.w3.org/2000/svg" xmlns:xlink="http://www.w3.org/1999/xlink" x="0px" y="0px"
	 width="512px" height="512px" viewBox="0 0 512 512" enable-background="new 0 0 512 512" xml:space="preserve">
<g>
	<path d="M141.938,324.965L11.819,484.023c-3.387,4.146-3.517,10.24,0,14.535c4.002,4.918,11.247,5.646,16.147,1.625
		l159.107-130.131c-8.13-7.24-15.955-14.598-23.244-21.893C156.199,340.533,148.909,332.758,141.938,324.965z"/>
	<path d="M447.89,64.1C403.4,19.598,353.134-2.246,335.581,15.254c-0.903,0.908-92.757,126.197-138.796,188.98
		c-30.166-21.5-57.219-34.082-74.656-34.068c-6.374,0-11.485,1.662-14.971,5.18c-19.197,19.164,16.646,86.076,80.028,149.459
		c51.797,51.797,105.971,85.223,134.488,85.223c6.387,0,11.472-1.68,14.971-5.178c13.084-13.084,0.548-48.41-28.858-89.658
		c62.802-46.043,188.047-137.893,188.932-138.781C514.254,158.893,492.38,108.607,447.89,64.1z"/>
</g>
</svg>
