<?xml version='1.0' encoding='utf-8'?>
<!DOCTYPE svg PUBLIC '-//W3C//DTD SVG 1.1//EN' 'http://www.w3.org/Graphics/SVG/1.1/DTD/svg11.dtd'>
<svg version="1.1" xmlns="http://www.w3.org/2000/svg" viewBox="0 0 512 512" xmlns:xlink="http://www.w3.org/1999/xlink" enable-background="new 0 0 512 512">
  <g>
    <path d="m501,245.1h-32.9c-5.5-108.9-92.3-195.7-201.2-201.2v-32.9h-21.8v32.9c-108.9,5.5-195.7,92.3-201.2,201.2h-32.9v21.8h32.9c5.5,108.9 92.3,195.7 201.2,201.2v32.9h21.8v-32.9c108.9-5.5 195.7-92.3 201.2-201.2h32.9v-21.8zm-234.1,201.1v-32.3h-21.8v32.3c-95.9-5.5-173.8-83.4-179.3-179.3h32.3v-21.8h-32.3c5.5-95.9 83.4-173.8 179.3-179.3v32.3h21.8v-32.3c95.9,5.5 173.8,83.4 179.3,179.3h-32.3v21.8h32.3c-5.5,95.9-83.4,173.8-179.3,179.3z"/>
  </g>
</svg>
