<?xml version="1.0" encoding="iso-8859-1"?>
<!-- Generator: Adobe Illustrator 16.0.0, SVG Export Plug-In . SVG Version: 6.00 Build 0)  -->
<!DOCTYPE svg PUBLIC "-//W3C//DTD SVG 1.1//EN" "http://www.w3.org/Graphics/SVG/1.1/DTD/svg11.dtd">
<svg version="1.1" id="Capa_1" xmlns="http://www.w3.org/2000/svg" xmlns:xlink="http://www.w3.org/1999/xlink" x="0px" y="0px"
	 width="522.668px" height="522.669px" viewBox="0 0 522.668 522.669" style="enable-background:new 0 0 522.668 522.669;"
	 xml:space="preserve">
<g>
	<path d="M55.758,337.747v-33.246h111.496v33.246H55.758z M157.478,67.821c5.928,0,10.766-4.826,10.766-10.76
		c0-5.937-4.832-10.756-10.766-10.756c-5.937,0-10.756,4.82-10.756,10.756C146.721,62.996,151.547,67.821,157.478,67.821z
		 M227.281,67.821c5.931,0,10.756-4.826,10.756-10.76c0-5.937-4.819-10.756-10.756-10.756s-10.756,4.82-10.756,10.756
		C216.524,62.996,221.35,67.821,227.281,67.821z M167.254,250.334v-33.252H55.758v33.252H167.254z M167.254,392.653H12.251V0
		h279.699v188.807H167.254v10.674H38.164v68.466h129.09v18.95H38.164v68.46h129.09V392.653z M198.917,57.062
		c0,15.644,12.723,28.363,28.363,28.363c15.637,0,28.363-12.72,28.363-28.363c0-15.64-12.727-28.36-28.363-28.36
		C211.641,28.701,198.917,41.422,198.917,57.062z M129.124,57.062c0,15.644,12.714,28.363,28.354,28.363
		c15.649,0,28.363-12.72,28.363-28.363c0-15.64-12.714-28.36-28.363-28.36C141.838,28.701,129.124,41.422,129.124,57.062z
		 M38.164,179.316H268.97v-68.463H38.164V179.316z M55.758,128.454h195.608v33.253H55.758V128.454z M211.269,148.5h26.768v-9.283
		h-26.768V148.5z M387.721,411.42v14.882c41.053,1.352,70.683,5.146,70.683,9.633c0,5.615-46.362,10.17-103.54,10.17
		c-57.189,0-103.534-4.543-103.534-10.17c0-4.03,23.906-7.495,58.517-9.14V411.42H187.132V204.943h323.286V411.42H387.721z
		 M489.178,393.726V220.881H208.355v172.856h280.823V393.726z M158.3,419.038c-0.935-0.725-2.238-0.731-3.194-0.013
		c-0.935,0.712-1.291,1.967-0.853,3.057l12.931,32.754h-22.563c-4.908-0.25-21.032-1.912-31.983-12.659
		c-7.694-7.551-11.448-18.188-11.448-32.535H69.782c0,22.896,7.015,41.389,20.853,54.961c22.49,22.067,54.689,21.708,56.105,21.684
		l-0.013-0.273c2.214,0.182,3.809,0.273,3.809,0.273l16.648,0.049l-12.931,32.748c-0.438,1.102-0.088,2.35,0.853,3.062
		c0.475,0.354,1.035,0.523,1.583,0.523c0.576,0,1.136-0.183,1.611-0.542l64.335-49.462c0.636-0.5,1.023-1.267,1.023-2.083
		c0-0.815-0.393-1.571-1.023-2.082L158.3,419.038z"/>
</g>
<g>
</g>
<g>
</g>
<g>
</g>
<g>
</g>
<g>
</g>
<g>
</g>
<g>
</g>
<g>
</g>
<g>
</g>
<g>
</g>
<g>
</g>
<g>
</g>
<g>
</g>
<g>
</g>
<g>
</g>
</svg>
