<?xml version='1.0' encoding='iso-8859-1'?>
<svg version="1.1" xmlns="http://www.w3.org/2000/svg" viewBox="0 0 62.671 62.671" xmlns:xlink="http://www.w3.org/1999/xlink" enable-background="new 0 0 62.671 62.671">
  <g>
    <g>
      <path d="m45.462,30.245h-2.859c-0.464-5.506-4.827-9.918-10.314-10.449v-2.652c0-0.576-0.466-1.042-1.042-1.042s-1.042,0.466-1.042,1.042v2.645c-5.553,0.468-9.988,4.903-10.456,10.456h-2.541c-0.576,0-1.042,0.466-1.042,1.042 0,0.576 0.466,1.042 1.042,1.042h2.549c0.531,5.487 4.943,9.85 10.449,10.314v2.95c0,0.576 0.466,1.042 1.042,1.042s1.042-0.466 1.042-1.042v-2.957c5.44-0.526 9.78-4.866 10.307-10.307h2.866c0.576,0 1.042-0.466 1.042-1.042-0.002-0.576-0.467-1.042-1.043-1.042zm-13.173,10.25v-3.171c0-0.576-0.466-1.042-1.042-1.042s-1.042,0.466-1.042,1.042v3.185c-4.348-0.455-7.79-3.854-8.31-8.182h3.385c0.576,0 1.042-0.466 1.042-1.042 0-0.576-0.466-1.042-1.042-1.042h-3.399c0.46-4.395 3.929-7.865 8.324-8.324v2.036c0,0.576 0.466,1.042 1.042,1.042s1.042-0.466 1.042-1.042v-2.022c4.328,0.519 7.727,3.962 8.182,8.31h-3.017c-0.576,0-1.042,0.466-1.042,1.042 0,0.576 0.466,1.042 1.042,1.042h3.002c-0.513,4.282-3.886,7.655-8.167,8.168z"/>
    </g>
    <g>
      <path d="m61.629,27.283c-0.576,0-1.042,0.466-1.042,1.042v1.92h-6.245c-0.535-11.929-10.122-21.516-22.053-22.051v-6.111h1.92c0.576,0 1.042-0.466 1.042-1.042s-0.465-1.041-1.041-1.041h-5.924c-0.576,0-1.042,0.466-1.042,1.042s0.466,1.042 1.042,1.042h1.92v6.111c-11.929,0.534-21.516,10.121-22.05,22.05h-6.073v-1.92c0-0.576-0.466-1.042-1.042-1.042s-1.041,0.466-1.041,1.041v5.924c0,0.576 0.466,1.042 1.042,1.042s1.042-0.466 1.042-1.042v-1.92h6.072c0.534,11.931 10.121,21.518 22.05,22.053v6.207h-1.92c-0.576,0-1.042,0.466-1.042,1.042s0.466,1.042 1.042,1.042h5.924c0.576,0 1.042-0.466 1.042-1.042s-0.466-1.042-1.042-1.042h-1.92v-6.207c11.931-0.535 21.518-10.122 22.053-22.053h6.245v1.92c0,0.576 0.466,1.042 1.042,1.042s1.042-0.466 1.042-1.042v-5.924c-0.001-0.575-0.467-1.041-1.043-1.041zm-29.34,25.014v-2.956c0-0.576-0.466-1.042-1.042-1.042s-1.042,0.466-1.042,1.042v2.956c-10.78-0.531-19.435-9.187-19.966-19.969h2.956c0.576,0 1.042-0.466 1.042-1.042 0-0.576-0.466-1.042-1.042-1.042h-2.956c0.531-10.781 9.186-19.436 19.967-19.967v2.956c0,0.576 0.466,1.042 1.042,1.042s1.042-0.466 1.042-1.042v-2.956c10.782,0.531 19.438,9.186 19.969,19.967h-2.956c-0.576,0-1.042,0.466-1.042,1.042 0,0.576 0.466,1.042 1.042,1.042h2.956c-0.531,10.782-9.188,19.438-19.97,19.969z"/>
    </g>
  </g>
</svg>
