<?xml version="1.0" encoding="iso-8859-1"?>
<!-- Generator: Adobe Illustrator 18.1.1, SVG Export Plug-In . SVG Version: 6.00 Build 0)  -->
<svg version="1.1" id="Capa_1" xmlns="http://www.w3.org/2000/svg" xmlns:xlink="http://www.w3.org/1999/xlink" x="0px" y="0px"
	 viewBox="0 0 38.324 38.324" style="enable-background:new 0 0 38.324 38.324;" xml:space="preserve">
<g>
	<path d="M38.324,24.708c0-0.002,0-0.002,0-0.002c0-0.121,0-0.248,0-0.406h-0.02c-0.226-9.529-8.033-17.217-17.617-17.217
		c-9.725,0-17.635,7.91-17.635,17.635c0,0.115,0.02,0.223,0.031,0.334L2.831,25.06c0,0-1.76,0-2.49,0
		c-0.729-0.004-0.061,0.631-0.061,0.631l5.5,5.35c0,0,0.359,0.42,0.74,0.041c0.525-0.523,5.359-5.514,5.359-5.514
		s0.67-0.674-0.217-0.67c-0.891,0-2.303,0-2.303,0l-0.147,0.005c0.002-0.066,0.02-0.123,0.02-0.186
		c0-6.32,5.139-11.461,11.455-11.461c6.318,0,11.461,5.141,11.461,11.461c0,0.016,0.002,0.033,0.002,0.051c0,0.178,0,0.301,0,0.391
		c0,0-0.02,0.092,0,0.197c0.016,0.074,0.057,0.158,0.135,0.232c0.111,0.1,0.295,0.178,0.627,0.178c0.916,0,4.115-0.039,4.771-0.039
		c0.271,0,0.424-0.09,0.518-0.189c0.105-0.119,0.121-0.254,0.123-0.297l0,0c0-0.01,0-0.018,0-0.018c0-0.248,0-0.402,0-0.506l0,0
		c0-0.002,0-0.002,0-0.006C38.324,24.497,38.324,24.558,38.324,24.708z"/>
	<g>
	</g>
	<g>
	</g>
	<g>
	</g>
	<g>
	</g>
	<g>
	</g>
	<g>
	</g>
	<g>
	</g>
	<g>
	</g>
	<g>
	</g>
	<g>
	</g>
	<g>
	</g>
	<g>
	</g>
	<g>
	</g>
	<g>
	</g>
	<g>
	</g>
</g>
<g>
</g>
<g>
</g>
<g>
</g>
<g>
</g>
<g>
</g>
<g>
</g>
<g>
</g>
<g>
</g>
<g>
</g>
<g>
</g>
<g>
</g>
<g>
</g>
<g>
</g>
<g>
</g>
<g>
</g>
</svg>
