<?xml version="1.0" encoding="iso-8859-1"?>
<!-- Generator: Adobe Illustrator 19.0.0, SVG Export Plug-In . SVG Version: 6.00 Build 0)  -->
<svg version="1.1" id="Capa_1" xmlns="http://www.w3.org/2000/svg" xmlns:xlink="http://www.w3.org/1999/xlink" x="0px" y="0px"
	 viewBox="0 0 502.664 502.664" style="enable-background:new 0 0 502.664 502.664;" xml:space="preserve">
<g>
	<g>
		<g>
			<path style="fill:#010002;" d="M363.888,260.359v-30.868H333.56c-2.071-11.001-6.299-21.183-12.339-30.113l21.355-21.398
				l-21.808-21.808l-21.398,21.355c-8.887-6.04-19.133-10.268-30.113-12.36v-30.307H238.39v30.307
				c-10.98,2.136-21.183,6.32-30.048,12.382l-21.463-21.377l-21.83,21.808l21.398,21.398c-6.061,8.909-10.311,19.112-12.403,30.113
				h-30.285v30.868h30.285c2.114,10.958,6.342,21.161,12.403,30.113l-21.398,21.398l21.83,21.83l21.42-21.398
				c8.909,6.061,19.112,10.311,30.113,12.403v30.329h30.868v-30.307c10.98-2.114,21.204-6.363,30.113-12.403L320.79,333.7
				l21.83-21.83l-21.355-21.398c6.061-8.93,10.289-19.155,12.36-30.113C333.625,260.359,363.888,260.359,363.888,260.359z
				 M253.813,278.587c-18.572,0-33.694-15.078-33.694-33.672s15.1-33.65,33.694-33.65c18.551,0,33.629,15.056,33.629,33.65
				C287.463,263.509,272.407,278.587,253.813,278.587z"/>
			<path style="fill:#010002;" d="M82.692,244.073c0.022-93.337,75.67-169.007,169.007-169.007c24.397,0,47.369,5.544,68.293,14.862
				l-29.25,29.077l119.394,0.41L410.481,0l-38.806,38.547C336.429,17.861,295.552,5.738,251.699,5.738
				c-131.625,0-238.336,106.711-238.336,238.336c0,55.006,18.81,105.503,50.087,145.84l49.483-49.483
				C93.93,313.057,82.692,279.881,82.692,244.073z"/>
			<path style="fill:#010002;" d="M450.97,116.676l-53.517,45.061c16.609,28.883,24.957,62.857,21.916,98.535
				c-7.938,93.013-89.778,161.932-182.791,153.972c-12.856-1.1-25.13-3.904-36.908-7.679l28.495-35.355l-118.704,12.727
				l12.748,118.726l31.946-39.626c23.62,10.634,49.16,17.99,76.468,20.32c131.15,11.238,246.576-86.003,257.792-217.132
				C493.141,211.437,478.688,159.516,450.97,116.676z"/>
		</g>
	</g>
	<g>
	</g>
	<g>
	</g>
	<g>
	</g>
	<g>
	</g>
	<g>
	</g>
	<g>
	</g>
	<g>
	</g>
	<g>
	</g>
	<g>
	</g>
	<g>
	</g>
	<g>
	</g>
	<g>
	</g>
	<g>
	</g>
	<g>
	</g>
	<g>
	</g>
</g>
<g>
</g>
<g>
</g>
<g>
</g>
<g>
</g>
<g>
</g>
<g>
</g>
<g>
</g>
<g>
</g>
<g>
</g>
<g>
</g>
<g>
</g>
<g>
</g>
<g>
</g>
<g>
</g>
<g>
</g>
</svg>
