<?xml version="1.0" encoding="iso-8859-1"?>
<!-- Generator: Adobe Illustrator 16.0.0, SVG Export Plug-In . SVG Version: 6.00 Build 0)  -->
<!DOCTYPE svg PUBLIC "-//W3C//DTD SVG 1.1//EN" "http://www.w3.org/Graphics/SVG/1.1/DTD/svg11.dtd">
<svg version="1.1" id="Capa_1" xmlns="http://www.w3.org/2000/svg" xmlns:xlink="http://www.w3.org/1999/xlink" x="0px" y="0px"
	 width="612px" height="612px" viewBox="0 0 612 612" style="enable-background:new 0 0 612 612;" xml:space="preserve">
<g>
	<g id="Rectangle_30_copy_2">
		<g>
			<path d="M56.667,226.667h22.667V79.333h147.333V56.667h-170V226.667z M79.333,385.333H56.667v170h170v-22.666H79.333V385.333z
				 M532.667,226.667h22.666v-170h-170v22.667h147.334V226.667z M136,294.667H0v22.667h136V294.667z M294.667,612h22.667V476
				h-22.667V612z M532.667,532.667H385.333v22.666h170v-170h-22.666V532.667z M294.667,136h22.667V0h-22.667V136z M476,294.667
				v22.667h136v-22.667H476z"/>
		</g>
	</g>
</g>
<g>
</g>
<g>
</g>
<g>
</g>
<g>
</g>
<g>
</g>
<g>
</g>
<g>
</g>
<g>
</g>
<g>
</g>
<g>
</g>
<g>
</g>
<g>
</g>
<g>
</g>
<g>
</g>
<g>
</g>
</svg>
