<?xml version="1.0" encoding="iso-8859-1"?>
<!-- Generator: Adobe Illustrator 19.0.0, SVG Export Plug-In . SVG Version: 6.00 Build 0)  -->
<svg version="1.1" id="Capa_1" xmlns="http://www.w3.org/2000/svg" xmlns:xlink="http://www.w3.org/1999/xlink" x="0px" y="0px"
	 viewBox="0 0 394.83 394.83" style="enable-background:new 0 0 394.83 394.83;" xml:space="preserve">
<g>
	<path id="Satellite-Dish" d="M111.434,314.631l48.965-26.114l48.965,26.114H111.434z M122.68,268.399l31.161,16.62L109.2,308.826
		L122.68,268.399z M138.19,221.852l17.268,13.813l-29.822,23.856L138.19,221.852z M180.134,215.923l-19.735,15.787l-19.735-15.787
		L180.134,215.923L180.134,215.923z M195.163,259.521l-29.822-23.856l17.268-13.813L195.163,259.521z M160.399,281.521
		l-31.426-16.762l31.426-25.139l31.426,25.139L160.399,281.521z M211.598,308.825l-44.641-23.807l31.167-16.62L211.598,308.825z
		 M185.076,209.754h-49.354L98.707,320.8h123.385L185.076,209.754z M160.399,166.569c6.805,0,12.338,5.534,12.338,12.338
		c0,6.805-5.534,12.338-12.338,12.338c-6.805,0-12.339-5.534-12.339-12.338C148.061,172.103,153.594,166.569,160.399,166.569
		L160.399,166.569z M160.399,197.415c10.222,0,18.508-8.285,18.508-18.508c0-10.222-8.285-18.508-18.508-18.508
		c-10.223,0-18.508,8.285-18.508,18.508S150.176,197.415,160.399,197.415L160.399,197.415z M252.937,339.308v18.508h-6.169H74.03
		h-6.169v-18.508h6.169h172.738H252.937z M80.199,388.662h160.4v-24.677h-160.4C80.199,363.985,80.199,388.662,80.199,388.662z
		 M137.9,162.214c4.812-10.426,14.751-14.152,22.499-14.152c7.749,0,17.687,3.726,22.499,14.152l55.387,170.925H82.512
		L137.9,162.214z M159.486,8.841l164.817,164.811c-21.463,19.353-48.94,29.933-78.047,29.933c-16.311,0-32.092-3.362-46.609-9.686
		l-10.987-33.918c-5.392-12.061-16.823-18.088-28.261-18.088c-5.157,0-10.29,1.296-14.893,3.751
		C120.466,102.675,125.074,47.053,159.486,8.841L159.486,8.841z M202.091,201.419c14.195,5.466,29.156,8.335,44.166,8.335
		c31.445,0,62.889-11.999,86.881-35.985l-84.704-84.703l9.168-9.168c0.493,0.124,0.975,0.302,1.505,0.302
		c3.405,0,6.169-2.764,6.169-6.169s-2.764-6.169-6.169-6.169s-6.169,2.764-6.169,6.169c0,0.531,0.179,1.012,0.302,1.505
		l-9.168,9.168L159.375,0c-40.421,40.421-46.72,101.965-19.044,149.055c-3.356,2.813-6.194,6.453-8.193,10.926L76.029,333.138
		H61.692v30.846H74.03v30.846h172.738v-30.846h12.338v-30.846h-14.337L202.091,201.419z M300.107,181.092
		c0.604,0.598,1.394,0.901,2.184,0.901c0.79,0,1.579-0.302,2.184-0.901c1.203-1.209,1.203-3.159,0-4.368L156.414,28.662
		c-1.209-1.203-3.159-1.203-4.368,0c-1.203,1.209-1.203,3.159,0,4.368L300.107,181.092z M217.662,32.586
		c22.857-22.845,60.033-22.845,82.89,0c22.851,22.851,22.851,60.039,0,82.89c-1.209,1.203-1.209,3.153,0,4.362
		c0.599,0.599,1.388,0.901,2.178,0.901c0.79,0,1.579-0.302,2.184-0.901c25.257-25.257,25.257-66.356,0-91.613
		s-66.356-25.257-91.613,0c-1.203,1.209-1.203,3.159,0,4.362C214.509,33.795,216.459,33.795,217.662,32.586L217.662,32.586z
		 M283.099,102.385c0.605,0.605,1.394,0.907,2.184,0.907c0.79,0,1.579-0.302,2.178-0.907c15.639-15.633,15.639-41.075,0-56.708
		c-15.633-15.633-41.075-15.633-56.708,0c-1.203,1.203-1.203,3.159,0,4.362s3.159,1.203,4.362,0c6.41-6.41,14.93-9.939,23.992-9.939
		c9.062,0,17.582,3.529,23.992,9.939c6.41,6.41,9.939,14.93,9.939,23.992s-3.529,17.582-9.939,23.992
		C281.896,99.226,281.896,101.182,283.099,102.385L283.099,102.385z"/>
</g>
<g>
</g>
<g>
</g>
<g>
</g>
<g>
</g>
<g>
</g>
<g>
</g>
<g>
</g>
<g>
</g>
<g>
</g>
<g>
</g>
<g>
</g>
<g>
</g>
<g>
</g>
<g>
</g>
<g>
</g>
</svg>
