<?xml version="1.0" encoding="iso-8859-1"?>
<!-- Generator: Adobe Illustrator 19.1.0, SVG Export Plug-In . SVG Version: 6.00 Build 0)  -->
<svg version="1.1" id="Capa_1" xmlns="http://www.w3.org/2000/svg" xmlns:xlink="http://www.w3.org/1999/xlink" x="0px" y="0px"
	 viewBox="0 0 46 46" style="enable-background:new 0 0 46 46;" xml:space="preserve">
<g id="attention_1_">
	<g>
		<path d="M23,30c-2.12,0-4,1.84-4,4c0,2.08,1.92,4,4,4c2.16,0,4-1.92,4-4C26.96,31.84,25.12,30,23,30z M25,27l1-18h-6l1,18H25z
			 M33,0H13L0,13v20l13,13h20l13-13V13L33,0z M42,31L31,42H15L4,31V15L15,4h16l11,11V31z"/>
	</g>
</g>
<g>
</g>
<g>
</g>
<g>
</g>
<g>
</g>
<g>
</g>
<g>
</g>
<g>
</g>
<g>
</g>
<g>
</g>
<g>
</g>
<g>
</g>
<g>
</g>
<g>
</g>
<g>
</g>
<g>
</g>
</svg>
