<?xml version="1.0" standalone="no"?>
<!DOCTYPE svg PUBLIC "-//W3C//DTD SVG 20010904//EN"
 "http://www.w3.org/TR/2001/REC-SVG-20010904/DTD/svg10.dtd">
<svg version="1.0" xmlns="http://www.w3.org/2000/svg"
 width="200.000000pt" height="200.000000pt" viewBox="0 0 200.000000 200.000000"
 preserveAspectRatio="xMidYMid meet">
<metadata>
Created by potrace 1.15, written by Peter Selinger 2001-2017
</metadata>
<g transform="translate(0.000000,200.000000) scale(0.100000,-0.100000)"
fill="#000000" stroke="none">
<path d="M952 1888 c-16 -16 -16 -220 0 -236 7 -7 28 -12 48 -12 55 0 60 11
60 130 0 119 -5 130 -60 130 -20 0 -41 -5 -48 -12z"/>
<path d="M432 1667 c-37 -40 -29 -66 46 -140 55 -54 73 -67 99 -67 35 0 63 29
63 66 0 26 -140 164 -167 164 -11 0 -29 -10 -41 -23z"/>
<path d="M1434 1618 c-77 -75 -86 -96 -58 -136 10 -15 25 -22 47 -22 27 0 44
12 100 68 47 48 67 75 67 93 0 29 -37 69 -64 69 -10 0 -51 -32 -92 -72z"/>
<path d="M855 1512 c-71 -27 -123 -61 -177 -119 -98 -105 -118 -180 -118 -435
l0 -188 440 0 440 0 0 188 c0 199 -9 263 -51 344 -35 68 -122 152 -197 189
-62 31 -75 34 -177 36 -88 3 -120 0 -160 -15z m179 -114 c18 -29 -5 -51 -65
-64 -66 -13 -106 -33 -140 -71 -37 -39 -58 -84 -65 -137 -8 -56 -33 -82 -63
-66 -43 22 -18 153 44 235 74 96 253 160 289 103z"/>
<path d="M210 1140 c-11 -11 -20 -31 -20 -45 0 -51 30 -65 135 -65 107 0 135
14 135 69 0 48 -30 61 -137 61 -80 0 -96 -3 -113 -20z"/>
<path d="M1562 1144 c-15 -10 -22 -25 -22 -49 0 -52 26 -65 137 -65 103 0 133
15 133 65 0 50 -30 65 -133 65 -68 0 -99 -4 -115 -16z"/>
<path d="M430 644 c-45 -20 -77 -50 -101 -96 -17 -33 -19 -60 -19 -243 l0
-205 689 0 c619 0 689 2 695 16 10 27 7 343 -5 388 -14 56 -62 114 -113 137
-38 17 -77 19 -576 18 -456 0 -540 -2 -570 -15z"/>
</g>
</svg>
