<?xml version="1.0" encoding="iso-8859-1"?>
<!-- Generator: Adobe Illustrator 16.0.0, SVG Export Plug-In . SVG Version: 6.00 Build 0)  -->
<!DOCTYPE svg PUBLIC "-//W3C//DTD SVG 1.1//EN" "http://www.w3.org/Graphics/SVG/1.1/DTD/svg11.dtd">
<svg version="1.1" id="Capa_1" xmlns="http://www.w3.org/2000/svg" xmlns:xlink="http://www.w3.org/1999/xlink" x="0px" y="0px"
	 width="574.411px" height="574.412px" viewBox="0 0 574.411 574.412" style="enable-background:new 0 0 574.411 574.412;"
	 xml:space="preserve">
<g>
	<g>
		<path d="M563.99,429.777c-14.704-14.483-25.789-31.302-33.003-50.693c-6.409-17.227-19.078-30.278-30.114-44.403
			c-10.526-13.472-20.91-27.066-31.678-40.343c-9.869-12.163-22.391-20.237-38.556-19.36c-15.397,0.836-29.657-1.138-43.844-7.882
			c-19.449-9.245-39.816-5.035-59.919-1.053c-39.241,7.772-78.499,15.484-117.793,22.975c-11.408,2.175-24.839-11.326-24.398-24.855
			c0.632-19.392,9.645-35.271,23.02-48.69c4.998-5.015,10.963-9.123,16.744-13.285c16.724-12.028,27.94-27.185,30.588-48.352
			c1.33-10.641,3.831-21.191,6.699-31.567c0.449-0.469,0.979-0.857,1.449-1.306c0.869-0.11,1.693-0.767,1.873-1.661
			c1.285-1.094,2.631-2.118,4.051-3.072c0.775,0.106,1.542-0.302,1.975-0.979c1.501,1.412,3.583-0.196,3.342-1.84
			c1.265,1.081,2.979-0.245,3.011-1.795c1.343,0.028,2.665-1.2,2.048-2.611c0.204,0.22,0.408,0.445,0.616,0.665
			c1.358,1.473,3.333,0.155,3.427-1.408c0.779-0.029,1.501-0.555,1.844-1.252c1.473-0.123,2.721-2.081,1.383-3.501
			c-6.071-6.434-12.142-12.868-18.217-19.302c-0.033-0.269-0.13-0.547-0.306-0.833c-4.786-7.683-11.648-13.504-19.564-16.96
			c-8.005-5.292-17.393-9.053-28.294-10.955c-15.614-2.726-31.229-2.64-47.128-1.999c-16.715,0.673-33.705-1.632-50.367-4.06
			c-33.175-4.831-66.21-10.62-99.291-16.075c-2.53-0.412-5.055-1.118-7.462-2.015c-5.341-1.991-8.486-2.464-11.065-0.812
			c-0.604,0.383-1.583,0.987-2.183,1.379c-1.371,0.894-2.273,2.293-2.632,3.831c-0.163,0.698-0.188,1.318-0.208,1.355
			C0.016,37.102,0,37.713,0,38.428v2.599c0,0.718,0.526,1.555,1.159,1.893c3.187,1.702,6.287,3.844,9.673,4.48
			c5.867,1.098,10.425,3.566,14.305,8.001c24.378,27.887,52.844,51.008,83.13,72.159c8.38,5.855,15.206,13.909,22.93,20.747
			c3.044,2.697,6.377,5.227,9.943,7.152c12.419,6.715,20.2,17.442,23.419,30.53c1.689,6.867,0.514,15.182-1.702,22.093
			c-3.072,9.576-7.405,19.05-12.852,27.5c-13.064,20.265-15.423,42.301-13.199,65.447c0.082,0.86,0.245,1.709,0.322,2.57
			c0.013,0.118-0.061,0.245-0.171,0.44c-0.131,0.229-0.763,0.648-1.428,0.91c-1.249,0.493-2.599,1.008-3.864,1.677
			c-8.429,4.443-11.163,12.231-6.957,20.616c5.916,11.795,14.386,20.918,27.104,25.74c2.473,0.938,4.431,3.477,6.377,5.513
			c4.17,4.374,7.65,9.571,12.342,13.252c17.691,13.876,34.667,29.159,53.995,40.302c17.36,10.009,37.315,15.651,56.398,22.469
			c9.098,3.252,19.286,3.68,28.075,7.479c4.708,2.036,7.915,8.25,10.958,13.105c1.286,2.052,0.861,5.532,0.441,8.245
			c-2.664,17.107-19.642,33.99-36.892,35.101c-15.084,0.971-27.083,7.907-38.658,16.356c-1.636,1.195-4.133,2.664-1.407,6.169
			c0.942,1.212-1.399,4.981-2.958,8.58c-0.286,0.657,0.008,0.906,0.648,0.584c12.738-6.397,29.662,1.848,30.673,13.803
			c0.062,0.714,0.612,1.15,1.29,0.913c7.083-2.48,10.061-8.633,12.954-15.067c1.673-3.717,3.982-7.201,6.349-10.547
			c9.547-13.496,17.43-16.479,33.447-12.896c2.954,0.661,5.859,1.746,8.842,2.008c2.325,0.203,4.704-0.245,7.381-1.208
			c0.677-0.245,0.661-0.645-0.021-0.865c-2.962-0.975-5.916-1.967-8.895-2.889c-18.222-5.659-18.4-6.124-7.658-22.138
			c2.048-3.052,3.974-6.275,6.491-8.911c6.63-6.948,8.217-15.104,6.907-24.268c-0.229-1.604,0.029-3.276,0.213-4.79
			c0.085-0.714,0.697-1.424,1.395-1.587c17.911-4.17,35.456-8.258,53.053-12.354c0.697-0.163,1.437,0.262,1.632,0.951
			c4.549,15.969,2.583,30.318-4.667,44.153c-3.366,6.426-9.458,7.332-15.77,8.584c-4.023,0.8-18.434-2.252-22.44-1.37
			c-3.243,0.714,3.913,5.345,0.678,6.091c-1.999,0.461-3.994,0.927-5.993,1.396c-3.999,0.938-7.997,1.889-11.991,2.832
			c-1.404,0.33-2.656,1.313-3.709,2.745c-0.425,0.58-0.143,0.951,0.555,0.783c0.8-0.191,1.645-0.399,2.636-0.636
			c0.697-0.168,1.13,0.261,0.967,0.959c-0.232,0.987-0.44,1.864-0.637,2.692c-0.163,0.697,0.282,1.216,1,1.167
			c2.509-0.172,5.039-0.266,7.52-0.661c19.592-3.134,38.829-1.428,57.703,4.365c2.195,0.674,4.064,2.416,6.223,4.015
			c0.575,0.429,1.436,0.303,1.787-0.322c1.668-2.953,1.121-6.523-1.221-9.991c-6.348-9.404-6.051-19.539-3.301-29.861
			c1.221-4.582,3.578-8.891,4.541-13.505c1.375-6.618,2.387-13.383,2.693-20.127c0.188-4.157,0.163-6.455,5.414-7.312
			c13.423-2.19,26.577-6.291,40.045-7.898c11.926-1.424,24.125-0.53,36.206-0.612c0.588-0.004,1.294,0.335,1.746,0.738
			c11.722,10.367,26.483,12.791,41.041,15.818c12.33,2.566,24.623,5.304,36.933,7.977c0.701,0.15,1.269-0.307,1.269-1.024
			s-0.416-1.705-0.927-2.207C570.311,435.979,567.145,432.882,563.99,429.777z"/>
	</g>
</g>
<g>
</g>
<g>
</g>
<g>
</g>
<g>
</g>
<g>
</g>
<g>
</g>
<g>
</g>
<g>
</g>
<g>
</g>
<g>
</g>
<g>
</g>
<g>
</g>
<g>
</g>
<g>
</g>
<g>
</g>
</svg>
