<?xml version="1.0" encoding="iso-8859-1"?>
<!-- Generator: Adobe Illustrator 16.0.0, SVG Export Plug-In . SVG Version: 6.00 Build 0)  -->
<!DOCTYPE svg PUBLIC "-//W3C//DTD SVG 1.1//EN" "http://www.w3.org/Graphics/SVG/1.1/DTD/svg11.dtd">
<svg version="1.1" id="Capa_1" xmlns="http://www.w3.org/2000/svg" xmlns:xlink="http://www.w3.org/1999/xlink" x="0px" y="0px"
	 width="585.188px" height="585.188px" viewBox="0 0 585.188 585.188" style="enable-background:new 0 0 585.188 585.188;"
	 xml:space="preserve">
<g>
	<g>
		<path d="M584.092,161.668c-0.739-0.024-1.318-0.033-1.873,0.065c-25.586,4.496-49.323,13.398-70.617,28.649
			c-11.366,8.14-23.007,16.002-35.088,23.02c-10.261,5.961-21.366,10.017-32.938,12.995c-4.365,1.121-9.747-1.33-11.265-5.578
			c-2.84-7.947-3.656-16.197-3.101-24.61c0.869-13.228-0.906-25.487-9.396-36.296c-3.224-4.104-5.512-8.931-8.368-13.342
			c-2.061-3.182-3.938-6.642-6.622-9.225c-6.128-5.892-12.913-5.157-17.776,1.783c-2.093,2.982-3.378,6.523-5.067,9.796
			c-1.229,2.375-2.464,4.745-3.7,7.115c-2.053,3.926-4.072,7.186-4.513,7.283c-0.44,0.094-1.628-0.971-2.664-2.37
			c-0.633-0.854-1.285-1.677-2.04-2.403c-21.82-20.947-45.7-38.973-74.023-50.245c-22.894-9.111-46.708-13.737-71.393-10.841
			c-19.323,2.269-37.671,8.217-54.758,17.658c-23.631,13.061-42.668,31.343-57.544,53.579
			c-8.474,12.668-15.087,26.617-22.125,40.204C80,226.7,76.372,245.675,78.069,265.708c1.171,13.835,2.183,27.694,2.823,41.566
			c0.51,11.041,1.934,22.163-1.644,33.064c-1.893,5.77-3.211,11.722-4.978,17.536c-3.46,11.391-7.218,22.583-14.476,32.379
			c-9.241,12.473-20.743,18.96-36.699,17.205c-6.373-0.702-12.93,0.249-19.396,0.555c-0.763,0.037-1.518,0.232-2.485,0.51
			c-1.351,0.384-1.616,1.106-0.587,1.678c0.8,0.444,1.342,0.742,1.922,0.889c8.8,2.244,17.507,5.243,26.455,6.472
			c30.555,4.198,54.031-7.504,70.311-33.432c6.81-10.849,12.815-22.204,19.151-33.351c2.224-3.912,3.595-4.165,7.593-2.619
			c2.929,1.135,3.594,3.228,3.868,5.777c1.938,18.136,4.239,36.238,5.639,54.415c1.33,17.267,6.393,32.754,17.482,46.292
			c2.726,3.325,4.872,6.308,9.303,7.932c4.092,1.497,7.976,3.573,11.84,5.691c9.286,5.703,19.229,20.306,19.229,20.306
			c2.24-7.466-3.982-19.009-7.483-24.672c1.53-1.085,4.125-1.771,7.009-1.42c3.33,0.404,6.577,1.159,9.812,1.987
			c8.291,6.561,16.198,18.156,16.198,18.156c1.738-5.79-1.616-14.035-4.843-20.09c0.379-2.061,2.991-3.64,6.288-3.64
			c2.815,0,4.872-0.767,5.373-1.849c7.524,0.103,14.125,1.11,14.125,1.11c-5.381-9.188-27.132-12.02-27.132-12.02l-0.029,0.13
			c-1.326-0.416-2.68-0.774-4.063-1.064c-8.005-1.665-12.648-6.524-15.606-14.117c-5.026-12.904-10.302-25.765-16.414-38.185
			c-6.046-12.285-8.78-24.843-6.801-38.352c0.163-1.118,0.575-2.203,1.061-3.321c0.771-1.771,4.562-1.371,8.103,1.416
			c7.801,6.136,13.105,13.59,15.039,23.721c2.562,13.452,7.699,25.892,16.593,36.401c3.603,4.256,7.752,8.564,12.566,11.151
			c6.316,3.395,13.68,3.79,20.919,2.574c0.774-0.131,1.55-0.236,2.329-0.347l0.024,0.403c11.29-1.484,38.038,9.196,38.038,9.196
			c-2.975-3.811-7.552-7.43-12.514-10.66c-0.118-0.506-0.277-1.053-0.489-1.637c-0.856-2.366-0.399-4.349,1.024-4.418
			c0.705-0.033,1.276-0.294,1.587-0.661c4.573-0.571,8.119-0.734,8.119-0.734c-4.978-3.546-13.889-4.554-20.429-4.786
			c-2.767-0.755-5.528-1.518-8.246-2.42c-3.271-1.085-7.106-2.382-9.151-4.854c-5.1-6.157-9.339-13.023-13.868-19.649
			c-0.58-0.849-0.824-1.934-1.2-2.913c-3.664-9.543-4.121-19.47-4.488-29.462c-0.163-4.504,3.097-9.457,7.507-10.375
			c7.348-1.53,14.721-1.583,22.138-0.689c3.819,0.461,8.381,0.926,11.127,3.182c24.264,19.923,37.52,46.296,43.207,76.721
			c2.04,10.897,3.109,21.975,4.884,32.93c0.277,1.714,1.611,3.635,3.023,4.725c7.797,6.014,16.851,6.92,26.34,6.222
			c6.635-0.489,12.84,0.392,18.234,3.64c8.535,6.446,16.879,18.679,16.879,18.679c1.578-5.26-1.049-12.538-3.962-18.373
			c1.02-0.983,2.615-1.529,4.513-1.57l-0.078,0.122c0.649-0.041,1.326-0.036,2.02-0.008c0.094,0.012,0.184,0.012,0.277,0.028
			c3.673,0.616,7.308,1.13,10.751,2.187c8.274,2.587,15.859,6.487,15.859,6.487c-0.873-4.198-4.603-8.258-8.739-11.619
			c-0.103-0.266-0.232-0.539-0.355-0.809c6.182,0.273,11.102,1.024,11.102,1.024c-3.492-5.961-13.852-9.237-20.71-10.808
			c-4.888-3.284-10.281-6.092-15.969-8.503c-8.278-3.513-12.922-9.616-15.524-17.581c-1.403-4.284,1.053-5.671,5.206-3.925
			c5.377,2.257,10.935,2.958,16.777,2.774c5.214-0.167,10.437-0.139,15.757-0.098c9.139,1.396,18.245,4.704,18.245,4.704
			c-1.077-3.117-3.814-5.937-7.078-8.352c5.862,0.294,10.437,0.987,10.437,0.987c-1.742-2.979-5.215-5.279-9.099-7.042
			c-0.216-0.2-0.437-0.4-0.714-0.588c-1.734-1.191-3.713-1.844-5.684-2.342c-6.52-1.64-13.158-2.852-19.792-3.99
			c-8.127-1.392-13.762-6.328-15.541-14.215c-1.872-8.311-2.513-16.671-1.632-25.219c1.167-11.306,1.86-22.66,2.778-33.994
			c0.021-0.249,0.123-0.489,0.257-0.779c0.192-0.412,2.012,18.344,4.778,17.731c2.656-0.587,4.247,0.519,5.006,3.134
			c0.2,0.682,0.519,1.326,0.931,2.105c0.596,1.126,1.578-1.571,2.224-6.03c0.012-0.094,0.028-0.184,0.04-0.277
			c0.641-4.46,20.144-17.81,23.432-14.725c3.289,3.084,6.435,6.038,9.539,9.037c8.854,8.547,17.952,16.866,26.39,25.81
			c10.738,11.379,16.883,25.492,21.604,40.184c1.134,3.534,2.66,5.292,6.381,5.569c3.276,0.241,6.524,1.021,9.751,1.697
			c0.935,0.196,9.029-2.252,12.922-3.431c1.371-0.416,2.831-0.923,3.929-1.787c3.938-3.105,7.83-6.279,11.559-9.629
			c2.159-1.942,1.693-6.912-0.596-8.812c-8.996-7.475-14.639-16.994-16.785-28.43c-1.827-9.739-3.415-19.539-4.675-29.368
			c-0.723-5.594-0.633-11.298-0.809-16.956c-0.18-5.77-0.62-11.571-0.232-17.308c0.376-5.562-0.575-10.478-3.938-14.933
			c-0.596-0.792-1.379-1.84-1.293-2.688c0.755-7.475-1.669-14.301-3.729-21.298c-1.934-6.557-1.501-12.852,5.121-17.128
			c5.536-3.574,10.71-7.825,16.532-10.832c15.74-8.124,30.334-17.899,43.215-29.968c15.354-14.378,30.155-29.348,45.174-44.08
			c0.4-0.392,0.727-0.854,1.139-1.449C585.487,162.378,585.128,161.705,584.092,161.668z"/>
	</g>
</g>
<g>
</g>
<g>
</g>
<g>
</g>
<g>
</g>
<g>
</g>
<g>
</g>
<g>
</g>
<g>
</g>
<g>
</g>
<g>
</g>
<g>
</g>
<g>
</g>
<g>
</g>
<g>
</g>
<g>
</g>
</svg>
