<svg id="Capa_1" enable-background="new 0 0 512 512" height="512" viewBox="0 0 512 512" width="512" xmlns="http://www.w3.org/2000/svg"><g><g><g><path d="m83.316 259.46c0-24.685 8.517-47.415 22.764-65.415-42.856-10.383-90.383-4.699-92.933-4.381-4.619.575-8.709 3.263-11.072 7.273-2.362 4.011-2.728 8.891-.991 13.21 1.233 3.066 30.735 75.393 77.199 102.757 10.08 5.936 19.757 10.388 28.984 13.349-15.27-18.697-23.951-42.34-23.951-66.793z"/><path d="m509.925 196.937c-2.361-4.011-6.452-6.698-11.071-7.273-2.551-.317-50.078-6.002-92.933 4.381 14.246 17.999 22.764 40.73 22.764 65.415 0 24.453-8.682 48.096-23.952 66.793 9.228-2.961 18.905-7.413 28.984-13.349 46.465-27.364 75.967-99.691 77.199-102.757 1.737-4.319 1.371-9.199-.991-13.21z"/></g><g><path d="m435.821 102.707c-7.94-2.368-16.294 2.148-18.662 10.085-6.444 21.6-16.465 31.477-40.404 35.093 10.07-18.23 17.505-39.039 21.995-61.345 37.612-4.617 66.757-34.928 66.757-71.54 0-8.284-6.716-15-15-15s-15 6.716-15 15c0 18.768-13.661 34.704-32.479 40.157.487-6.555.743-13.184.743-19.87 0-8.284-6.716-15-15-15s-15 6.716-15 15c0 18.166-2.036 35.801-5.932 52.29-30.649-5.661-54.13-36.045-54.13-72.577 0-8.284-6.716-15-15-15s-15 6.716-15 15c0 49.764 32.202 91.435 74.967 101.311-3.902 9.495-8.522 18.369-13.82 26.458-2.806 4.283-5.746 8.251-8.801 11.901 19.487 2.395 37.349 10.117 52.077 21.665 25.413-5.404 47.164-19.403 57.774-54.967 2.369-7.937-2.146-16.293-10.085-18.661z"/><path d="m123.895 176.315c14.752-11.559 32.644-19.28 52.163-21.657-3.05-3.646-5.987-7.609-8.79-11.888-5.298-8.089-9.918-16.963-13.82-26.458 42.765-9.876 74.967-51.548 74.967-101.311 0-8.284-6.716-15-15-15s-15 6.716-15 15c0 36.532-23.48 66.915-54.129 72.577-3.896-16.49-5.932-34.124-5.932-52.29 0-8.284-6.716-15-15-15s-15 6.716-15 15c0 6.686.255 13.315.743 19.87-18.818-5.453-32.479-21.39-32.479-40.158 0-8.284-6.716-15-15-15s-15 6.716-15 15c0 36.612 29.145 66.923 66.757 71.54 4.49 22.306 11.924 43.115 21.994 61.345-23.939-3.616-33.96-13.493-40.404-35.093-2.369-7.938-10.723-12.456-18.663-10.085-7.938 2.369-12.454 10.724-10.085 18.663 10.597 35.517 32.307 49.526 57.678 54.945z"/></g></g><path d="m323.1 183.875h-134.199c-41.678 0-75.585 33.907-75.585 75.585 0 23.935 11.308 46.251 30.464 60.546l42.666 90.769c-3.287 8.504-4.949 17.462-4.949 26.722 0 41.081 33.422 74.503 74.503 74.503s74.503-33.422 74.503-74.503c0-9.26-1.661-18.217-4.948-26.722l42.666-90.769c19.156-14.295 30.464-36.612 30.464-60.546 0-41.678-33.908-75.585-75.585-75.585zm-103.19 95.365c-1.416 6.918-7.622 12.07-14.71 12.07-6.253 0-12.019-4.062-14.11-9.953-2.09-5.889-.268-12.684 4.6-16.647 4.868-3.964 11.821-4.482 17.217-1.27 5.363 3.192 8.256 9.677 7.003 15.8zm50 153c-1.414 6.918-7.625 12.07-14.711 12.07-6.253 0-12.018-4.061-14.11-9.953-2.09-5.889-.268-12.683 4.6-16.647 4.872-3.967 11.82-4.478 17.218-1.266 5.365 3.191 8.255 9.672 7.003 15.796zm50-153c-1.401 6.918-7.635 12.07-14.71 12.07-6.253 0-12.021-4.061-14.114-9.953-2.092-5.888-.261-12.687 4.603-16.647 4.869-3.964 11.82-4.48 17.218-1.27 5.371 3.195 8.243 9.675 7.003 15.8z"/></g></svg>