<svg id="Capa_1" enable-background="new 0 0 512 512" height="512" viewBox="0 0 512 512" width="512" xmlns="http://www.w3.org/2000/svg"><g><path d="m86.166 124.462c0 39.165 17.458 76.823 47.897 103.318l106.937 93.081v-14.434c0-8.284 6.716-15 15-15s15 6.716 15 15v14.451l106.944-93.097c30.435-26.494 47.89-64.15 47.89-103.312v-121.163c-.772-.619-1.609-1.17-2.508-1.635-4.985-2.574-10.993-2.15-15.567 1.1l-68.026 48.323c-26.866-8.886-54.993-13.386-83.733-13.386-29.165 0-57.684 4.63-84.899 13.774l-66.713-48.606c-4.561-3.323-10.603-3.804-15.634-1.246-.929.473-1.794 1.036-2.588 1.673zm209.904 58.778c.635-6.246 5.2-11.53 11.283-13.072 6.049-1.534 12.671 1.004 16.117 6.213 3.465 5.236 3.312 12.202-.42 17.261-3.721 5.044-10.413 7.232-16.4 5.419-6.744-2.044-11.294-8.793-10.58-15.821zm-110 0c.634-6.236 5.198-11.543 11.281-13.072 6.059-1.524 12.659.999 16.119 6.213 3.472 5.232 3.309 12.205-.42 17.261-3.721 5.044-10.423 7.236-16.41 5.419-6.839-2.077-11.146-8.773-10.57-15.821z"/><path d="m455.834 114.557v9.91c0 47.843-21.211 93.746-58.193 125.939l-131.782 114.72c-2.823 2.458-6.336 3.687-9.849 3.687s-7.025-1.229-9.848-3.686l-116.346-101.27c-2.717 25.259-12.831 49.383-29.159 69.08-18.737 22.603-44.765 38.395-73.399 44.576 12.183 23.047 28.286 44.332 47.982 63.097 48.322 46.036 112.516 71.39 180.76 71.39s132.439-25.354 180.759-71.391c48.52-46.226 75.241-107.742 75.241-173.217 0-55.89-20.111-109.756-56.166-152.835z"/><path d="m20.016 348.388c45.899-9.456 79.395-49.617 80.492-95.996h-85.508c-8.284 0-15 6.716-15 15 0 28.754 5.157 56.744 15.047 83.012 1.484-.937 3.148-1.641 4.969-2.016z"/></g></svg>