<?xml version="1.0" encoding="iso-8859-1"?>
<!-- Generator: Adobe Illustrator 16.0.0, SVG Export Plug-In . SVG Version: 6.00 Build 0)  -->
<!DOCTYPE svg PUBLIC "-//W3C//DTD SVG 1.1//EN" "http://www.w3.org/Graphics/SVG/1.1/DTD/svg11.dtd">
<svg version="1.1" id="Capa_1" xmlns="http://www.w3.org/2000/svg" xmlns:xlink="http://www.w3.org/1999/xlink" x="0px" y="0px"
	 width="583.556px" height="583.556px" viewBox="0 0 583.556 583.556" style="enable-background:new 0 0 583.556 583.556;"
	 xml:space="preserve">
<g>
	<g>
		<path d="M582.185,126.472c-0.652-0.314-1.428-0.261-2.027,0.146c-6.846,4.61-13.525,9.568-19.992,14.362
			c-12.75,9.453-25.879,19.192-40.461,26.361c12.529-20.792,24.721-45.015,24.688-73.109c0-0.808-0.477-1.538-1.22-1.865
			l-3.651-1.604c-0.983-0.437-2.142-0.024-2.636,0.935l-3.297,6.458c-2.456,4.839-4.912,9.674-7.486,14.447l-1.44,2.672
			c-5.541,10.294-11.277,20.938-17.287,31.167c-0.935,1.587-2.64,2.897-4.455,4.284c-0.4,0.306-0.796,0.612-1.191,0.926
			c0.062-0.314,0.114-0.625,0.176-0.938c0.399-2.146,0.812-4.366,0.864-6.642c0.069-3.015,0.176-6.035,0.282-9.054
			c0.322-9.192,0.66-18.699-0.131-28.013c-0.678-8.034-4.974-13.244-12.771-15.479c-0.588-0.167-1.229-0.065-1.734,0.29
			c-0.502,0.351-0.819,0.914-0.864,1.53c-0.192,2.729-0.352,5.463-0.506,8.197c-0.335,5.802-0.682,11.804-1.371,17.634
			c-3.778,31.914-18.69,60.246-46.944,89.16c-32.11,32.873-64.231,65.725-96.361,98.576c-0.775,0.796-1.596,1.555-2.407,2.318
			c-0.833,0.778-1.665,1.558-2.465,2.374c-3.721,3.786-7.564,7.707-9.168,7.707c-1.289,0-3.464-3.606-6.209-8.168l-1.856-3.08
			c-6.422-10.661-13.061-21.685-26.178-26.952c-0.922-0.372-1.971-2.774-2.669-4.362c-0.228-0.526-0.453-1.04-0.677-1.514
			c-10.314-21.86-24.892-35.304-44.558-41.098c-1.016-0.302-2.085-0.849-3.092-1.583c-4.909-3.595-9.751-7.312-14.586-11.024
			c-10.849-8.327-22.068-16.936-33.986-24.039c-7.523-4.484-13.86-10.306-19.988-15.945c-3.374-3.101-6.867-6.308-10.53-9.278
			c-12.538-10.163-27.267-19.601-46.341-29.707c-7.389-3.913-11.155-8.021-13.015-14.186c-3.692-12.24-10.331-27.03-29.033-32.808
			c-1.575-0.485-3.032-3.007-4.447-5.447c-1.134-1.962-2.31-3.994-3.827-5.589c-6.181-6.503-11.505-11.432-16.769-15.508
			c-2.138-1.656-5.149-1.779-7.136-1.86c-0.547-0.021-1.016-0.033-1.351-0.09c-0.734-0.123-1.44,0.135-1.909,0.686
			c-0.465,0.551-0.608,1.306-0.375,1.991c1.677,4.855,3.476,9.653,5.263,14.422c4.133,11.024,8.034,21.437,10.445,32.367
			c3.228,14.659,3.525,30.339,3.791,44.17c0.469,24.941,10.171,45.182,29.666,61.873c30.775,26.369,63.681,50.343,100.588,73.292
			c11.012,6.847,20.567,16.916,29.25,26.781c4.162,4.732,6.034,12.465,6.405,18.119c0.323,4.938-0.465,8.34-2.403,10.412
			c-1.877,2.004-5.047,2.975-9.69,2.975l-1.004-0.017c-23.733-0.677-43.631-8.649-59.131-23.692
			c-6.777-6.577-13.036-13.685-18.792-20.384c-5.121-5.961-11.526-7.752-20.526-5.459c-9.861,2.51-19.707,5.08-29.547,7.65
			c-7.12,1.86-14.235,3.717-21.359,5.553c-11.612,2.99-23.607,5.483-35.21,7.891c-8.531,1.771-17.352,3.603-25.961,5.618
			c-0.979,0.229-1.645,1.139-1.571,2.142l0.114,1.571c0.045,0.543,0.298,1.044,0.714,1.399c0.416,0.351,0.951,0.53,1.493,0.478
			l36.9-3.105l6.875-0.375c16.577-0.914,33.726-1.86,50.861-2.375c2.452,0,5.047,0.951,7.801,1.959
			c1.004,0.367,2.007,0.734,2.999,1.053c0.375,0.122,0.894,0.51,1.391,0.877c0.983,0.73,2.097,1.559,3.562,1.615
			c10.779,0.412,19.657,5.271,29.066,10.417c4.904,2.685,9.979,5.459,15.316,7.52l12.591,4.83
			c16.813,6.431,34.203,13.081,50.939,20.4c10.094,4.419,18.556,9.935,24.476,15.957c13.248,13.484,30.274,19.796,45.296,25.365
			c10.294,3.823,18.132,7.862,25.406,13.097c9.727,7.005,20.633,12.595,31.176,18.001c2.436,1.244,4.859,2.493,7.274,3.754
			c7.78,4.067,15.643,7.988,23.501,11.909c12.844,6.414,26.128,13.044,38.801,20.204c6.891,3.896,13.231,9.245,19.363,14.415
			c2.791,2.354,5.582,4.704,8.434,6.943c1.375,1.082,2.709,2.216,4.5,3.737l3.452,2.922c0.379,0.318,0.845,0.478,1.31,0.478
			c0.44,0,0.89-0.144,1.257-0.433c0.763-0.596,0.999-1.637,0.579-2.505c-1.358-2.783-2.493-5.423-3.558-7.896
			c-2.317-5.39-4.325-10.041-7.568-13.835c-4.072-4.745-10.869-10.163-17.74-11.135c-12.154-1.717-21.44-8.065-31.269-14.785
			c-1.991-1.363-3.986-2.726-6.006-4.052l-2.452-1.604c-8.229-5.373-16.732-10.931-24.203-17.336
			c-3.912-3.354-7.185-7.728-10.347-11.958c-0.828-1.11-1.66-2.22-2.497-3.313c5.398-1.326,10.755-1.971,16.275-1.971
			c17.683,0,33.941,6.916,49.67,13.603c2.855,1.216,5.708,2.428,8.576,3.604c15.978,6.556,31.6,13.435,43.432,18.698
			c2.068,0.922,3.709,1.351,5.165,1.351c4.99,0,6.377-5.194,7.214-8.295c2.06-7.662,3.333-18.572-9.074-25.251
			c-1.62-13.664-11.478-15.255-20.192-16.658c-2.321-0.376-4.729-0.764-6.895-1.363c-15.056-4.182-29.98-8.556-45.778-13.187
			c-5.707-1.673-11.514-3.374-17.445-5.104c0.559-0.767,1.085-1.488,1.583-2.183c1.971-2.729,3.529-4.888,5.21-6.903
			c0.918-1.102,2.012-2.121,3.17-3.202c2.098-1.955,4.26-3.975,5.492-6.626c3.37-7.279,9.856-10.318,16.724-13.538l2.138-1.012
			c9.086-4.345,16.071-8.936,20.653-17.218c0.755-1.358,2.22-2.513,3.773-3.741c0.715-0.562,1.429-1.126,2.085-1.714
			c2.351-2.097,4.721-4.174,7.092-6.246c4.912-4.3,9.995-8.747,14.81-13.35c6.667-6.373,13.688-13.224,19.874-20.697
			c2.383-2.877,4.039-6.259,5.646-9.527c0.938-1.918,1.914-3.9,2.995-5.696c0.718-1.183,2.052-2.407,3.868-3.545
			c2.807-1.754,5.695-3.407,8.584-5.06c5.867-3.362,11.934-6.834,17.287-11.142c3.908-3.146,6.724-7.503,9.445-11.718
			c1.175-1.82,2.35-3.64,3.61-5.353c0.522-0.706,0.53-1.669,0.028-2.383l-1.864-2.636c-0.363-0.51-0.935-0.828-1.562-0.861
			l-12.514-0.636c0.89-0.628,1.767-1.249,2.632-1.856c5.129-3.619,9.968-7.034,14.455-10.841
			c8.377-7.107,12.257-15.145,12.212-25.296c-0.004-0.62-0.29-1.208-0.779-1.595c-0.49-0.388-1.139-0.531-1.734-0.379l-26.137,6.246
			c0.245-0.363,0.481-0.726,0.723-1.093c1.208-1.84,2.346-3.574,3.782-4.863c5.022-4.513,10.126-8.939,15.23-13.366
			c8.601-7.462,17.495-15.182,25.863-23.207c6.145-5.892,10.967-13.178,15.626-20.229l0.955-1.444
			c2.126-3.211,1.987-7.523,1.632-12.032C583.271,127.426,582.838,126.786,582.185,126.472z"/>
	</g>
</g>
<g>
</g>
<g>
</g>
<g>
</g>
<g>
</g>
<g>
</g>
<g>
</g>
<g>
</g>
<g>
</g>
<g>
</g>
<g>
</g>
<g>
</g>
<g>
</g>
<g>
</g>
<g>
</g>
<g>
</g>
</svg>
