<?xml version="1.0" encoding="iso-8859-1"?>
<!-- Generator: Adobe Illustrator 18.1.1, SVG Export Plug-In . SVG Version: 6.00 Build 0)  -->
<svg version="1.1" id="Capa_1" xmlns="http://www.w3.org/2000/svg" xmlns:xlink="http://www.w3.org/1999/xlink" x="0px" y="0px"
	 viewBox="0 0 44.08 44.08" style="enable-background:new 0 0 44.08 44.08;" xml:space="preserve">
<g>
	<g>
		<path d="M44.04,16.037c-0.066-0.394-0.14-0.794-0.25-1.198c-0.152-0.425-0.326-0.854-0.531-1.269
			c-0.246-0.42-0.535-0.827-0.834-1.219c-0.342-0.354-0.697-0.705-1.075-1.012c-0.378-0.266-0.777-0.503-1.173-0.721
			c-0.383-0.169-0.766-0.306-1.147-0.429c-0.38-0.116-0.717-0.151-1.069-0.203c-0.705-0.11-1.301-0.016-1.89,0.033
			c-0.556,0.112-1.083,0.246-1.545,0.427c-0.46,0.195-0.875,0.403-1.239,0.617c-0.361,0.212-0.672,0.471-0.925,0.664
			c-0.075,0.054-0.136,0.112-0.202,0.169c-2.939-2.648-6.949-4.449-11.488-4.81c-1.392-0.111-2.752-0.067-4.073,0.089l-1.177-2.447
			l-0.105,2.627c-3.253,0.599-6.169,1.985-8.464,3.923c-0.046-1.064-0.916-1.915-1.991-1.915c-1.104,0-2,0.896-2,2
			c0,1.658-0.118,2.295-0.201,2.536C2.554,13.92,2.352,13.943,2,13.943c-1.104,0-2,0.896-2,2s0.896,2,2,2
			c0.119,0,0.224-0.011,0.338-0.015c-0.285,0.915-0.48,1.865-0.558,2.849c-0.132,1.657,0.065,3.273,0.524,4.811L0.917,26.71
			l1.654-0.323c0.608,1.658,1.534,3.205,2.725,4.587l-1.275,2.121l2.071-1.244c0.622,0.623,1.312,1.196,2.041,1.731l-0.599,3.03
			l1.806-2.217c1.513,0.936,3.198,1.683,5.017,2.189l0.443,2.768l0.842-2.461c0.853,0.178,1.723,0.323,2.621,0.396
			c1.747,0.139,3.448,0.049,5.074-0.228l1.297,2.121l-0.143-2.361c3.021-0.699,5.733-2.063,7.86-3.939l2.539,1.705l-1.47-2.746
			c1.393-1.486,2.453-3.216,3.092-5.119l1.572,0.165l-1.361-0.917c0.208-0.77,0.367-1.556,0.433-2.372
			c0.063-0.786,0.032-1.559-0.044-2.324c0.516-0.168,1.016-0.388,1.518-0.638c0.444,0.619,0.922,1.216,1.302,1.665
			c0.188,0.242,0.409,0.437,0.528,0.565c0.142,0.133,0.217,0.203,0.217,0.203s0.084-0.062,0.24-0.176
			c0.135-0.115,0.379-0.281,0.594-0.499c0.229-0.22,0.531-0.471,0.793-0.791c0.267-0.329,0.535-0.714,0.796-1.15
			c0.249-0.437,0.461-0.932,0.655-1.466c0.096-0.279,0.138-0.576,0.209-0.881c0.072-0.303,0.112-0.62,0.112-0.98
			C44.079,16.768,44.094,16.43,44.04,16.037z M14.972,26.119c-0.796,0-1.442-0.646-1.442-1.442s0.645-1.441,1.442-1.441
			c0.796,0,1.442,0.645,1.442,1.441S15.768,26.119,14.972,26.119z M13.827,15.943c-1.522,0-2.756-1.234-2.756-2.756
			s1.234-2.756,2.756-2.756c1.522,0,2.756,1.234,2.756,2.756S15.349,15.943,13.827,15.943z M18.26,19.754
			c-0.473,0-0.856-0.383-0.856-0.856s0.383-0.856,0.856-0.856c0.473,0,0.856,0.383,0.856,0.856S18.733,19.754,18.26,19.754z
			 M23.09,31.134c-0.474,0-0.856-0.383-0.856-0.855c0-0.474,0.383-0.856,0.856-0.856s0.855,0.383,0.855,0.856
			C23.946,30.751,23.563,31.134,23.09,31.134z M23.09,23.931c-0.597,0-1.08-0.482-1.08-1.078c0-0.597,0.483-1.08,1.08-1.08
			c0.596,0,1.078,0.483,1.078,1.08C24.169,23.448,23.686,23.931,23.09,23.931z"/>
		<circle cx="13.827" cy="13.187" r="1.447"/>
	</g>
</g>
<g>
</g>
<g>
</g>
<g>
</g>
<g>
</g>
<g>
</g>
<g>
</g>
<g>
</g>
<g>
</g>
<g>
</g>
<g>
</g>
<g>
</g>
<g>
</g>
<g>
</g>
<g>
</g>
<g>
</g>
</svg>
