<?xml version="1.0" encoding="iso-8859-1"?>
<!-- Generator: Adobe Illustrator 16.0.0, SVG Export Plug-In . SVG Version: 6.00 Build 0)  -->
<!DOCTYPE svg PUBLIC "-//W3C//DTD SVG 1.1//EN" "http://www.w3.org/Graphics/SVG/1.1/DTD/svg11.dtd">
<svg version="1.1" id="Capa_1" xmlns="http://www.w3.org/2000/svg" xmlns:xlink="http://www.w3.org/1999/xlink" x="0px" y="0px"
	 width="582.039px" height="582.039px" viewBox="0 0 582.039 582.039" style="enable-background:new 0 0 582.039 582.039;"
	 xml:space="preserve">
<g>
	<path d="M515.475,169.833c-0.306,0.918-0.612,1.836-1.224,2.754c-0.612,1.224-1.225,2.142-2.448,2.754
		c-3.366,1.53-6.12,3.672-7.038,7.65c0,0.306-0.306,0.918-0.612,1.224c-1.224,3.672-2.448,7.65-2.448,11.628
		c-0.306,10.71,4.284,20.196,7.345,29.682c3.672,11.016,6.12,22.95,5.813,34.578c-0.306,10.404-3.06,20.808-8.262,29.682
		c-3.979,7.038-11.935,16.83-19.278,20.195c-0.611,0.307-0.918,0.918-1.224,1.53c-1.224,2.143-2.448,4.59-3.672,6.732
		c-2.448,3.672-4.896,7.038-7.345,10.71c-2.142,3.06-4.59,5.813-7.649,8.262c-0.918,0.612-1.836,1.53-2.754,2.754
		c-0.307,0.306-0.307,0.918,0.306,0.918c0.612,0.307,1.225,0.612,1.53,0.612c0.612,0.306,1.53,0.612,2.142,0.612
		c4.896,2.142,10.099,3.978,14.994,6.426c2.448,1.224,5.202,2.447,7.344,3.978c3.061,2.448,5.814,5.202,8.874,7.344
		c1.53,0.919,2.448,2.755,2.754,4.591c0,1.836,0.307,3.978,0.307,5.813c0,4.59-0.307,8.874-0.307,13.464c0,1.53,0,3.061,0.307,4.896
		c0,0.918-0.307,1.53-0.918,1.836c-0.307,0.306-0.918,0.612-0.918,1.224c0,2.448-1.225,4.59-2.448,6.427
		c-1.53,2.754-3.672,3.672-6.426,3.365c-0.307,0-0.918,0-1.225-0.306c-1.224-0.612-2.142-0.306-3.365,0
		c-2.143,0.612-4.591,0.612-6.732-0.306c-1.836-0.918-3.06-2.143-3.366-4.284c0-0.612,0.307-0.918,0.612-0.612
		c4.59,0.612,6.426,0,7.649-3.06c0.307-0.612,0-1.225-0.306-1.53c-2.448-2.448-3.06-4.896-1.53-8.262
		c0.612-1.836,1.53-3.366,3.061-4.59c0.306-0.307,0.612-0.612,0.612-0.919c0.611-1.529,1.224-2.754,0.611-4.59
		c-0.611-1.836-0.918-3.978-1.224-5.813c0-0.612-0.612-1.225-0.918-1.225c-1.53-0.611-3.061-1.529-4.59-2.142
		c-4.284-2.142-8.568-3.366-13.464-3.366c-1.837,0-3.979,0-5.814,0c-6.426,0-12.546-1.224-18.36-2.448c-0.306,0-0.611,0-0.918-0.306
		c-0.611,0-0.918,0-0.918,0s0,0.612,0.307,0.918c2.142,2.754,4.283,5.202,6.426,7.65c2.754,3.366,6.12,5.508,9.792,7.956
		c1.836,1.224,3.366,2.754,4.284,4.59c1.224,2.448,2.447,4.59,3.672,7.038c0.611,0.918,0.611,1.529,0.611,2.448
		c-0.611,3.365-2.142,6.731-4.59,9.18c-3.366,3.672-6.12,7.956-7.956,12.546c-0.918,1.836-2.142,3.366-3.978,4.284
		c-0.612,0.306-1.224,0.611-1.53,1.224c-3.06,3.672-7.956,4.284-11.628,1.224c-0.918-0.611-1.836-0.918-2.754-0.306
		c-1.224,0.612-2.754,0.918-3.978,1.224c-6.427,1.225-12.547-6.426-10.711-11.628c0.307-0.611,0-1.224,0.307-1.836
		c0.306-0.306,0.918-0.306,0.918-0.306l0.306,0.306c0,1.836,1.225,3.061,2.448,4.284s2.754,1.836,4.59,1.224
		c1.53-0.611,2.754-1.529,3.061-3.365c0.306-2.754,2.447-3.672,5.201-3.061c0.307,0,0.612,0,0.918,0.307
		c0.918,0.611,1.837,0,2.143-0.612c0.612-1.224,1.53-2.448,1.836-3.979c1.224-4.283,1.224-4.59,3.366-7.344
		c0.306-0.306,0.306-1.224,0.306-1.53c-0.612-1.836-1.53-3.365-2.142-4.896c-0.307-0.612-0.612-1.224-1.225-1.836
		c-2.142-1.836-4.283-3.979-6.426-5.814c-4.59-3.365-7.956-7.649-11.934-11.628c-4.59-4.59-9.181-9.18-14.076-13.464
		c-3.979-3.672-8.568-7.038-12.853-10.404c-0.918-0.918-1.836-2.142-2.447-3.365c-0.612-0.918-0.918-1.836-0.612-3.061
		c0.918-3.366,1.836-7.038,4.59-9.485c0.918-0.918,1.836-2.143,2.143-3.366c0.918-2.143,1.224-4.284,1.836-6.426
		c0.918-3.366,1.836-7.038,3.978-9.792c0.306-0.307,0.612-0.918,0.918-1.225c0.307-0.306,0-0.918-0.612-0.918
		c-2.142-0.306-4.283-0.306-6.119-0.612c-5.509-0.918-11.017-1.529-16.524-2.447c-4.59-0.612-8.874-1.836-13.464-2.448
		c-7.956-1.224-15.912-1.836-23.868-1.836c-2.754,0-5.508,0-8.568,0.306c-0.611,0-0.918,0.307-0.918,0.918
		c0,0.918,0,1.53,0.307,2.143c0.611,3.978,0.611,7.956,0.306,11.934c-0.306,5.508-0.612,11.016-0.918,16.524
		c-0.306,4.59-0.918,9.18-2.448,13.464c-1.224,3.06-2.447,5.813-3.366,8.874c-0.306,0.306-0.611,0.918-0.918,1.224
		c-1.529,1.53-3.06,3.061-4.59,4.284c-2.142,2.142-4.59,4.284-6.731,6.12c-5.202,4.896-10.71,9.485-15.912,14.382
		c-3.979,3.672-7.344,7.956-11.322,11.934c-5.508,5.202-9.485,11.629-14.075,17.442c-3.979,5.508-7.038,11.322-9.181,17.748
		c-0.306,1.224-0.611,2.754-0.306,3.978c0.306,1.837,1.224,3.366,1.836,4.896c1.836,3.06,3.06,6.732,5.508,9.486
		c0.306,0.611,0.612,1.224,0.918,1.836c1.53,3.06,3.672,6.12,4.896,9.18c0.918,2.448,2.754,4.284,4.283,6.426
		c1.225,1.53,2.448,3.061,3.673,4.59c3.06,4.284,7.037,7.956,12.239,9.486c3.672,1.225,7.65,1.836,11.628,2.143
		c2.143,0.306,4.284,0.611,6.12,1.224c3.672,1.224,7.344,1.836,11.322,0.306c0.306,0,0.306,0,0.612-0.306
		c3.365-1.836,6.731-0.612,9.791,0.612c2.143,0.918,3.979,1.224,6.12,1.529c2.143,0.307,4.591,0.612,6.12,2.448
		c1.836,2.142,3.366,4.284,5.202,6.732c0.306,0.306,0.612,0.918,0.306,1.529c0,0.612-0.918,0.612-1.224,0.307
		c-1.224-0.918-2.142-1.53-3.366-2.143c-0.611-0.611-1.529-0.918-2.447-1.224c-1.837-0.612-3.979-0.306-5.814,0.306
		c-1.224,0.612-2.142,1.836-2.448,3.366c0,0.612-0.611,0.918-0.918,1.224c-2.754,0.612-5.202,0.307-7.649-0.611
		c-0.612,0-0.918,0.306-0.612,0.611c0,0.307,0.306,0.612,0,0.919c-0.306,0.611-0.918,0.306-1.224,0
		c-0.307-0.612-0.612-1.53-1.837-1.53c-0.918,0-1.224-0.307-2.142,0c-1.224,0.306-2.754,0-3.978,0c-0.612,0-0.918,0-1.225,0.306
		c0,0,0,0,0,0.307c-1.53,3.365-3.672,4.283-7.038,3.365c-1.836-0.306-3.365-1.224-5.202-1.836c-2.142-0.918-4.283-1.836-6.731-2.142
		c-4.284-0.612-8.262,0-12.546,0.612c-0.612,0-1.53,0-2.143-0.307c-3.06-1.53-5.201-3.978-6.426-7.038
		c-1.836-4.59-4.283-8.874-7.038-12.852c-2.447-3.672-4.59-7.038-7.037-10.71c-3.061-4.284-6.427-8.568-9.792-13.158
		c-3.366-4.59-6.427-9.486-9.792-14.076c-2.755-3.978-4.591-8.262-5.509-12.852c0-0.612,0-0.918,0-1.53
		c0.918-2.142,1.53-4.59,2.754-6.732c1.837-3.365,3.673-6.731,6.12-10.098c4.896-7.038,7.65-14.994,9.486-22.95
		c0.918-4.284,1.53-8.874,2.448-13.158c1.224-7.649,3.366-15.3,6.12-22.644c0.918-2.448,1.836-4.896,3.365-7.344
		c1.836-3.061,3.979-6.427,6.732-8.874c0.306-0.307,0.612-0.918,0.306-1.225c-0.306-0.306-0.918-0.611-1.224-0.306
		c-1.53,1.224-3.061,2.142-4.284,2.754c-6.731,3.366-13.158,7.65-20.502,10.098c-3.366,1.225-6.731,2.755-10.404,3.979
		c-2.447,0.918-4.896,1.53-7.649,2.448s-3.979,3.365-6.12,5.202c0,0,0,0-0.306,0c-3.673,3.06-7.65,6.119-11.322,9.485
		c-2.448,2.143-4.896,4.896-7.65,6.732c-4.284,3.06-8.567,5.813-13.158,8.874c-4.896,3.06-9.485,5.813-14.382,8.874
		c-2.754,1.836-5.813,3.366-8.567,4.896c-3.061,1.53-6.12,3.061-8.874,4.59c-3.366,2.143-6.732,4.591-10.099,7.038
		c-1.529,0.918-2.142,2.754-4.284,2.754c-0.306,0-0.611,0.612-0.611,0.918c-1.225,2.143-2.754,4.284-3.979,6.427
		c-2.142,3.978-4.283,7.956-6.731,11.628c-1.836,2.754-3.061,5.508-4.284,8.262c-0.306,1.224-0.612,2.448-1.224,3.672
		c-2.448,4.59-3.979,9.18-4.284,14.382c0,1.836-0.612,3.672-0.612,5.509c-0.612,4.896-0.612,9.792,2.448,14.382
		c2.754,4.283,6.731,6.731,11.934,6.426c1.53,0,3.366-0.306,4.896-0.306c1.529,0,3.06-0.307,3.978,0.918
		c0.307,0.306,0.918,0.611,1.225,0.306c4.59-2.754,9.18-0.612,12.239,3.06c1.836,2.448,1.53,5.202,1.53,7.65
		c0,0.612,0,0.918-0.306,1.53c-0.307,0.306-0.918,0.306-1.225,0c-0.611-0.612-1.224-1.225-1.836-1.836
		c-2.447-1.836-5.202-1.836-7.956-1.225c-0.918,0.307-1.529,0.612-1.836,1.225c-1.224,2.447-2.447,2.754-5.202,2.142
		c-2.142-0.612-4.283-1.224-6.426-1.836c-0.918-0.306-1.836-0.612-2.754-0.612c-0.612,0-0.918,0.612-1.224,0.918
		c0,0.918,0,2.143-0.918,2.448c-0.612,0-1.225-0.306-1.225-0.306c0-0.307-0.306-0.307-0.306-0.612
		c-1.53-1.836-3.366-3.06-5.508-3.672c-0.918-0.306-1.836-0.306-2.448,0.612c-1.224,2.142-3.06,2.754-5.508,2.754
		c-1.53,0-2.754-0.612-4.284-0.612c-3.366-0.612-4.896-2.448-5.508-5.508c-0.918-4.284-1.836-8.568-2.754-12.546
		c-0.612-2.448-0.918-4.591-1.53-7.038c0-0.918,0-1.836,0.306-2.754c0.918-3.366,2.143-6.12,3.979-8.874
		c5.202-7.345,8.874-15.3,11.322-23.868c1.529-5.508,2.447-11.322,3.672-16.83c0.918-3.979,1.529-8.262,2.447-12.24
		c0.612-2.754,2.755-4.896,5.814-5.202c3.672-0.611,7.344-1.836,10.404-3.672c7.038-3.978,12.239-9.792,16.523-16.523
		c2.754-3.979,5.202-7.956,7.65-11.935c2.448-3.978,5.202-7.649,7.956-11.628c3.672-5.813,8.262-10.71,13.77-14.688
		c1.53-1.225,3.366-2.143,4.896-3.672c5.508-4.591,11.934-7.65,18.666-9.792c0.918-0.307,1.836-0.612,2.142-1.837
		c1.836-5.508,5.202-9.792,8.262-14.688c3.366-5.202,7.345-10.098,11.017-14.994c3.672-4.59,7.344-9.486,11.934-13.158l0.307-0.306
		c0.306-0.306,0-0.612-0.612-0.918c-16.524-8.262-31.519-16.524-49.878-21.42c-17.748-4.896-36.108-7.956-54.162-11.322
		c-51.714-9.18-107.406-26.928-136.782-74.358c-10.404-17.136-14.382-39.474-4.896-56.916c9.486-17.136,30.294-26.01,49.878-25.704
		c26.01,0.612,51.408,14.382,72.828,27.54c5.813,3.366,11.016,7.65,16.523,11.322c4.59,3.366,8.568,7.344,12.546,11.322
		c0.307,0.306,0.307,0.306,0.307,0.612c0.306,0.306,0.306,0.918,0,0.918c0,0-0.612,0-0.918-0.306
		c-0.918-0.612-1.53-1.224-2.448-1.836c-8.262-5.814-17.136-11.016-26.316-15.3c-8.874-3.978-18.054-7.344-27.54-11.016
		c-4.896-1.836-9.792-3.366-14.994-3.978c-6.426-0.918-12.546-1.53-18.972-2.142c-12.852-1.53-26.01,0.918-37.332,7.344
		c-6.732,3.978-12.546,10.404-13.77,18.054c-0.918,4.896,0.306,9.792,2.142,14.382c3.978,10.098,11.628,18.36,20.196,25.092
		c9.792,7.344,21.115,13.464,32.436,18.054c32.437,12.852,66.097,16.524,100.98,14.076c29.376-2.142,58.445-8.262,86.903-15.3
		c7.345-1.836,14.994-3.672,22.645-3.672c5.813,0,10.403,3.366,15.912,4.59c5.508,1.224,10.71,2.142,16.218,3.978
		c12.24,3.979,24.174,8.262,36.107,12.546c23.868,8.874,47.431,18.36,71.91,26.01c3.061,0.918,5.814,0.612,8.568-0.612
		c2.142-0.918,3.978-1.53,6.12-2.448c4.59-1.53,9.485-1.836,14.076-0.612c5.201,1.53,10.71,4.896,15.605,2.142
		c3.979-2.142,6.426-7.038,6.732-11.322c0.306-6.732-2.448-13.158-4.59-19.278c-5.202-16.524-3.673-34.884,3.365-50.49
		c3.366-7.65,8.263-14.994,14.076-20.808c6.12-6.12,11.322-7.038,19.891-6.426c1.836,0,3.672,0.612,5.201,1.224
		c3.061,1.224,5.814,2.754,8.874,3.978c1.53,0.612,3.366,1.53,4.896,2.142c3.978,2.142,7.956,4.284,12.24,6.12
		c5.813,3.06,11.628,6.12,17.748,8.874c4.283,1.836,8.874,3.672,13.464,5.202c3.06,0.918,6.12,2.142,8.874,3.978
		c5.813,3.978,8.567,11.628,3.978,18.36c-1.529,2.448-2.448,3.06-5.202,2.448c-0.306,0-0.611,0-1.224,0s-0.918,0-0.918,0.306
		c0,0.306,0,0.306,0,0.612c0,3.06-1.224,4.896-4.284,5.202c-1.224,0-2.448,0-3.672-0.306c-6.731-1.53-13.464-3.672-20.196-4.284
		c-4.896-0.612-9.792-0.918-14.688-0.612c-2.448,0-4.896,0.306-7.344,0c-1.836,0-3.673-0.612-5.814-0.918
		C516.393,168.916,515.78,169.221,515.475,169.833z"/>
</g>
<g>
</g>
<g>
</g>
<g>
</g>
<g>
</g>
<g>
</g>
<g>
</g>
<g>
</g>
<g>
</g>
<g>
</g>
<g>
</g>
<g>
</g>
<g>
</g>
<g>
</g>
<g>
</g>
<g>
</g>
</svg>
