<?xml version="1.0" encoding="iso-8859-1"?>
<!-- Generator: Adobe Illustrator 18.0.0, SVG Export Plug-In . SVG Version: 6.00 Build 0)  -->
<!DOCTYPE svg PUBLIC "-//W3C//DTD SVG 1.1//EN" "http://www.w3.org/Graphics/SVG/1.1/DTD/svg11.dtd">
<svg version="1.1" id="Capa_1" xmlns="http://www.w3.org/2000/svg" xmlns:xlink="http://www.w3.org/1999/xlink" x="0px" y="0px"
	 viewBox="0 0 398.89 398.89" style="enable-background:new 0 0 398.89 398.89;" xml:space="preserve">
<path d="M385.623,144.01c0,0-10.23-7.097-15.337-11.378c1.13-7.39,0.56-11.657-6.843-14.788
	c-7.378-3.122-13.926,10.238-13.926,10.238c-12.214-1.425-50.043,7.968-62.545,6.263c-12.518-1.713-34.402-0.845-47.486,1.705
	c-23.599,3.978-37.939-9.393-77.457-11.377c-39.518-1.991-59.705,20.752-64.542,36.965c-20.187,57.425-59.99,55.718-66.53,56.022
	c-6.551,0.266-10.521-0.868-10.234-3.717c0.278-2.844,10.525-1.415,11.36-9.914c0-3.395-3.969-7.423-13.067-8.271
	c-9.102-0.864-17.62,5.111-18.773,14.207c-1.982,12.228,8.134,22.774,31.841,24.169c45.265,2.65,69.956-41.507,75.64-53.448
	c5.688-11.949,20.482-8.536,21.042-5.119c1.142,13.074-14.786,37.242-21.042,39.797c-6.253,2.561-0.852,30.142,3.13,47.202
	c3.987,17.064,13.079,18.19,22.744,17.902c9.666-0.272,13.084-1.696,12.515-6.819c-0.59-5.119-7.681-8.524-12.515-9.953
	c-4.832-1.421-3.977-5.107-3.977-5.107s-1.134-8.819-2.001-13.651c-0.852-4.829-0.271-6.54,2.574-7.395
	c24.731-8.809,38.945-21.893,44.343-26.722c5.408-4.831,10.524-3.986,13.082-2.267c38.645,20.453,65.804,3.974,78.882,2.84
	c13.088-1.143,28.552,15.868,43.92,38.333c15.348,22.74,22.457,29.84,38.939,31.55c17.916,1.421,20.179-3.686,19.914-9.378
	c-0.299-9.383-20.478-6.831-25.148-8.25c-7.488-2.558-20.763-42.589-27.854-65.059c-7.125-22.458,28.291-24.084,33.248-23.875
	c5.022,0.215,12.227,2.57,19.059,7.961c6.816,5.397,11.086,6.534,13.635,2.561c7.681,1.123,9.665-1.143,14.225-5.975
	c5.404,0,0.564-10.813-1.985-17.626C391.876,154.809,393.596,149.697,385.623,144.01z"/>
<g>
</g>
<g>
</g>
<g>
</g>
<g>
</g>
<g>
</g>
<g>
</g>
<g>
</g>
<g>
</g>
<g>
</g>
<g>
</g>
<g>
</g>
<g>
</g>
<g>
</g>
<g>
</g>
<g>
</g>
</svg>
