<?xml version="1.0" encoding="iso-8859-1"?>
<!-- Generator: Adobe Illustrator 17.1.0, SVG Export Plug-In . SVG Version: 6.00 Build 0)  -->
<!DOCTYPE svg PUBLIC "-//W3C//DTD SVG 1.1//EN" "http://www.w3.org/Graphics/SVG/1.1/DTD/svg11.dtd">
<svg version="1.1" id="Capa_1" xmlns="http://www.w3.org/2000/svg" xmlns:xlink="http://www.w3.org/1999/xlink" x="0px" y="0px"
	 viewBox="0 0 370.285 370.285" style="enable-background:new 0 0 370.285 370.285;" xml:space="preserve">
<path d="M282.29,251.506c-8.928-18.572-22.71-44.692-37.665-63.655c-16.899-21.43-52.34-39.213-78.117-46.666
	c-24.512-7.088-27.286-20.961-28.777-28.415c-1.512-7.563-1.292-43.143,4.522-84.191c1.534-10.829,0.242-18.703-3.838-23.402
	C135.433,1.742,130.995,0,125.225,0c-10.297,0-21.933,5.46-26.313,7.516c-0.639,0.3-1.089,0.513-1.314,0.599
	c-4.155,1.597-17.242,3.443-22.645,3.443c-0.934,0-1.391-0.057-1.608-0.105c-0.127-0.028-0.24-0.042-0.346-0.042l-0.784,0.026
	l-0.23,0.678c-0.252,0.743,0.383,1.231,0.591,1.391c1.824,1.405,6.294,2.375,10.618,3.314c2.651,0.576,5.156,1.119,6.697,1.688
	c2.451,0.905,20.354,9.981,23.762,15.283c3.393,5.278,2.25,36.668,0.253,49.846c-2.067,13.642-11.899,53.468-16.139,63.872
	c-0.246,0.604-0.509,1.236-0.783,1.896c-4.807,11.559-12.852,30.905,0.036,60.028c13.354,30.172,35.613,44.135,50.442,50.799
	c3.013,42.361,4.903,85.842,1.671,92.309c-2.149,1.213-16.33,3.467-23.215,4.561c-7.124,1.132-8.181,1.328-8.696,1.606
	c-0.648,0.351-0.979,1.024-0.841,1.717c0.288,1.45,0.957,1.604,11.923,2.749c0.875,0.092,1.839,0.192,2.792,0.295
	c-0.845,0.258-1.666,0.5-2.453,0.732c-5.058,1.492-7.597,2.241-7.455,4.424c0.025,0.389,0.266,1.657,2.297,1.657
	c1.631,0,4.873-0.548,8.978-1.365c4.936-0.983,10.53-2.027,13.744-2.027h0.152c1.477,0,3.354,0.07,5.312,0.23
	c-0.355,0.426-0.522,0.911-0.483,1.505c0.025,0.389,0.266,1.657,2.297,1.657c1.631,0,4.873-0.548,8.978-1.365
	c4.936-0.983,10.53-2.027,13.744-2.027h0.152c2.084,0,4.964,0.136,7.749,0.474c2.998,0.363,6.097,0.526,8.559,0.526
	c0.005,0,0.011,0,0.016,0c1.458,0,5.809,0.102,6-3.138c0.054-0.925-0.509-1.394-2.375-3.323c-1.414-1.462-4.724-4.885-4.717-6.146
	c0.084-14.376-0.158-52.518-0.394-83.932c0.529,0.034,1.057,0.068,1.58,0.101c8.52,0.539,16.567,1.047,19.819,3.272
	c1.565,1.071,4.347,2.735,8.197,5.037c8.147,4.873,20.46,12.236,33.186,21.174c0.689,0.484,2.506,4.293,3.833,7.075
	c3.459,7.254,5.169,10.434,7.017,10.434c0.312,0,0.613-0.094,0.874-0.271c1.401-0.953,2.817-1.416,4.332-1.416
	c4.604,0,9.519,4.345,14.144,9.041c0.294,0.299,0.617,0.451,0.958,0.451c0.375,0.04,0.671-0.161,0.886-0.44
	c0.719-0.938,0.178-3.551-3.86-18.64c-2.078-7.764-5.094-19.034-5.378-22.75c4.823,3.766,15.431,7.387,19.243,7.387
	c1.229,0,1.999-0.367,2.289-1.091C299.109,288.728,289.517,266.539,282.29,251.506z M161.588,355.285
	c0.09-15.284-0.19-57.429-0.438-89.793c0.271,0.105,0.488,0.196,0.625,0.268c4.485,2.367,10.267,3.652,16.371,4.445
	c2.591,38.983,3.963,76.378,0.984,82.338c-1.633,0.922-10.209,2.443-17.256,3.602C161.695,355.806,161.587,355.51,161.588,355.285z"
	/>
<g>
</g>
<g>
</g>
<g>
</g>
<g>
</g>
<g>
</g>
<g>
</g>
<g>
</g>
<g>
</g>
<g>
</g>
<g>
</g>
<g>
</g>
<g>
</g>
<g>
</g>
<g>
</g>
<g>
</g>
</svg>
