<?xml version="1.0" encoding="iso-8859-1"?>
<!-- Generator: Adobe Illustrator 17.1.0, SVG Export Plug-In . SVG Version: 6.00 Build 0)  -->
<!DOCTYPE svg PUBLIC "-//W3C//DTD SVG 1.1//EN" "http://www.w3.org/Graphics/SVG/1.1/DTD/svg11.dtd">
<svg version="1.1" id="Capa_1" xmlns="http://www.w3.org/2000/svg" xmlns:xlink="http://www.w3.org/1999/xlink" x="0px" y="0px"
	 viewBox="0 0 392.178 392.178" style="enable-background:new 0 0 392.178 392.178;" xml:space="preserve">
<path d="M368.711,132.397c16.521-7.104,24.211-14.211,23.41-16.61c-0.128-0.385-0.509-0.797-1.193-0.797
	c-1.132,0-3.749,1.284-9.897,4.437c-3.42,1.754-7.296,3.741-10.623,5.228c-4.958,2.216-10.568,4.046-14.421,5.062
	c2.953-1.504,7.429-3.847,13.391-7.524c11.146-6.876,18.054-14.647,18.099-17.191c0.009-0.489-0.198-0.912-0.569-1.159
	c-0.218-0.146-0.479-0.223-0.755-0.223c-0.976,0-2.101,0.915-4.775,3.167c-2.484,2.092-5.886,4.957-9.816,7.263
	c-9.077,5.327-15,8.331-18.823,10.021c3.09-1.83,7.062-4.363,11.257-7.659c13.139-10.323,17.724-18.396,17.528-21.059
	c-0.06-0.803-0.492-1.166-0.745-1.31c-0.216-0.123-0.454-0.186-0.709-0.186c-1.12,0-2.221,1.141-4.825,3.952
	c-2.08,2.246-4.668,5.041-7.856,7.636c-13.249,10.788-21.098,15.532-25.045,17.352c0.642-0.511,1.351-1.064,2.051-1.611
	c3.882-3.032,9.197-7.185,13.701-11.797c8.202-8.401,15.615-18.848,14.688-20.699c-0.334-0.669-0.897-0.742-1.124-0.742
	c-1.012,0-1.329,0.385-9.459,10.246l-0.547,0.663c-6.225,7.549-20.928,18.618-28.153,23.481c2.095-2.351,4.942-5.435,7.445-8.146
	c12.253-13.272,13.55-14.983,13.4-16.027l-0.106-0.534l-0.407-0.245c-0.232-0.14-0.496-0.21-0.781-0.21
	c-1.35,0-3.181,1.563-9.99,7.378c-3.444,2.941-8.163,6.97-14.488,12.206c-10.008,8.283-15.978,13.019-19.529,15.725
	c4.771-6.354,7.948-12.484,7.141-14.27c-0.219-0.483-0.663-0.771-1.189-0.771c-0.511,0-1.706,0-5.771,5.824
	c-8.617,12.344-77.225,52.277-89.243,56.048c-3.666,1.15-6.438,1.709-8.473,1.709c-3.238,0-3.991-1.344-5.13-3.377l-0.278-0.493
	c-2.144-3.752-5.946-4.149-10.04-4.246c-2.301,0.073-7.69,0.246-9.976,4.246l-0.285,0.506c-1.134,2.025-1.882,3.364-5.105,3.364
	c-2.03,0-4.8-0.559-8.467-1.709c-12.021-3.771-80.638-43.705-89.255-56.048c-4.065-5.824-5.261-5.824-5.772-5.824
	c-0.527,0-0.972,0.289-1.191,0.772c-0.808,1.785,2.363,7.907,7.143,14.276c-3.55-2.706-9.523-7.442-19.539-15.732
	c-6.323-5.233-11.041-9.261-14.485-12.202c-6.813-5.818-8.645-7.381-9.995-7.381c-0.286,0-0.549,0.071-0.782,0.21l-0.446,0.308
	l-0.068,0.471c-0.149,1.044,1.147,2.754,13.398,16.025c2.504,2.713,5.352,5.798,7.448,8.149
	c-7.226-4.863-21.93-15.934-28.154-23.482l-0.562-0.682c-8.116-9.843-8.433-10.228-9.444-10.228c-0.227,0-0.79,0.072-1.125,0.741
	c-0.926,1.853,6.487,12.299,14.689,20.699c4.503,4.612,9.818,8.764,13.7,11.796c0.707,0.552,1.421,1.11,2.066,1.624
	c-3.929-1.812-11.782-6.553-25.061-17.364c-3.188-2.595-5.776-5.39-7.856-7.636c-2.604-2.812-3.705-3.952-4.824-3.952
	c-0.255,0-0.494,0.063-0.709,0.186c-0.253,0.145-0.686,0.507-0.745,1.31c-0.196,2.664,4.39,10.736,17.528,21.059
	c4.195,3.296,8.167,5.829,11.256,7.659c-3.823-1.691-9.745-4.694-18.822-10.021c-3.93-2.306-7.332-5.171-9.815-7.262
	c-2.676-2.254-3.801-3.168-4.776-3.168c-0.276,0-0.537,0.077-0.755,0.223c-0.371,0.247-0.578,0.669-0.57,1.159
	c0.045,2.544,6.953,10.315,18.1,17.191c5.962,3.678,10.438,6.02,13.39,7.524c-3.852-1.016-9.462-2.846-14.421-5.062
	c-3.326-1.486-7.201-3.473-10.62-5.226c-6.15-3.154-8.768-4.438-9.901-4.438c-0.685,0-1.065,0.412-1.194,0.797
	c-0.8,2.399,6.89,9.506,23.411,16.61l2.545,1.093c2.727,1.169,5.061,2.171,6.746,2.937c-3.407-0.433-8.678-1.474-12.828-3.044
	c-2.035-0.77-4-1.58-5.734-2.295c-3.825-1.578-5.875-2.4-7.026-2.4c-0.798,0-1.163,0.409-1.309,0.652
	c-0.184,0.306-0.218,0.679-0.097,1.048c0.672,2.046,9.179,7.654,19.14,11.818c1.662,0.694,3.115,1.207,4.282,1.619
	c0.124,0.043,0.25,0.088,0.375,0.133c-0.4,0.021-0.869,0.035-1.412,0.035c-2.347,0-5.154-0.246-7.509-0.658
	c-0.14-0.024-0.269-0.035-0.385-0.035c-0.817,0-1.43,0.545-1.49,1.327c-0.148,1.944,3.303,5.333,9.051,6.217
	c2.526,0.389,4.379,0.868,5.616,1.287c-1.896,0.335-4.097,1.083-4.312,2.75c-0.284,2.21,3.26,3.392,4.424,3.78
	c1.687,0.562,3.159,0.957,4.458,1.305c4.22,1.131,4.5,1.44,4.178,2.672c-1.646,6.291,2.292,7.822,4.896,8.834l0.521,0.205
	c0.632,0.252,0.746,0.792,0.891,2.158c0.166,1.563,0.393,3.703,2.724,5.102c1.808,1.085,3.158,1.47,4.144,1.751
	c1.031,0.294,1.549,0.442,2.1,1.13c0.388,0.485,0.536,1.334,0.693,2.233c0.305,1.749,0.685,3.925,3.122,4.862
	c1.066,0.41,1.372,1.291,1.821,2.813c0.429,1.454,0.962,3.262,2.806,4.396c0.365,0.225,1.781,1.214,3.741,2.584
	c14.577,10.186,58.935,41.182,72.54,41.182c0.843,0,1.585-0.116,2.208-0.345c7.502-2.756,9.176-6.025,10.076-7.781
	c0.167-0.325,0.395-0.771,0.559-0.843c0.069,0,0.196,0.013,0.414,0.075c0.802,0.229,2.107,0.429,3.76,0.682
	c4.819,0.737,13.788,2.11,14.09,5.586c0.122,1.402,0.859,3.115,1.712,5.098c0.963,2.238,2.045,4.751,2.395,7.207
	c-7.416,4.452-23.705,14.183-27.812,16.237c-3.574,1.787-4.661,4.896-4.157,7.028c0.469,1.988,2.259,3.065,4.44,2.595
	c-0.931,1.497-2.62,4.385,0.084,6.075c0.804,0.502,1.673,0.757,2.583,0.757c1.302,0,2.468-0.515,3.406-0.93
	c0.563-0.248,1.144-0.505,1.467-0.505c0.07,0,0.143,0,0.282,0.277c0.396,0.792,0.254,1.867,0.09,3.111
	c-0.284,2.155-0.637,4.836,1.946,7.096c1.004,0.878,2.111,1.324,3.292,1.324c1.281,0,2.438-0.522,3.369-0.941
	c0.591-0.266,1.202-0.542,1.569-0.542c0.121,0,0.187,0.028,0.273,0.114c0.301,0.301,0.237,0.781,0.02,1.805
	c-0.347,1.635-0.872,4.106,2.439,6.007c2.119,1.216,3.971,1.808,5.664,1.808c1.742,0,2.987-0.624,3.989-1.125
	c0.526-0.263,0.98-0.491,1.394-0.574c0.471-0.088,0.753,0.196,1.471,1.103c0.782,0.988,1.854,2.34,3.915,2.919
	c2.314,0.649,5.584,1.022,8.973,1.022c3.363,0,6.57-0.362,9.028-1.019c2.086-0.558,3.16-1.927,3.945-2.926
	c0.712-0.908,0.998-1.194,1.451-1.103c0.421,0.084,0.98,0.325,1.573,0.58c1.217,0.523,2.731,1.175,4.509,1.175
	c1.778,0,3.443-0.638,5.09-1.95c2.853-2.272,2.463-4.526,2.205-6.018c-0.173-0.996-0.203-1.374,0.129-1.707
	c0.086-0.086,0.152-0.113,0.272-0.113c0.367,0,0.979,0.275,1.569,0.542c0.931,0.419,2.088,0.941,3.369,0.941
	c1.181,0,2.289-0.445,3.292-1.323c2.583-2.26,2.229-4.941,1.946-7.095c-0.164-1.245-0.306-2.32,0.091-3.111
	c0.139-0.277,0.211-0.277,0.281-0.277c0.323,0,0.904,0.257,1.467,0.505c0.938,0.414,2.104,0.929,3.406,0.929
	c0.91,0,1.779-0.254,2.583-0.757c2.703-1.689,1.015-4.579,0.083-6.076c2.177,0.467,3.972-0.605,4.441-2.595
	c0.503-2.131-0.583-5.239-4.157-7.027c-3.823-1.911-18.05-10.382-26.545-15.477c0.113-2.903,0.997-6.008,1.716-8.533
	c0.512-1.796,0.953-3.348,1.058-4.546c0.302-3.474,9.268-4.843,14.084-5.578c1.655-0.253,2.963-0.453,3.766-0.682
	c0.216-0.062,0.324-0.083,0.466-0.073c0.111,0.07,0.34,0.516,0.507,0.842c0.898,1.757,2.572,5.027,10.075,7.783
	c0.623,0.229,1.365,0.345,2.208,0.345c13.605,0,57.97-31,72.549-41.187c1.955-1.366,3.368-2.354,3.732-2.578
	c1.843-1.134,2.377-2.943,2.806-4.396c0.449-1.522,0.755-2.403,1.821-2.813c2.438-0.937,2.817-3.114,3.122-4.862
	c0.157-0.899,0.305-1.748,0.692-2.232c0.551-0.689,1.068-0.836,2.1-1.13c0.986-0.281,2.336-0.666,4.145-1.751
	c2.331-1.399,2.558-3.539,2.724-5.102c0.145-1.366,0.26-1.906,0.891-2.159l0.521-0.204c2.605-1.013,6.542-2.543,4.897-8.835
	c-0.322-1.232-0.043-1.542,4.177-2.672c1.299-0.348,2.771-0.742,4.458-1.305c1.164-0.388,4.709-1.57,4.425-3.78
	c-0.215-1.668-2.416-2.416-4.312-2.75c1.236-0.419,3.089-0.898,5.615-1.287c5.747-0.884,9.199-4.272,9.05-6.217
	c-0.06-0.781-0.672-1.327-1.489-1.327c-0.117,0-0.245,0.01-0.386,0.035c-2.354,0.412-5.161,0.658-7.508,0.658
	c-0.543,0-1.012-0.013-1.412-0.035c0.126-0.045,0.252-0.089,0.376-0.133c1.167-0.412,2.619-0.924,4.281-1.619
	c9.961-4.164,18.469-9.772,19.141-11.818c0.121-0.37,0.087-0.742-0.097-1.048c-0.146-0.244-0.511-0.652-1.309-0.652
	c-1.151,0-3.201,0.823-7.026,2.4c-1.733,0.715-3.698,1.525-5.733,2.295c-4.149,1.57-9.421,2.611-12.828,3.044
	c1.684-0.765,4.016-1.766,6.739-2.934L368.711,132.397z"/>
<g>
</g>
<g>
</g>
<g>
</g>
<g>
</g>
<g>
</g>
<g>
</g>
<g>
</g>
<g>
</g>
<g>
</g>
<g>
</g>
<g>
</g>
<g>
</g>
<g>
</g>
<g>
</g>
<g>
</g>
</svg>
