<?xml version="1.0" encoding="iso-8859-1"?>
<!-- Generator: Adobe Illustrator 16.0.0, SVG Export Plug-In . SVG Version: 6.00 Build 0)  -->
<!DOCTYPE svg PUBLIC "-//W3C//DTD SVG 1.1//EN" "http://www.w3.org/Graphics/SVG/1.1/DTD/svg11.dtd">
<svg version="1.1" id="Capa_1" xmlns="http://www.w3.org/2000/svg" xmlns:xlink="http://www.w3.org/1999/xlink" x="0px" y="0px"
	 width="484.729px" height="484.729px" viewBox="0 0 484.729 484.729" style="enable-background:new 0 0 484.729 484.729;"
	 xml:space="preserve">
<g>
	<polygon points="456.191,65.412 434.863,34.308 416.946,18.781 416.78,6.084 408.284,0 397.622,22.683 381.508,12.234 
		375.93,17.904 382.198,30.472 289.674,118.685 143.961,189.677 100.249,199.351 89.965,204.621 62.815,239.715 51.54,277.703 
		48.892,298.703 54.739,311.239 55.357,306.66 65.771,268.777 55.833,345.279 44.56,379.762 23.744,484.729 42.644,484.729 
		36.93,475.231 46.857,425.08 84.341,350.227 77.447,378.366 106.734,484.729 126.651,484.729 118.322,474.128 104.35,432.453 
		98.447,369.864 119.913,320.42 132.771,307.875 192.338,307.963 202.875,318.467 183.612,461.863 184.381,484.729 203.336,484.729 
		196.346,474.229 198.953,419.631 228.032,319.686 231.602,319.711 295.422,484.729 314.583,484.729 304.849,474.787 
		287.499,427.863 260.297,309.469 267.508,248.73 263.977,231.785 267.297,219.863 391.109,79.29 409.97,75.606 457.601,92.938 
		460.984,79.51 	"/>
</g>
<g>
</g>
<g>
</g>
<g>
</g>
<g>
</g>
<g>
</g>
<g>
</g>
<g>
</g>
<g>
</g>
<g>
</g>
<g>
</g>
<g>
</g>
<g>
</g>
<g>
</g>
<g>
</g>
<g>
</g>
</svg>
