<?xml version="1.0" encoding="iso-8859-1"?>
<!-- Generator: Adobe Illustrator 16.0.0, SVG Export Plug-In . SVG Version: 6.00 Build 0)  -->
<!DOCTYPE svg PUBLIC "-//W3C//DTD SVG 1.1//EN" "http://www.w3.org/Graphics/SVG/1.1/DTD/svg11.dtd">
<svg version="1.1" id="Capa_1" xmlns="http://www.w3.org/2000/svg" xmlns:xlink="http://www.w3.org/1999/xlink" x="0px" y="0px"
	 width="572.309px" height="572.31px" viewBox="0 0 572.309 572.31" style="enable-background:new 0 0 572.309 572.31;"
	 xml:space="preserve">
<g>
	<path d="M477.163,267.709c-13.872-11.525-29.951-22.097-40.551-36.924c-13.443-18.796,0.151-26.602,0.151-45.667
		c-23.358,0-26.614,36.948-20.013,53.016c9.273,22.419,32.342,34.32,48.303,51.317c33.484,35.668,13.142,108.81-43.044,101.445
		c-21.934-2.876-41.555-25.79-57.997-38.878c-16.65-13.285-33.986-24.04-52.934-33.64c-18.719-9.482-38.703-13.885-57.781-22.22
		c-23.705-10.311-25.255-34.778-20.241-57.332c11.514-51.779,57.797-95.774,46.79-151.943c-9.49-48.397-57.165-83.677-105.06-86.786
		c-18.095-1.162-25.427,8.152-36.169,21.429c-14.802,18.229,15.63,21.926,28.385,19.221c22.746-4.822,38.066-1.559,50.849,20.09
		c14.382,24.337,8.458,53.424-7.018,75.962c-21.102,34.011-43.84,67.111-65.729,100.621c-9.106,13.937-15.157,30.191-18.862,46.36
		c-2.901,12.701-4.627,26.096-3.864,39.147c0.628,10.633,4.411,20.71,0.061,31.008c-8.499,20.233,22.559,32.905,5.198,51.331
		c-15.443,16.389-40.119,16.683-46.626,40.967c-2.26,8.43-4.418,19.262-13.562,22.979c-1.832,0.743-3.423,1.938-4.631,3.338
		c-9.2-1.163-19.47,5.015-13.537,6.287c4.998,1.073,11.15,3.183,14.435,4.361c0.673,0.343,1.428,0.649,2.338,0.861
		c3.043,0.746,4.937,2.726,6.625,4.937c-0.91,2.827-1.591,6.446-0.709,9.73c1.073,3.982,5.177,1.384,9.058-1.836
		c0.522,0.18,0.995,0.412,1.591,0.515c6.806,1.154,8.972,2.023,13.129,6.271c-0.539,4.798-0.273,9.861,2.489,12.391
		c6.12,5.61,3.276,0.013,15.153-17.042l0,0c8.56-10.024,16.858-26.173,19.939-29.727c10.286-11.849,36.646-30.294,46.149-8.927
		c5.716,12.982,4.843,24.985,5.41,38.816c0.897,19.837-6.508,25.19-16.414,37.206c-5.32,5.259-13.133,14.174-12.289,20.514
		c1.012,7.605,2.244,4.293,14.166-2.9c1.966,0.816,4.186,1.506,6.52,2.089c-1.306,4.415-1.849,8.748-0.408,11.701
		c3.574,7.353,3.497,2.856,14.447-9.388c3.297,0.326,6.181,0.478,8.172,0.51c-4.312,12.093-6.887,13.872,0.526,13.297
		c5.993-0.465,12.631-8.895,16.765-15.137c12.24-2.342,25.892-7.136,25.892-15.712c0-6.381-2.774-12.367-2.774-18.748
		c0-9.225,2.566-18.033,1.95-27.323c-0.84-12.726-4.345-25.08-4.063-37.903c18.788,5.834,38.111,9.665,57.438,13.203
		c-5.022,8.563-0.302,24.524-8.854,30.901c-4.574,4.957-15.655,5.847-21.179,11.648c-10.637,0.176-20.645,6.761-13.819,8.222
		c3.872,0.828,8.315,2.158,12.15,3.41c2.285,2.624,6.691,3.647,9.988,4.248c2.526,0.452,5.227,3.684,7.499,5.858
		c-1.065,3.509-1.791,7.858-0.726,11.819c2.077,7.699,13.036-3.88,18.405-8.266c2.64,2.228,3.521,6.435,5.581,9.666
		c1.008,1.582,3.509,2.357,6.594,2.685c-1.013,6.707-1.069,14.39,2.88,18.009c7.434,6.813,4.524,0.616,17.349-18.805
		c9.29-0.922,19.453-14.631,22.424-23.076c1.812-5.166,2.814-12.909,0.525-18.025c-2.827-6.312-8.976-12.6-3.369-18.948
		c9.886-11.154,16.238-13.052,30.18-10.963c73.076,11.326,140.434-50.045,144.211-122.017
		C526.654,318.868,505.193,290.989,477.163,267.709z"/>
</g>
<g>
</g>
<g>
</g>
<g>
</g>
<g>
</g>
<g>
</g>
<g>
</g>
<g>
</g>
<g>
</g>
<g>
</g>
<g>
</g>
<g>
</g>
<g>
</g>
<g>
</g>
<g>
</g>
<g>
</g>
</svg>
