<?xml version="1.0" standalone="no"?>
<!DOCTYPE svg PUBLIC "-//W3C//DTD SVG 20010904//EN"
 "http://www.w3.org/TR/2001/REC-SVG-20010904/DTD/svg10.dtd">
<svg version="1.0" xmlns="http://www.w3.org/2000/svg"
 width="200.000000pt" height="200.000000pt" viewBox="0 0 200.000000 200.000000"
 preserveAspectRatio="xMidYMid meet">
<metadata>
Created by potrace 1.15, written by Peter Selinger 2001-2017
</metadata>
<g transform="translate(0.000000,200.000000) scale(0.100000,-0.100000)"
fill="#000000" stroke="none">
<path d="M860 1877 c3 -3 39 -13 80 -21 120 -25 231 -86 320 -175 82 -83 126
-156 159 -265 12 -37 21 -70 21 -73 0 -3 -17 17 -39 44 -84 106 -206 191 -346
240 -74 26 -91 28 -235 28 -144 0 -161 -2 -235 -28 -208 -73 -365 -217 -451
-415 -48 -109 -45 -149 4 -58 45 86 145 188 232 239 95 55 178 78 300 84 115
6 119 0 30 -37 -164 -67 -321 -223 -391 -388 -34 -78 -59 -201 -59 -290 0
-200 69 -378 203 -519 49 -52 137 -123 152 -123 4 0 -18 28 -49 61 -65 72
-127 188 -150 280 -30 124 -17 284 33 393 l19 41 1 -58 c2 -140 73 -325 170
-443 58 -71 159 -150 248 -194 198 -98 463 -96 659 3 73 37 159 95 152 103 -3
2 -38 -11 -79 -30 -92 -42 -157 -56 -262 -56 -103 0 -179 19 -282 70 -74 37
-186 121 -140 105 113 -39 309 -44 430 -10 256 70 469 290 530 546 22 95 20
268 -5 365 -25 97 -45 123 -33 44 20 -137 -2 -274 -65 -395 -38 -75 -167 -213
-232 -249 l-34 -20 23 35 c98 147 145 346 121 516 -50 368 -334 631 -700 650
-58 3 -103 3 -100 0z m213 -761 c108 -39 148 -159 84 -255 -34 -51 -85 -74
-152 -69 -182 15 -212 262 -38 323 47 17 59 17 106 1z"/>
</g>
</svg>
