<?xml version="1.0" standalone="no"?>
<!DOCTYPE svg PUBLIC "-//W3C//DTD SVG 20010904//EN"
 "http://www.w3.org/TR/2001/REC-SVG-20010904/DTD/svg10.dtd">
<svg version="1.0" xmlns="http://www.w3.org/2000/svg"
 width="200.000000pt" height="200.000000pt" viewBox="0 0 200.000000 200.000000"
 preserveAspectRatio="xMidYMid meet">
<metadata>
Created by potrace 1.15, written by Peter Selinger 2001-2017
</metadata>
<g transform="translate(0.000000,200.000000) scale(0.100000,-0.100000)"
fill="#000000" stroke="none">
<path d="M92 1281 c-50 -93 -92 -177 -92 -188 0 -14 33 -37 125 -87 69 -37
132 -66 141 -64 20 4 208 343 201 362 -7 16 -242 146 -265 146 -12 0 -46 -52
-110 -169z"/>
<path d="M1653 1382 c-72 -40 -123 -73 -123 -82 0 -27 186 -355 203 -358 10
-2 73 27 142 64 93 51 125 73 125 88 0 10 -41 95 -92 187 -74 137 -95 169
-112 168 -12 0 -76 -30 -143 -67z"/>
<path d="M995 1328 c-70 -24 -113 -47 -191 -104 -56 -41 -104 -80 -108 -89 -3
-8 -1 -26 4 -39 19 -52 80 -48 225 14 64 28 122 47 128 43 7 -4 107 -83 224
-175 116 -92 214 -168 218 -168 17 0 175 124 175 137 0 16 -144 284 -169 314
-16 19 -17 19 -66 0 l-50 -19 -124 59 c-68 32 -136 59 -150 58 -14 0 -66 -14
-116 -31z"/>
<path d="M721 1275 l-104 -34 -51 19 c-40 16 -53 17 -62 7 -20 -21 -174 -303
-174 -319 0 -14 155 -108 178 -108 7 0 9 -11 5 -30 -7 -38 19 -70 58 -70 55 0
82 92 37 124 -12 9 -17 16 -11 16 6 0 20 -11 31 -24 15 -20 22 -22 33 -13 11
10 11 9 0 -5 -7 -9 -19 -38 -27 -64 -19 -63 -2 -94 52 -94 31 0 37 4 51 38 9
20 17 53 17 74 1 26 4 34 13 27 7 -7 14 -6 18 1 3 5 12 10 18 10 7 0 4 -5 -5
-10 -21 -13 -58 -110 -58 -153 0 -18 5 -38 12 -45 14 -14 57 -16 75 -4 18 11
63 150 56 169 -5 14 -2 13 19 -3 23 -17 24 -20 8 -26 -19 -7 -60 -114 -60
-158 0 -14 5 -31 12 -38 15 -15 70 -16 85 -1 8 8 17 7 34 -5 13 -9 31 -16 41
-16 24 0 58 35 58 59 0 24 -60 83 -77 76 -15 -5 -15 1 -3 30 6 14 9 15 9 5 1
-15 84 -85 129 -109 43 -23 90 15 78 63 -3 13 -58 64 -131 122 -69 54 -125
102 -125 106 0 4 66 -44 147 -108 82 -64 158 -121 170 -127 33 -15 73 14 73
53 0 27 -17 44 -152 151 -84 66 -155 125 -157 131 -2 6 27 -14 65 -44 324
-258 311 -249 349 -224 34 23 33 64 -2 97 -69 63 -403 319 -416 319 -8 0 -62
-20 -119 -44 -56 -24 -115 -47 -129 -51 -32 -8 -83 16 -100 46 -20 38 -2 62
91 128 133 94 112 113 -59 56z"/>
</g>
</svg>
