<?xml version="1.0" standalone="no"?>
<!DOCTYPE svg PUBLIC "-//W3C//DTD SVG 20010904//EN"
 "http://www.w3.org/TR/2001/REC-SVG-20010904/DTD/svg10.dtd">
<svg version="1.0" xmlns="http://www.w3.org/2000/svg"
 width="132.000000pt" height="132.000000pt" viewBox="0 0 132.000000 132.000000"
 preserveAspectRatio="xMidYMid meet">
<metadata>
Created by potrace 1.15, written by Peter Selinger 2001-2017
</metadata>
<g transform="translate(0.000000,132.000000) scale(0.100000,-0.100000)"
fill="#000000" stroke="none">
<path d="M560 1284 c-229 -45 -408 -204 -486 -434 -26 -77 -26 -263 0 -340 55
-161 162 -294 292 -362 74 -38 142 -63 150 -55 3 3 -6 27 -20 54 -20 40 -37
57 -91 89 -76 44 -157 127 -197 200 -77 143 -77 344 0 488 40 76 145 177 222
214 64 31 175 60 186 49 3 -3 -39 -106 -94 -229 -55 -123 -99 -224 -98 -226 2
-1 50 19 109 45 l105 47 104 167 103 167 32 -13 c86 -36 185 -129 235 -222 77
-141 77 -343 0 -487 -39 -73 -145 -177 -217 -212 -80 -39 -265 -145 -265 -152
0 -11 159 8 213 27 198 69 334 207 403 411 26 77 26 263 0 340 -69 204 -203
341 -403 411 -57 20 -226 34 -283 23z"/>
<path d="M645 762 l-260 -118 -32 -64 c-17 -36 -32 -68 -32 -71 -1 -4 74 17
166 47 92 29 168 52 170 51 2 -3 -78 -279 -83 -286 -2 -2 -33 4 -70 13 -37 9
-68 15 -70 14 -4 -4 119 -225 133 -239 8 -8 45 7 132 56 67 37 123 71 126 74
2 4 -28 15 -66 25 -38 10 -69 21 -69 26 0 4 51 139 114 299 63 160 111 291
107 291 -3 0 -123 -53 -266 -118z"/>
</g>
</svg>
