<?xml version="1.0" encoding="iso-8859-1"?>
<!-- Generator: Adobe Illustrator 18.1.1, SVG Export Plug-In . SVG Version: 6.00 Build 0)  -->
<svg version="1.1" id="Capa_1" xmlns="http://www.w3.org/2000/svg" xmlns:xlink="http://www.w3.org/1999/xlink" x="0px" y="0px"
	 viewBox="0 0 62.695 62.695" style="enable-background:new 0 0 62.695 62.695;" xml:space="preserve">
<g>
	<g>
		<path d="M34.614,51.257c0.006,0.004-2.687,7.39,2.632,11.438c0,0,3.67-3.767,1.824-8.265
			c4.825,0.578,7.478-3.962,7.478-3.962C41.227,46.422,34.614,51.257,34.614,51.257z"/>
		<path d="M48.172,9.504c-0.332,0.021-0.813,0.072-1.376,0.199c-1.131,0.239-2.608,0.72-4.022,1.368
			c-1.041,0.478-2.057,1.014-2.916,1.591c-0.022-0.031-0.049-0.06-0.07-0.09c-0.107-0.177-0.194-0.318-0.223-0.356
			c-1.505-2.014-3.673-2.966-5.919-3.063c0.022-1.036-0.075-2.18-0.235-3.314c-0.218-1.54-0.611-3.044-1.021-4.125
			c-0.197-0.542-0.413-0.975-0.576-1.266C31.642,0.163,31.543,0,31.543,0s0.063,0.178,0.171,0.49
			c0.096,0.315,0.215,0.768,0.293,1.324c0.17,1.107,0.24,2.604,0.139,4.081c-0.081,1.25-0.264,2.482-0.521,3.404
			c-3.117,0.554-6.052,2.635-7.225,5.735c-0.698,1.847-1.383,3.701-1.938,5.596c-0.269,0.918-2.756,1.625-3.547,1.732
			c-1.87,0.251-3.105-0.566-4.528-1.603c-0.245-0.214-0.385-0.334-0.385-0.334s0.405,5.81,7.332,6.192
			c-0.091,1.208-0.11,2.422-0.063,3.593c0.328,8.093,4.704,16.553,11.803,20.733c0.007,0.004,0.016,0.006,0.025,0.011
			c-0.053-0.075-0.108-0.151-0.158-0.219c-0.307-0.51-5.427-5.544-5.524-17.754c-0.078-9.791,5.782-15.584,5.782-15.584
			s-5.091,6.907-4.229,15.639c0.822,8.32,3.726,13.652,4.228,14.458c-1.092-2.345-1.815-4.813-1.848-7.592
			c-0.029-2.481,0.481-4.607,1.351-6.54c2.057,1.442,5.376,2.131,7.673,0.84c-0.456,0.255-3.014-1.46-3.419-1.791
			c-0.988-0.808-1.699-1.968-1.677-3.259c1.085-1.425,2.411-2.729,3.613-4.222c2.961-3.674,3.356-6.445,1.954-10.509
			c0.637-0.708,1.563-1.517,2.561-2.252c1.188-0.882,2.486-1.631,3.511-2.085c0.511-0.235,0.957-0.378,1.273-0.468
			c0.32-0.077,0.504-0.121,0.504-0.121S48.505,9.496,48.172,9.504z"/>
	</g>
</g>
<g>
</g>
<g>
</g>
<g>
</g>
<g>
</g>
<g>
</g>
<g>
</g>
<g>
</g>
<g>
</g>
<g>
</g>
<g>
</g>
<g>
</g>
<g>
</g>
<g>
</g>
<g>
</g>
<g>
</g>
</svg>
