<?xml version="1.0" encoding="iso-8859-1"?>
<!-- Generator: Adobe Illustrator 18.0.0, SVG Export Plug-In . SVG Version: 6.00 Build 0)  -->
<!DOCTYPE svg PUBLIC "-//W3C//DTD SVG 1.1//EN" "http://www.w3.org/Graphics/SVG/1.1/DTD/svg11.dtd">
<svg version="1.1" id="Capa_1" xmlns="http://www.w3.org/2000/svg" xmlns:xlink="http://www.w3.org/1999/xlink" x="0px" y="0px"
	 viewBox="0 0 249.072 249.072" style="enable-background:new 0 0 249.072 249.072;" xml:space="preserve">
<path d="M243.153,65.825c-9.978-5.69-6.233-10.809-10.392-13.727c-4.158-2.904-6.514-3.043-6.514-3.043s1.878-8.875-8.139-8.73
	c0,0-13.26-23.551-39.111-0.809c0,0,3.305-1.152,5.614,0c2.309,1.164-18.997,4.469-27.919,20.652c5.95-2.637,6.613-0.76,6.613,2.149
	c0,10.068-11.775,23.676-34.387,24.969c-9.999,0.584-16.919-4.859-40.331-4.859c-23.419,0-38.585,19.725-45.903,48.662
	c-7.322,28.936-10.979,32.932-18.297,32.932c-7.316,0-14.301-9.311-13.969-18.625c0.331-9.316,1.917-18.195,6.766-21.523
	c4.852-3.326,0.278-12.041-7.342-7.611c-7.621,4.436-9.974,16.469-9.838,29.361c0.139,12.877,5.543,30.34,23.691,30.34
	c18.151,0,25.493-18.846,25.493-18.846s-1.803,20.645,4.295,51.68c-0.557,4.148-2.215,10.67,9.145,10.531
	c11.358-0.141,14.413-0.695,14.131-7.063c-0.274-6.369-3.879-7.07-6.788-7.07c-2.907,0-7.343,0.83-6.929-4.855
	c0.42-5.67,5.047-43.08,33.724-58.592c14.413,5.393,23.578,13.857,52.392,5.539c1.53-0.283,4.576,8.438,4.576,19.25
	c0,10.809,11.967,23.287,14.323,35.746c0.833,5.268-5.403,17.045,5.405,17.045c10.808,0,16.901,1.52,16.629-5.82
	c-0.274-7.342-2.221-9.293-6.65-9.43c-4.436-0.133-8.733-2.344-7.76-11.766c0.972-9.43-1.803-33.381,5.123-42.811
	c1.252-1.664,20.924,0.41,32.146-18.98c0.692,5.688-1.523,13.16-1.523,13.16s21.748-17.316,14.542-42.392
	c-0.968-2.074,1.941-2.213,3.465-0.279c0-6.373-5.261-14.408-5.261-14.408s-0.004-3.742,3.737-0.693
	c3.743,3.059,16.073,10.531,17.736-8.451C247.996,77.038,253.128,71.495,243.153,65.825z"/>
<g>
</g>
<g>
</g>
<g>
</g>
<g>
</g>
<g>
</g>
<g>
</g>
<g>
</g>
<g>
</g>
<g>
</g>
<g>
</g>
<g>
</g>
<g>
</g>
<g>
</g>
<g>
</g>
<g>
</g>
</svg>
