<?xml version="1.0" encoding="iso-8859-1"?>
<!-- Generator: Adobe Illustrator 16.0.0, SVG Export Plug-In . SVG Version: 6.00 Build 0)  -->
<!DOCTYPE svg PUBLIC "-//W3C//DTD SVG 1.1//EN" "http://www.w3.org/Graphics/SVG/1.1/DTD/svg11.dtd">
<svg version="1.1" id="Capa_1" xmlns="http://www.w3.org/2000/svg" xmlns:xlink="http://www.w3.org/1999/xlink" x="0px" y="0px"
	 width="576.89px" height="576.89px" viewBox="0 0 576.89 576.89" style="enable-background:new 0 0 576.89 576.89;"
	 xml:space="preserve">
<g>
	<g>
		<path d="M490.597,269.652c-5.957-17.98-13.162-35.537-21.371-52.604c-16.385-34.076-36.772-66.243-60.245-95.872
			c-28.964-36.569-62.313-60.69-106.19-75.994c-8.906-3.105-22.897-3.75-30.73-8.328c-32.252-18.85-67.467-30.763-105.146-36.087
			c-34.961-4.941-66.288,14.361-78.434,46.7c-0.792,2.109-1.604,4.312-1.856,4.917c-0.151,0.359-0.282,0.73-0.379,1.122
			l-1.037,4.121c-0.551,2.187-1.758,4.411-2.624,5.071c-0.51,0.388-1.007,0.812-1.493,1.277c-8.327,7.973-3.305,19.923,1.106,28.76
			c4.757,9.531,12.167,17.826,19,26.181c1.15,1.408,3.068,2.195,5.075,2.905c2.126,0.755,4.154,0.93,4.578,0.302
			s0.143-2.521-0.625-4.227c-0.461-1.028-0.93-2.052-1.424-3.068c-0.514-1.057-0.975-2.089-1.383-3.101
			c-0.706-1.738-0.522-3.154,0.261-3.187c0.469-0.016,0.938-0.057,1.408-0.13c1.032-0.159,2.061-0.314,3.093-0.473
			c1.709-0.261,3.896-0.078,4.965,0.122c0.616,0.114,1.269,0.164,1.958,0.135c9.959-0.428,20.184-2.366,29.58-5.679
			c0.775-0.273,1.424-0.596,1.955-0.959c0.996-0.677,2.742-1.391,4.227-1.64c0.853-0.143,1.726-0.4,2.607-0.783
			c0,0,0.045-0.021,0.102-0.045s0.082,0.041,0.053,0.147c-0.024,0.106,1.53,1.109,3.472,2.248c3.905,2.281,7.568,4.418,11.236,6.564
			c2.419,1.371,4.827,2.762,7.23,4.162c1.946,1.134,3.464,2.995,3.435,4.154c-0.02,0.685-0.028,1.387-0.024,2.101
			c0.123,23.374,16.561,50.429,37.247,63.199c1.917,1.183,4.855,3.301,6.503,4.839c2.468,2.301,4.998,4.541,7.589,6.708
			c1.73,1.444,3.917,4.239,4.855,6.291c2.195,4.79,4.394,9.584,6.589,14.374c0.938,2.048,2.232,5.459,2.884,7.613
			c2.159,7.091,4.345,14.17,6.704,21.191c0.718,2.138-0.51,3.713-2.762,3.746c-8.438,0.114-16.54,2.493-23.554,6.736
			c-1.926,1.167-5.141,1.738-7.303,1.102c-19.478-5.773-38.956-11.542-58.438-17.316c-12.644-3.745-18.005,15.941-5.422,19.67
			c16.524,4.896,33.048,9.792,49.572,14.688c2.162,0.641,3.594,1.758,3.623,2.554c0.028,0.795,0.171,3.223,0.636,5.426
			c0.641,3.052,2.46,5.639,6.116,7.527c0.408,0.212,0.82,0.408,2.04,0.992c1.13,0.542,1.905,0.71,1.726,0.371
			c-0.179-0.338,0.42-0.722,0.992-1.334c0.31-0.331,0.551-0.771,0.685-1.334c0.433-1.779,1.012-3.399,1.714-4.88
			c0.967-2.036,3.403-3.117,5.047-2.632c1.644,0.49,2.889,2.729,3.337,4.937c0.216,1.069,0.53,2.113,0.938,3.129
			c0.845,2.089,2.501,5.402,4.035,7.055c0.322,0.347,0.669,0.665,1.044,0.942c1.803,1.351,4.309,1.763,5.014,2.068
			c0.42,0.184,0.853,0.351,1.297,0.506c0.335,0.114,0.645,0.167,0.938,0.167c0.526,0.004,1.461,0.086,2.163,0.073
			c0.702-0.016,3.549-0.982,3.606-3.235c0-0.024,0-0.053,0-0.081c0.004-2.252-3.447-4.402-4.329-6.475
			c-0.029-0.065-0.057-0.13-0.082-0.196c-0.861-2.081,0.612-3.386,2.774-2.75c18.829,5.577,37.654,11.159,56.483,16.736
			c0.972,0.289,1.894,0.429,2.771,0.444c1.555,0.033,3.081,1.339,3.105,3.456c0.012,1.248-0.065,2.521-0.253,3.818
			c-0.151,1.032,0.175,1.906,0.738,2.542c0.999,1.135,3.174,1.897,4.292,1.791c0.6-0.057,1.204-0.354,1.729-0.979
			c0.91-1.073,1.738-2.191,2.481-3.346c1.22-1.894,3.708-2.938,5.822-2.154c5.1,1.889,14.071,5.234,19.167,7.136
			c2.109,0.787,3.995,3.248,4.219,5.492c3.362,33.521,9.07,66.806,17.234,99.572c0.032,0.122,0.069,0.232,0.114,0.343
			c0.073,0.184,0.42,2.35,2.154,3.79c3.852,3.19,11.525,1.461,11.742-5.165c0.163-4.941-0.771-9.604-1.616-14.451
			c-0.465-2.669-1.224-6.227-0.298-8.907c0.013-0.041,2.8-4.504,2.746-2.823c-0.021,0.579,0.028,1.118,0.127,1.62
			c0.171,0.881,0.746,3.346,1.061,5.577c3.762,26.712,9.29,53.146,17.491,79.136c9.841,31.188,23.142,60.596,46.875,84.068
			c2.537,2.509,5.438,4.655,8.314,6.825c1.8,1.355,3.787,2.053,4.468,1.514c0.682-0.538,0.927-2.541,0.539-4.467
			c-0.245-1.208-0.567-2.367-1.188-3.334c-6.381-9.938-32.934-55.455-19.76-67.177c1.657-1.469,3.085-1.73,4.312-1.232
			c2.085,0.853,3.012,3.521,3.231,4.35c0.135,0.502,0.27,0.999,0.416,1.497c6.189,21.403,14.264,42.139,28.776,59.462
			c4.896,5.843,10.894,10.763,16.626,15.904c1.677,1.505,3.774,2.149,4.709,1.403c0.938-0.747,1.093-3.076,0.338-5.198
			c-0.473-1.338-1.003-2.64-1.75-3.803c-29.869-46.646-43.827-98.765-50.355-152.783c-2.473-45.076-4.944-90.147-7.417-135.224
			c-0.123-2.248,1.387-3.219,3.365-2.142c19.054,10.375,37.406,22.277,55.052,36.226c1.767,1.399,2.016,1.118,1.24-0.999
			C496.162,302.545,492.474,275.319,490.597,269.652z M303.736,256.583c-1.529,3.26-3.822,6.283-6.858,9.115
			c-1.648,1.538-4.933,2.864-7.103,3.472c-1.253,0.351-2.485,0.779-3.693,1.281c-2.081,0.865-4.402,1.571-5.308,1.302
			s-1.702-1.081-1.865-1.791s0.628-2.126,1.42-3.513c0.428-0.747,0.836-1.62,1.236-2.603c1.469-3.599,4.496-6.532,6.295-10.033
			c0.926-1.795,1.849-3.599,2.75-5.41c1-2.02,2.146-4.109,2.579-4.668c0.261-0.334,0.514-0.677,0.759-1.032l6.585-9.539
			c1.281-1.856,2.55-3.284,2.831-3.194c0.286,0.09,0.515,0.265,0.502,0.404c-0.004,0.082-0.012,0.163-0.012,0.245
			c0,0,0,0.367,0,0.82c0,0.453-0.241,0.71-0.543,0.579c-0.302-0.134-0.286,0.388,0.017,1.175c0.302,0.788,0.526,3.264,0.526,5.516
			v7.148c0,1.196,0.114,2.367,0.33,3.505C304.549,251.284,304.695,254.543,303.736,256.583z M345.361,291.243
			c-3.346-1.249-6.691-2.497-10.037-3.746c-2.109-0.788-4.806-2.693-6.308-3.958c-1.501-1.265-1.963-3.554-0.767-5.467
			c2.876-4.594,5.748-9.2,8.556-13.847c0.909-1.51,1.673-2.881,2.28-4.142c0.979-2.027,2.415-5.247,3.183-7.226
			c0.767-1.979,1.971-5.275,2.831-7.356c0.478-1.158,0.894-2.35,1.241-3.565c0.615-2.167,1.016-3.95,1.183-3.909
			c0.167,0.041,0.273,1.901,0.253,4.157c-0.143,15.492,0.286,30.967,1.167,46.414C349.069,290.848,347.471,292.03,345.361,291.243z"
			/>
	</g>
</g>
<g>
</g>
<g>
</g>
<g>
</g>
<g>
</g>
<g>
</g>
<g>
</g>
<g>
</g>
<g>
</g>
<g>
</g>
<g>
</g>
<g>
</g>
<g>
</g>
<g>
</g>
<g>
</g>
<g>
</g>
</svg>
