<svg id="Capa_1" enable-background="new 0 0 512 512" height="512" viewBox="0 0 512 512" width="512" xmlns="http://www.w3.org/2000/svg"><g><g><g><path d="m384.166 163.058c-7.084 16.376-17.818 30.834-31.182 42.347h124.554z"/><path d="m393.686 116.962c0 5.738-.424 11.379-1.231 16.898l118.981 53.962c-6.63-46.681-28.134-89.786-62.233-123.711-41.553-41.343-96.8-64.111-155.563-64.111h-17.486c64.807 0 117.532 52.469 117.532 116.962z"/></g><g><path d="m254.298 454.656c69.055 0 125.235-55.907 125.235-124.625 0-37.82-17.023-71.751-43.837-94.626h-115.858c25.256 24.27 40.993 58.321 40.993 95.97 0 51.572-29.522 96.397-72.601 118.57 5.815 1.173 11.687 2.14 17.614 2.877v44.178c0 8.284 6.736 15 15.046 15h88.719c8.31 0 15.046-6.716 15.046-15s-6.737-15-15.046-15h-73.672v-27.344z"/><path d="m165.526 235.405h-164.963c.641 10.154 1.942 20.18 3.86 30.037h77.09c8.31 0 15.046 6.716 15.046 15s-6.737 15-15.046 15h-69.133c3.485 10.295 7.686 20.329 12.59 30.037h86.716c8.31 0 15.046 6.716 15.046 15s-6.737 15-15.046 15h-68.584c7.689 10.797 16.34 21.031 25.937 30.578 20.472 20.367 44.054 36.507 69.675 48.009 51.702-5.786 92.026-49.629 92.026-102.691-.001-43.447-27.036-80.713-65.214-95.97z"/></g></g><path d="m276.021 30c-48.028 0-86.962 38.934-86.962 86.962s38.934 86.962 86.962 86.962 86.962-38.934 86.962-86.962-38.934-86.962-86.962-86.962zm38.996 89.867c-1.388 6.93-7.641 12.07-14.71 12.07-6.285 0-11.984-4.05-14.119-9.946-2.129-5.88-.23-12.69 4.608-16.644 4.873-3.983 11.811-4.462 17.217-1.27 5.378 3.176 8.227 9.68 7.004 15.79z"/></g></svg>