<?xml version="1.0" encoding="iso-8859-1"?>
<!-- Generator: Adobe Illustrator 16.0.0, SVG Export Plug-In . SVG Version: 6.00 Build 0)  -->
<!DOCTYPE svg PUBLIC "-//W3C//DTD SVG 1.1//EN" "http://www.w3.org/Graphics/SVG/1.1/DTD/svg11.dtd">
<svg version="1.1" id="Capa_1" xmlns="http://www.w3.org/2000/svg" xmlns:xlink="http://www.w3.org/1999/xlink" x="0px" y="0px"
	 width="32px" height="32px" viewBox="0 0 32 32" style="enable-background:new 0 0 32 32;" xml:space="preserve">
<g>
	<g>
		<path d="M20.83,14.079c-1.882-1.596-4.746-0.047-5.761,0.629c-0.845-0.749-2.817-1.803-4.253-0.457
			c-0.09,0.085-0.136,0.199-0.136,0.313c0,0.105,0.038,0.211,0.117,0.294c0.162,0.175,0.435,0.183,0.608,0.02
			c1.034-0.969,2.493,0.01,2.944,0.356c-0.402,0.317-0.794,0.666-1.174,1.04c-0.831-0.594-2.507-1.237-3.848,0.021
			c-0.09,0.085-0.136,0.199-0.136,0.312c0,0.105,0.038,0.211,0.117,0.295c0.163,0.176,0.435,0.184,0.608,0.021
			c0.981-0.92,2.168-0.328,2.65-0.021c-0.37,0.402-0.727,0.82-1.068,1.246c-0.792-0.461-2.529-0.946-3.893,0.33
			c-0.09,0.084-0.136,0.199-0.136,0.313c0,0.104,0.038,0.212,0.117,0.295c0.163,0.173,0.435,0.183,0.608,0.019
			c1.063-0.996,2.348-0.479,2.771-0.267c-0.433,0.582-0.833,1.169-1.199,1.739c-0.851-0.433-2.454-0.782-3.732,0.416
			c-0.09,0.085-0.136,0.198-0.136,0.312c0,0.105,0.038,0.211,0.117,0.295c0.162,0.174,0.435,0.184,0.608,0.021
			c1-0.938,2.19-0.537,2.684-0.31c-1.147,1.896-1.832,3.453-1.832,3.676c0,0.574,1.832,2.589,2.549,2.589
			c0.223,0,1.779-0.687,3.676-1.832c0.229,0.491,0.628,1.684-0.309,2.684c-0.163,0.174-0.154,0.445,0.02,0.608
			c0.083,0.078,0.189,0.115,0.294,0.115c0.115,0,0.229-0.047,0.314-0.137c1.198-1.277,0.846-2.881,0.416-3.73
			c0.57-0.365,1.157-0.768,1.739-1.198c0.214,0.424,0.73,1.707-0.267,2.771c-0.163,0.175-0.154,0.445,0.02,0.607
			c0.083,0.078,0.189,0.117,0.294,0.117c0.115,0,0.229-0.047,0.314-0.138c1.277-1.362,0.792-3.1,0.328-3.893
			c0.429-0.341,0.846-0.697,1.246-1.068c0.31,0.482,0.898,1.67-0.021,2.65c-0.163,0.174-0.152,0.445,0.021,0.608
			c0.082,0.076,0.188,0.115,0.293,0.115c0.115,0,0.229-0.047,0.313-0.137c1.259-1.341,0.615-3.018,0.021-3.848
			c0.373-0.38,0.722-0.771,1.039-1.176c0.348,0.452,1.326,1.911,0.355,2.944c-0.162,0.174-0.152,0.446,0.021,0.608
			c0.082,0.078,0.188,0.116,0.294,0.116c0.114,0,0.229-0.047,0.312-0.138c1.347-1.437,0.291-3.407-0.456-4.252
			C20.925,19.047,22.712,15.674,20.83,14.079z"/>
		<path d="M29.323,5.78c-1.183,0.85-1.027,6.038-1.027,6.038s-0.933-1.693,0.018-5.213c0.016-0.03,0.035-0.055,0.053-0.085
			c-0.014,0.003-0.023,0.004-0.036,0.008c0.001-0.003,0.001-0.004,0.001-0.006c-0.005,0.002-0.01,0.006-0.014,0.009
			c-3.545,0.963-5.248,0.023-5.248,0.023s5.188,0.156,6.037-1.027c-5.692-5.289-12.064-1.403-13.506,0.326
			c-2.179,2.305-2.031,6.406-0.167,8.226c0.791-0.601,1.667-1.094,2.527-1.04c0.734-0.133-2.958-0.932-2.167-4.895l5.954,0.926
			c0,0,2.554,0.491,4.646-0.6c-1.107,2.095-0.611,4.669-0.611,4.669l0.925,5.953c-3.963,0.793-4.56-2.7-4.691-1.967
			c0.053,0.858-0.432,1.647-1.031,2.438c1.819,1.863,5.711,1.9,8.016-0.277C30.728,17.844,34.611,11.472,29.323,5.78z"/>
		<path d="M6.542,25.482c-0.986-0.377-3.245,2.224-2.546,2.762c0.699,0.538,4.202,0.808,4.59,0.125
			C8.973,27.687,7.223,25.698,6.542,25.482z"/>
		<path d="M4.791,25.445c0,0-1.028-2.616-1.673-2.938s-2.151,0.107-2.689,0.682c-0.538,0.574,2.082,4.529,2.976,4.143
			C4.298,26.939,4.791,25.445,4.791,25.445z"/>
		<path d="M2.848,21.914c0.125-0.145,0.036-1.954,0-2.295c-0.036-0.342-2.296-0.502-2.493-0.322
			c-0.197,0.179-0.627,2.987-0.107,3.099C0.769,22.505,2.723,22.057,2.848,21.914z"/>
		<path d="M2.812,19.1c0.233-0.106,0.448-2.205,0.591-2.438s-1.11-0.9-1.522-0.811c-0.413,0.09-1.616,2.423-1.293,2.71
			C0.912,18.848,2.579,19.207,2.812,19.1z"/>
		<path d="M3.708,16.248c3.389-1.775,2.761-4.5,2.761-4.5s-0.179-1.004,0.394-1.721C6.504,9.471,4.98,10.708,4.98,10.708
			s-3.514,0.466-2.635,4.625C2.597,15.782,3.35,16.176,3.708,16.248z"/>
	</g>
</g>
<g>
</g>
<g>
</g>
<g>
</g>
<g>
</g>
<g>
</g>
<g>
</g>
<g>
</g>
<g>
</g>
<g>
</g>
<g>
</g>
<g>
</g>
<g>
</g>
<g>
</g>
<g>
</g>
<g>
</g>
</svg>
