<?xml version="1.0" encoding="iso-8859-1"?>
<!-- Generator: Adobe Illustrator 16.0.0, SVG Export Plug-In . SVG Version: 6.00 Build 0)  -->
<!DOCTYPE svg PUBLIC "-//W3C//DTD SVG 1.1//EN" "http://www.w3.org/Graphics/SVG/1.1/DTD/svg11.dtd">
<svg version="1.1" id="Capa_1" xmlns="http://www.w3.org/2000/svg" xmlns:xlink="http://www.w3.org/1999/xlink" x="0px" y="0px"
	 width="583.132px" height="583.132px" viewBox="0 0 583.132 583.132" style="enable-background:new 0 0 583.132 583.132;"
	 xml:space="preserve">
<g>
	<g>
		<path d="M579.453,378.06c-2.681-0.588-5.599-0.498-8.356-0.188c-3.855,0.437-5.802-0.869-5.708-4.766
			c0.065-2.762-1.432-3.533-3.704-3.578c-2.991-0.062-5.99,0.103-8.973-0.049c-4.765-0.236-6.499-2.187-5.137-6.471
			c1.065-3.354,0.298-4.835-3.011-5.643c-2.733-0.67-5.357-1.791-8.037-2.693c-3.995-1.342-4.651-3.644-1.894-6.72
			c2.771-3.093,1.457-7.662-2.64-9.184c-5.757-2.143-5.725-2.105-1.057-6.406c0.812-0.746,1.362-1.872,1.782-2.921
			c0.841-2.089,2.428-2.559,4.374-2.167c2.645,0.531,5.255,1.232,7.896,1.8c0.607,0.131,1.272,0.021,2.154,0.021
			c-0.037-3.518,2.138-4.052,5.062-3.855c2.66,0.18,5.406,0.388,7.984-0.103c1.42-0.269,3.012-1.709,3.726-3.052
			c0.787-1.48-0.232-2.701-1.864-3.733c-13.053-8.229-27.442-11.02-42.481-9.567c-9.563,0.927-18.956,3.533-28.458,5.189
			c-8.895,1.551-17.793,3.289-26.765,4.097c-6.341,0.571-12.064-1.645-16.626-6.757c-7.209-8.073-14.659-15.952-22.297-23.623
			c-12.057-12.102-25.863-22.065-40.372-30.939c-11.433-6.993-23.582-12.803-35.063-19.719c-8.776-5.288-18.662-6.503-28.16-9.164
			c-7.434-2.085-14.921-4.035-22.477-5.582c-6.275-1.285-12.709-1.779-19.042-2.827c-19.576-3.235-39.303-1.828-58.956-1.754
			c-11.824,0.045-23.627,1.771-35.459,2.301c-5.573,0.253-11.211-0.967-16.789-0.73c-6.985,0.293-10.086-5.275-14.28-8.85
			c-8.47-7.229-15.288-16.034-21.551-25.251c-6.548-9.637-13.031-19.331-19.882-28.752c-5.43-7.466-13.027-12.554-20.967-17.03
			c-2.794-1.579-5.928-2.55-8.841-3.929c-5.104-2.415-10.559-1.538-15.899-1.971c-11.799-0.958-22.383,2.46-31.935,8.898
			c-3.9,2.628-7.503,6.263-10.053,10.208c-5.21,8.062-12.628,12.607-21.326,15.594c-3.305,1.134-4.5,4.986-4.362,8.445
			c0.167,4.08,2.416,7.267,3.122,11.024c0.29,1.538,1.317,3.06,2.346,4.316c2.146,2.62,4.423,5.153,6.834,7.528
			c0.971,0.955,2.371,1.604,3.688,2.044c6.304,2.109,12.211,4.7,15.361,12.289c0.93-3.635,2.122-4.17,4.773-2.848
			c5.369,2.668,7.332,7.691,9.111,12.668c2.101,5.875,3.753,11.938,5.186,18.018c1.363,5.793,2.052,11.742,3.301,17.564
			c0.958,4.479,2.122,8.943,3.549,13.296c5.084,15.5,12.722,29.731,21.8,43.236c0.522,0.779,1.016,2.15,0.685,2.84
			c-3.125,6.475-5.549,13.407-11.175,18.355c-3.097,2.722-6.292,5.333-9.335,8.111c-2.423,2.212-4.022,4.985-3.312,8.352
			c0.82,3.889,3.468,5.753,7.409,6.671c7.593,1.771,15.104,1.522,22.636,0.118c6.108-1.138,12.122-2.717,18.454-2.269
			c6.071,0.433,12.224,0.045,18.246,0.796c6.679,0.832,12.921,3.848,17.421,8.67c6.451,6.916,12.012,14.672,17.817,22.175
			c3.342,4.321,5.953,9.307,9.747,13.15c3.02,3.06,7.148,5.23,11.11,7.111c10.82,5.145,21.738,10.102,32.75,14.818
			c14.517,6.218,28.544,13.387,42.449,20.849c3.872,2.077,8.409,3.085,12.758,4.056c2.844,0.633,5.879-0.065,7.193-3.187
			c1.318-3.125-0.975-5.357-2.615-7.613c-0.535-0.738-1.489-1.163-2.232-1.759c-1.934-1.562-3.729-3.149-3.195-6.075
			c0.404-2.231-0.844-3.549-2.832-4.357c-1.457-0.587-2.872-1.28-4.296-1.941c-2.367-1.102-3.215-2.485-2.672-5.472
			c0.958-5.271-2.313-9.041-6.283-11.938c-2.02-1.478-2.811-2.942-1.787-5.312c-4.664-0.873-5.166-5.108-7.597-8.719
			c1.685-0.486,2.987-1.195,4.276-1.18c8.727,0.11,17.455,0.543,26.182,0.551c16.532,0.013,32.995-0.566,49.437-2.982
			c13.305-1.954,26.12-5.014,38.014-11.208c5.748-2.99,10.935-7.042,16.479-10.444c11.371-6.973,23.808-11.13,36.814-13.823
			c10.987-2.272,22.15-1.795,33.097-0.991c11.763,0.865,23.301,4.019,34.198,8.98c2.04,0.93,4.391,1.354,6.643,1.599
			c4.896,0.53,8.479,3.37,12.016,6.349c6.777,5.695,13.235,11.828,21.379,15.646c6.614,3.105,13.529,5.011,20.898,4.986
			c6.197-0.021,12.443,0.489,18.576-0.139c6.617-0.678,13.146-2.346,19.678-3.733c1.15-0.245,2.342-1.024,3.162-1.894
			c0.873-0.922,2.134-2.635,1.807-3.309C582.357,380.132,580.897,378.374,579.453,378.06z"/>
	</g>
</g>
<g>
</g>
<g>
</g>
<g>
</g>
<g>
</g>
<g>
</g>
<g>
</g>
<g>
</g>
<g>
</g>
<g>
</g>
<g>
</g>
<g>
</g>
<g>
</g>
<g>
</g>
<g>
</g>
<g>
</g>
</svg>
