<?xml version="1.0" standalone="no"?>
<!DOCTYPE svg PUBLIC "-//W3C//DTD SVG 20010904//EN"
 "http://www.w3.org/TR/2001/REC-SVG-20010904/DTD/svg10.dtd">
<svg version="1.0" xmlns="http://www.w3.org/2000/svg"
 width="200.000000pt" height="200.000000pt" viewBox="0 0 200.000000 200.000000"
 preserveAspectRatio="xMidYMid meet">
<metadata>
Created by potrace 1.15, written by Peter Selinger 2001-2017
</metadata>
<g transform="translate(0.000000,200.000000) scale(0.100000,-0.100000)"
fill="#000000" stroke="none">
<path d="M404 1645 c-36 -21 -63 -59 -78 -107 -4 -13 -16 -18 -44 -18 -24 0
-52 -9 -73 -23 -39 -26 -79 -97 -79 -142 0 -40 38 -114 72 -138 15 -11 50 -22
80 -25 35 -3 64 -13 85 -29 41 -31 100 -45 142 -33 29 8 31 7 31 -16 0 -70 77
-144 150 -144 17 0 49 -12 71 -27 48 -32 122 -37 162 -10 23 15 26 15 39 0 18
-22 71 -43 106 -43 16 0 48 10 72 23 41 21 47 22 86 9 54 -18 117 -2 155 39
19 21 36 29 61 29 43 0 93 31 113 71 17 32 17 105 1 142 -7 15 -2 17 43 17 41
0 56 5 83 28 18 16 50 32 72 35 52 8 80 28 101 73 31 67 -2 152 -70 174 -19 6
-37 20 -40 30 -3 11 -20 31 -36 45 -24 19 -42 25 -80 25 -28 0 -59 -5 -69 -10
-15 -8 -27 -4 -56 15 -43 29 -100 33 -144 10 -27 -14 -33 -14 -62 1 -22 11
-47 15 -82 11 -41 -4 -55 -11 -81 -38 l-31 -34 -33 22 c-49 33 -97 39 -153 19
l-48 -17 -36 27 c-49 38 -128 44 -183 16 -39 -21 -39 -21 -77 -1 -53 27 -119
25 -170 -6z"/>
<path d="M1626 1122 c-32 -82 -32 -82 -1 -82 l24 0 -20 -47 c-11 -25 -18 -51
-16 -56 2 -6 35 28 75 74 68 80 71 84 47 87 -30 4 -30 6 -7 40 37 53 37 52
-22 52 l-54 0 -26 -68z"/>
<path d="M322 993 c-48 -128 -48 -123 -13 -123 17 0 31 -2 31 -5 0 -3 -11 -33
-25 -67 -26 -65 -25 -87 3 -51 9 12 50 59 90 106 39 46 72 87 72 91 0 3 -16 6
-36 6 l-35 0 24 33 c13 17 32 44 42 60 l17 27 -70 0 -70 0 -30 -77z"/>
<path d="M876 677 c-25 -68 -46 -129 -46 -135 0 -7 17 -12 44 -12 l44 0 -40
-96 c-22 -53 -37 -98 -35 -101 6 -6 257 285 257 298 0 5 -20 9 -45 9 -25 0
-45 2 -45 5 0 3 23 36 50 75 28 39 50 72 50 75 0 3 -42 5 -94 5 l-93 0 -47
-123z"/>
</g>
</svg>
