<?xml version="1.0" standalone="no"?>
<!DOCTYPE svg PUBLIC "-//W3C//DTD SVG 20010904//EN"
 "http://www.w3.org/TR/2001/REC-SVG-20010904/DTD/svg10.dtd">
<svg version="1.0" xmlns="http://www.w3.org/2000/svg"
 width="260.000000pt" height="260.000000pt" viewBox="0 0 260.000000 260.000000"
 preserveAspectRatio="xMidYMid meet">
<metadata>
Created by potrace 1.15, written by Peter Selinger 2001-2017
</metadata>
<g transform="translate(0.000000,260.000000) scale(0.100000,-0.100000)"
fill="#000000" stroke="none">
<path d="M1340 2574 c-138 -78 -210 -216 -210 -401 l0 -82 33 7 c59 13 259 7
322 -10 33 -9 67 -18 75 -20 12 -2 15 8 13 56 -4 100 -27 153 -105 229 -110
109 -127 150 -88 215 24 39 19 39 -40 6z"/>
<path d="M429 2237 c-8 -23 -14 -80 -14 -128 0 -79 4 -92 37 -160 37 -75 139
-199 163 -199 7 0 30 22 50 50 57 77 115 126 271 227 18 12 17 15 -20 48 -22
19 -65 48 -95 63 -49 24 -68 27 -156 28 -55 0 -110 1 -122 2 -27 2 -83 57 -83
82 0 36 -17 29 -31 -13z"/>
<path d="M2145 2265 c-32 -88 -54 -101 -175 -98 -60 2 -114 -3 -146 -12 -50
-14 -174 -96 -174 -114 0 -5 25 -24 56 -42 79 -45 168 -121 221 -190 26 -32
52 -59 59 -59 23 0 125 124 160 196 46 92 55 190 26 279 -15 48 -21 56 -27 40z"/>
<path d="M1191 2028 c-35 -5 -103 -23 -150 -41 -202 -76 -352 -226 -428 -427
-149 -398 59 -827 468 -963 26 -9 85 -21 133 -27 336 -45 670 165 781 490 131
387 -67 797 -452 934 -68 24 -206 48 -263 45 -14 -1 -54 -6 -89 -11z"/>
<path d="M2068 1575 c-3 -4 -1 -24 7 -44 33 -96 45 -318 20 -383 -6 -16 1 -18
77 -18 189 0 336 79 407 219 23 44 20 48 -19 26 -58 -33 -102 -13 -207 93 -51
52 -80 73 -118 85 -58 19 -157 32 -167 22z"/>
<path d="M283 1455 c-115 -31 -213 -107 -262 -204 -23 -44 -20 -48 19 -26 58
33 102 13 207 -93 76 -77 119 -97 231 -108 61 -7 65 -6 58 12 -37 94 -55 307
-34 402 l8 32 -88 -1 c-48 0 -111 -7 -139 -14z"/>
<path d="M549 791 c-35 -37 -73 -92 -96 -138 -36 -73 -38 -81 -37 -172 0 -66
6 -107 16 -131 15 -31 17 -33 23 -15 29 86 55 101 175 98 60 -2 114 3 146 12
50 14 174 96 174 114 0 5 -24 23 -52 40 -81 47 -161 114 -219 183 -28 35 -56
65 -62 67 -5 2 -36 -24 -68 -58z"/>
<path d="M1927 791 c-53 -69 -142 -145 -221 -190 -31 -18 -56 -36 -56 -41 0
-15 73 -70 130 -98 50 -25 65 -27 170 -27 143 -1 166 -12 195 -100 6 -18 8
-16 22 15 11 24 17 66 17 130 1 91 -1 100 -36 171 -37 74 -138 199 -162 199
-7 0 -33 -27 -59 -59z"/>
<path d="M1023 525 c-7 -20 4 -98 24 -160 12 -38 32 -66 85 -118 106 -105 126
-149 93 -207 -22 -39 -18 -42 26 -19 139 70 219 219 219 407 0 76 -2 83 -17
77 -66 -25 -288 -13 -385 21 -34 12 -40 11 -45 -1z"/>
</g>
</svg>
