<?xml version="1.0" encoding="iso-8859-1"?>
<!-- Generator: Adobe Illustrator 18.0.0, SVG Export Plug-In . SVG Version: 6.00 Build 0)  -->
<!DOCTYPE svg PUBLIC "-//W3C//DTD SVG 1.1//EN" "http://www.w3.org/Graphics/SVG/1.1/DTD/svg11.dtd">
<svg version="1.1" id="Capa_1" xmlns="http://www.w3.org/2000/svg" xmlns:xlink="http://www.w3.org/1999/xlink" x="0px" y="0px"
	 viewBox="0 0 186.799 186.799" style="enable-background:new 0 0 186.799 186.799;" xml:space="preserve">
<path d="M19.938,140.994c16.166,19.215,29.408,11.979,32.225,15.858c2.811,3.883,4.553,7.342,0.404,12.244
	c-11.865,5.254-1.818,11.228,10.109,4.563c-5.961,10.87,4.551,8.764,8.861,7.186c22.236-9.643,36.547-19.012,43.338-23.956v20.576
	h-5.086c-2.584,0-4.664,2.083-4.664,4.662c0,2.581,2.08,4.671,4.664,4.671h28.84c2.578,0,4.666-2.091,4.666-4.671
	c0-2.578-2.088-4.662-4.666-4.662h-14.422V153.29c0-0.039-0.004-0.065-0.008-0.095c50.275-1.929,56.975-35.105,57.049-52.806
	c0.088-18.231-5.219-54.353-8.137-66.504c-2.906-12.146,10.352-10.98,10.352-12.733c0-1.75-9.75-10.149-12.215-12.197
	c-2.473-2.044-6.502-10.714-16.012-8.635c-21.037,5.803-14.996,22.505-11.027,34.172c9.316,22.796,9.967,33.294,6.246,33.369
	l-0.83-0.25c-23.814-32.422-54-28.222-60.381-26.079c-6.398,2.138-4.842,4.169-9.174-4.534
	C46.284-16.571,46.942,8.382,43.743,15.195C38.83,6.43,31.584,17.225,27.969,31.323C23.055,18.351,9.036,41.843,11.133,63.574
	c-17.879-14.016-0.713,46.755,8.805,58.905C14.373,119.322,9.387,126.687,19.938,140.994z"/>
<g>
</g>
<g>
</g>
<g>
</g>
<g>
</g>
<g>
</g>
<g>
</g>
<g>
</g>
<g>
</g>
<g>
</g>
<g>
</g>
<g>
</g>
<g>
</g>
<g>
</g>
<g>
</g>
<g>
</g>
</svg>
