<?xml version="1.0" encoding="iso-8859-1"?>
<!-- Generator: Adobe Illustrator 18.0.0, SVG Export Plug-In . SVG Version: 6.00 Build 0)  -->
<!DOCTYPE svg PUBLIC "-//W3C//DTD SVG 1.1//EN" "http://www.w3.org/Graphics/SVG/1.1/DTD/svg11.dtd">
<svg version="1.1" id="Capa_1" xmlns="http://www.w3.org/2000/svg" xmlns:xlink="http://www.w3.org/1999/xlink" x="0px" y="0px"
	 viewBox="0 0 306.155 306.155" style="enable-background:new 0 0 306.155 306.155;" xml:space="preserve">
<path d="M279.988,76.798c-30.579,1.434-20.875,36.817-48.286,39.489c0.079-2.092,0.125-4.2,0.125-6.346
	c0-1.699-1.355-3.088-3.058-3.119c-10.479-0.214-26.14-2.72-42.726-5.364c-19.519-3.108-39.706-6.328-54.366-6.328
	c-4.192,0-7.67,0.255-10.633,0.79c-27.962,4.992-49.389,31.615-70.105,57.353c-16.612,20.628-32.294,40.116-48.465,43.56
	c-1.484,0.327-2.527,1.663-2.472,3.184c0.054,1.514,1.2,2.767,2.707,2.973c5.961,0.808,11.542,1.586,16.812,2.342L3.127,229.383
	h27.919l9.949-20.892c7.253,1.095,13.792,2.121,19.716,3.035c5.205,0.818,9.931,1.555,14.311,2.208l-6.693,15.648h28.115V216.61
	c7.472,0.803,14.276,1.223,21.539,1.223c3.622,0,7.273-0.107,11.18-0.324c6.136-0.335,13.141-1.092,20.537-2.532v14.407h24.857
	l-3.76-20.398c8.982-3.458,17.925-8.217,26.093-14.747c3.157-2.531,6.091-5.262,8.823-8.157
	c14.264,17.976,13.618,43.303,13.618,43.303h29.002c-0.633-21.914-19.678-46.885-30.596-59.456
	c4.511-7.843,7.946-16.576,10.289-26.176c22.962-7.816,45.37-30.437,55.218-33.81c10.36-3.553,22.913-0.951,22.913-13.611
	C306.155,80.948,289.154,76.376,279.988,76.798z"/>
<g>
</g>
<g>
</g>
<g>
</g>
<g>
</g>
<g>
</g>
<g>
</g>
<g>
</g>
<g>
</g>
<g>
</g>
<g>
</g>
<g>
</g>
<g>
</g>
<g>
</g>
<g>
</g>
<g>
</g>
</svg>
