<?xml version="1.0" encoding="iso-8859-1"?>
<!-- Generator: Adobe Illustrator 16.0.0, SVG Export Plug-In . SVG Version: 6.00 Build 0)  -->
<!DOCTYPE svg PUBLIC "-//W3C//DTD SVG 1.1//EN" "http://www.w3.org/Graphics/SVG/1.1/DTD/svg11.dtd">
<svg version="1.1" id="Capa_1" xmlns="http://www.w3.org/2000/svg" xmlns:xlink="http://www.w3.org/1999/xlink" x="0px" y="0px"
	 width="556.892px" height="556.891px" viewBox="0 0 556.892 556.891" style="enable-background:new 0 0 556.892 556.891;"
	 xml:space="preserve">
<g>
	<g>
		<path d="M24.559,206.055c18.809,16.822,41.64,25.545,66.047,30.526c12.007,2.452,24.149,3.803,36.369,4.525
			c5.52,0.004,11.041,0.008,16.565,0.012c0.481,0,0.889,0.11,1.232,0.294c0.09,0,0.18,0,0.269,0
			c14.97,0.057,29.902-0.596,44.758-2.587c6.401-0.857,12.856-1.391,19.213-2.493c9.237-1.6,18.401-3.635,27.622-5.316
			c1.252-0.229,2.876,0.18,3.99,0.853c2.839,1.722,5.646,3.35,9.103,3.211c1.379-0.057,2.052,0.445,2.117,1.901
			c0.106,2.407,0.322,4.814,0.539,7.218c0.596,6.548,1.604,13.011,4.847,18.866c2.762,4.985,6.985,6.528,12.224,4.275
			c2.269-0.975,4.472-2.301,6.369-3.876c1.481-1.231,2.411-1.383,4.236-0.579c3.183,1.399,6.577,2.615,9.992,3.085
			c2.366,0.326,3.227,1.105,3.688,3.243c2.737,12.676,2.432,25.333-0.311,37.936c-3.011,13.832-8.617,26.654-15.443,39
			c-3.428,6.203-9.168,11.281-9.886,18.283c0.073,0.24,0.118,0.51,0.118,0.803c0.017,4.109,2.86,7.01,5.761,9.561
			c2.913,2.562,5.912,4.998,8.732,7.67c5.907,5.602,11.195,11.828,15.961,18.418c0.273,0.375,0.416,0.746,0.465,1.105
			c1.073,1.551,2.134,3.096,3.146,4.68c2.913,4.549,6.075,8.98,8.52,13.777c5.736,11.266,14.039,19.715,25.691,24.705
			c2.24,0.959,3.998,2.223,5.275,4.293c0.71,1.15,1.681,2.137,2.787,3.52c0.779-4.818,0.701-4.953-1.041-8.551
			c-0.547-1.131-0.954-2.42-1.049-3.664c-0.485-6.336-2.97-11.795-6.956-16.654c-0.592-0.723-1.154-1.494-1.615-2.301
			c-2.767-4.848-4.99-10.1-8.34-14.496c-8.348-10.955-17.104-21.6-25.925-32.18c-1.9-2.277-2.121-4.027-1.007-6.613
			c7.923-18.414,17.646-35.855,28.629-52.58c9.013-13.725,18.621-27.055,27.585-40.812c4.871-7.479,8.906-15.495,13.427-23.207
			c0.453-0.771,1.607-1.436,2.526-1.574c4.316-0.657,8.743-0.759,12.982-1.714c8.393-1.889,16.687-4.215,25.03-6.34
			c0.702-0.18,1.44-0.204,2.53-0.347c-1.028,10.265-2.016,20.175-3.016,30.082c-0.062,0.6-0.159,1.195-0.298,1.783
			c-1.812,7.76-1.787,7.928-9.567,9.241c-5.781,0.98-11.53,3.889-17.956,0.371c0.967,2.217,1.673,3.84,2.469,5.66
			c-1.429,0.098-2.645,0.18-4.052,0.277c0.232,0.547,0.334,0.865,0.493,1.146c3.518,6.209,10.412,9.131,17.728,7.393
			c2.755-0.652,5.419-1.727,8.189-2.281c3.496-0.697,6.523-2.133,9.021-4.662c4.369-4.428,5.969-10.086,7.055-15.974
			c0.306-1.652,0.632-3.301,0.95-4.953c0.31,0.053,0.624,0.106,0.935,0.159c-0.327,4.17-0.445,8.368-1.045,12.5
			c-0.489,3.379-1.448,6.703-2.379,10c-0.71,2.51-2.272,4.223-4.94,5.105c-5.386,1.781-9.996,4.83-13.949,8.975
			c-0.996,1.045-2.823,1.428-4.346,1.805c-0.991,0.244-2.126-0.078-3.811-0.184c1.412,1.811,2.484,3.189,3.758,4.822
			c-1.444,0.734-2.763,1.406-4.619,2.35c2.016,0.408,3.55,0.73,5.093,1.023c12.293,2.352,21.807-1.68,28.727-12.08
			c6.512-9.783,9.608-20.795,10.873-32.256c0.869-7.846,0.91-15.818,0.788-23.729c-0.049-3.272,0.298-5.671,3.076-6.679
			c1.525-1.624,3.402-2.839,5.463-3.859c3.391-1.681,6.928-3.113,10.412-4.603c1.118-0.73,2.244-1.448,3.395-2.125
			c2.31-1.367,5.292-1.546,7.772-2.688c9.168-4.219,15.431-10.714,16.3-21.371c0.094-1.151,1.049-2.464,1.975-3.28
			c4.708-4.137,9.764-7.899,14.247-12.261c3.358-3.268,6.03-7.242,9.168-11.093c5.479,2.978,11.073,5.198,17.287,4.859
			c2.183-0.118,3.436,0.926,4.949,2.154c2.436,1.975,4.953,4.035,7.772,5.312c4.406,1.995,8.526,0.987,12.02-2.534
			c1.607-1.62,3.541-2.917,5.173-4.517c0.417-0.408,0.604-1.62,0.307-2.105c-4.599-7.556-9.319-15.035-13.941-22.579
			c-1.061-1.734-2.064-3.562-2.718-5.476c-2.231-6.511-6.699-11.351-11.673-15.761c-2.04-1.808-4.487-3.174-6.825-4.619
			c-1.51-0.934-1.579-1.848-0.727-3.35c2.64-4.643,5.03-9.392,5.517-14.868c0.33-3.758,0.383-7.45-0.983-11.179
			c-5.667,4.721-11.184,9.258-16.622,13.88c-1.408,1.195-2.383,1.24-3.656-0.204c-2.562-2.905-5.296-5.659-7.943-8.49
			c-2.061-2.204-4.097-4.431-6.602-7.14c-0.212,1.575-0.412,2.179-0.351,2.75c1.044,9.486,2.016,18.984,3.284,28.441
			c0.253,1.893-0.2,2.697-1.596,3.721c-5.81,4.259-10.938,9.208-14.659,15.467c-0.604,1.02-1.004,2.285-1.864,3.003
			c-2.236,1.876-4.578,3.667-7.075,5.169c-1.179,0.71-2.844,1.049-4.219,0.902c-6.274-0.673-12.473-1.044-18.612,1.02
			c-2.216,0.747-4.432,1.33-6.969,0.171c-5.312-2.423-10.723-4.753-16.292-6.475c-9.592-2.97-19.273-5.724-29.041-8.045
			c-7.936-1.885-16.014-3.313-24.104-4.39c-12.203-1.624-24.391-0.91-36.549,1.032c-16.075,2.566-30.828,8.262-44.138,17.67
			c-2.317,1.636-4.606,3.395-7.132,4.639c-11.587,5.7-23.179,11.404-34.913,16.793c-14.357,6.597-29.38,11.457-44.599,15.582
			c-15.712,4.26-31.653,7.364-47.94,8.845c-11.342,1.032-22.644,2.024-34.027,1.64c-1.256-0.041-2.513-0.106-3.774-0.188
			c-0.502,0.306-1.118,0.457-1.82,0.359c-1.236-0.175-2.468-0.355-3.705-0.53c-3.28,0.021-6.54-0.331-9.735-1.044
			c-0.082-0.008-0.163-0.012-0.249-0.021c-14.933-1.832-29.543-5.055-43.656-10.306c-18.621-6.924-35.447-16.838-49.911-30.56
			c-2.22-2.105-4.158-4.508-6.487-7.066c-0.343,1-0.469,1.175-0.437,1.31C3.84,180.428,11.943,194.77,24.559,206.055z"/>
	</g>
</g>
<g>
</g>
<g>
</g>
<g>
</g>
<g>
</g>
<g>
</g>
<g>
</g>
<g>
</g>
<g>
</g>
<g>
</g>
<g>
</g>
<g>
</g>
<g>
</g>
<g>
</g>
<g>
</g>
<g>
</g>
</svg>
