<?xml version="1.0" encoding="iso-8859-1"?>
<!-- Generator: Adobe Illustrator 16.0.0, SVG Export Plug-In . SVG Version: 6.00 Build 0)  -->
<!DOCTYPE svg PUBLIC "-//W3C//DTD SVG 1.1//EN" "http://www.w3.org/Graphics/SVG/1.1/DTD/svg11.dtd">
<svg version="1.1" id="Capa_1" xmlns="http://www.w3.org/2000/svg" xmlns:xlink="http://www.w3.org/1999/xlink" x="0px" y="0px"
	 width="579.962px" height="579.963px" viewBox="0 0 579.962 579.963" style="enable-background:new 0 0 579.962 579.963;"
	 xml:space="preserve">
<g>
	<g>
		<path d="M66.324,60.718c-0.535,0.444-1.065,0.889-1.595,1.334c1.261,14.007,7.748,25.92,15.202,37.916
			c-1.444-1.277-2.897-2.546-4.333-3.831c-1.448-1.297-2.733-2.864-4.37-3.848c-1.493-0.897-3.358-1.175-5.059-1.73
			c-0.306,1.804-1.359,3.9-0.788,5.357c2.583,6.589,5.569,13.023,8.54,19.458c0.771,1.672,1.987,3.137,4.023,6.283
			c-3.901-2.097-6.198-3.325-8.491-4.558c-0.592,0.412-1.188,0.828-1.779,1.24c1.273,14.741,12.281,23.868,21.718,33.905
			c-4.831,4.737-5.377,8.233-0.29,13.191c4.782,4.659,8.405,9.678,11.767,15.483c4.582,7.916,11.375,14.525,16.977,21.877
			c4.81,6.316,9.429,12.791,13.79,19.417c1.028,1.562,1.024,4.039,0.926,6.067c-0.2,4.133-0.991,8.242-1.167,12.378
			c-0.399,9.527-2.301,19.433-0.351,28.487c1.86,8.629,1.481,17.193,2.783,25.695c0.738,4.823,1.032,9.723,1.876,14.525
			c2.338,13.28,4.753,26.549,7.385,39.771c0.718,3.611,2.464,7.01,3.464,10.58c2.281,8.127-2.827,13.802-6.822,19.824
			c-1.138,1.718-2.272,3.439-4.451,6.744c8.789-0.433,15.908-0.767,23.023-1.138c6.295-0.331,12.575-3.559,18.633,2.374
			c1.942,1.901,7.32,0.298,12.358,0.298c-2.603,4.007-4.945,7.617-7.846,12.085c3.35,0.526,6.136,0.967,10.355,1.632
			c-2.872,3.782-5.422,7.006-7.825,10.331c-12.244,16.92-25.174,33.407-36.414,50.976c-7.267,11.354-9.409,24.904-9.662,38.552
			c-0.049,2.722-1.061,6.186-2.909,7.988c-8.176,7.964-16.81,15.468-25.304,23.102c-3.651,3.284-7.373,6.486-11.065,9.727
			c0.278,0.547,0.555,1.093,0.833,1.64c24.77-11.873,49.54-23.745,74.803-35.854c1.126,0.774,2.905,1.975,4.664,3.211
			c8.788,6.177,9.013,8.805,0.571,15.442c-3.684,2.896-6.062,5.814-3.398,11.905l3.741-7.34c0.722,0.519,1.44,1.041,2.159,1.559
			c-0.979,2.375-1.792,4.831-2.962,7.104c-5.031,9.775-10.428,19.372-15.104,29.311c-1.342,2.848-0.718,6.618-1.061,10.775
			c5.161-4.492,10.457-9.352,16.039-13.855c2.591-2.089,5.72-3.513,8.642-5.178c1.081-0.616,2.627-0.763,3.337-1.632
			c10.196-12.546,20.771-24.827,30.253-37.899c7.854-10.832,13.224-22.782,3.819-36.532c19.384-6.756,33.57-19.657,48.299-31.485
			c13.276-10.665,25.904-22.269,37.879-34.382c13.855-14.02,28.629-26.247,47.394-33.077c5.062-1.84,9.938-4.214,14.83-6.495
			c12.261-5.72,20.918-14.239,25.382-27.695c2.701-8.144,7.952-15.744,13.301-22.619c4.9-6.3,12.232-8.764,20.649-9
			c10.922-0.311,21.799-2.016,32.709-3.003c1.652-0.151,3.382,0.195,5.035,0.526c12.921,2.586,25.797,5.418,38.775,7.687
			c2.473,0.433,5.32-1.285,7.997-2.008l0.29-3.146c-5.843-3.415-11.836-6.598-17.482-10.306
			c-5.121-3.366-10.225-6.916-14.688-11.077c-7.838-7.312-14.798-15.586-22.819-22.673c-12.583-11.114-27.038-9.678-40.629-2.774
			c-8.258,4.198-15.667,10.575-22.464,17.018c-9.674,9.168-18.43,19.307-27.602,29.013c-3.484,3.685-7.283,4.872-12.705,3.934
			c-2.212-0.384-4.451-0.747-6.695-1.062c16.789-19.865,16.206-49.098,14.125-74.549c-2.771-33.839-8.658-67.316-17.724-100.029
			c0.343-1.102,0.689-2.204,1.032-3.305c2.505-8.013-10.028-11.412-12.518-3.452l-0.155,0.498c-0.461,0.392-0.856,0.849-1.183,1.358
			c6.597-10.408-5.533-60.139-9.25-72.065c-6.928-22.216-17.286-44.117-25.659-65.9c-1.068-2.783-4.015-6.149-6.299-4.235
			c-1.212,1.012-1.105,2.873-0.897,4.435c2.06,15.476,4.12,30.947,6.185,46.422c-8.282-13.158-11.236-37.079-24.072-44.733
			c-3.635,11.31,3.925,55.611,11.147,67.059c-6.071-9.629-9.348-21.881-21.429-24.395c-1.224,3.835-1.436,7.83-0.922,11.828
			c-1.138-0.653-2.432-0.983-3.75-0.747c-5.063,0.897-7.887,6.813-7.364,11.93c0.518,5.117,3.407,9.633,5.944,14.109
			c2.534,4.476,4.847,9.494,4.06,14.578c-4.565-6.626-9.135-13.248-13.701-19.874c-10.996,19.323,1.865,50.494-2.24,72.967
			c-1.983,10.849-10.645,33.154-6.981,43.705c-3.084-8.878-6.234-17.732-9.51-26.537c-3.427-9.205-9.058-17.581-13.586-26.381
			c-0.796-1.542-1.114-3.329-1.657-5.006c-0.93,0.795-1.856,1.591-2.787,2.387c0.792,3.182,1.583,6.365,2.375,9.551
			c-0.286,0.134-0.571,0.269-0.856,0.404c-4.317-5.851-9.16-11.387-12.844-17.609c-9.176-15.512-24.056-25.533-36.042-38.307
			c-19.637-20.922-39.963-41.196-59.85-61.885c-2.656-2.762-4.333-6.438-6.687-9.519c-1.273-1.665-3.023-2.966-5.761-5.582
			c-0.955,12.929,6.218,21.085,10.31,30.261c-0.571,0.367-1.146,0.734-1.718,1.102c-8.315-11.408-16.63-22.815-24.945-34.223
			c-0.677,0.343-1.354,0.686-2.028,1.028c-2.325,13.831,7.919,24.117,11.078,36.63C79,44.402,71.75,34.643,64.496,24.883
			l-2.032,1.383c1.179,20.718,12.391,37.055,23.868,53.456C79.653,73.382,72.986,67.05,66.324,60.718z"/>
	</g>
</g>
<g>
</g>
<g>
</g>
<g>
</g>
<g>
</g>
<g>
</g>
<g>
</g>
<g>
</g>
<g>
</g>
<g>
</g>
<g>
</g>
<g>
</g>
<g>
</g>
<g>
</g>
<g>
</g>
<g>
</g>
</svg>
