<?xml version="1.0" encoding="iso-8859-1"?>
<!-- Generator: Adobe Illustrator 16.0.0, SVG Export Plug-In . SVG Version: 6.00 Build 0)  -->
<!DOCTYPE svg PUBLIC "-//W3C//DTD SVG 1.1//EN" "http://www.w3.org/Graphics/SVG/1.1/DTD/svg11.dtd">
<svg version="1.1" id="Capa_1" xmlns="http://www.w3.org/2000/svg" xmlns:xlink="http://www.w3.org/1999/xlink" x="0px" y="0px"
	 width="591.818px" height="591.819px" viewBox="0 0 591.818 591.819" style="enable-background:new 0 0 591.818 591.819;"
	 xml:space="preserve">
<g>
	<g>
		<path d="M72.842,165.108c-21.648,14.072-53.558,90.315-56.3,98.087c-2.509,7.12-5.235,9.502-7.226,11.24
			c-0.641,0.559-1.191,1.041-1.652,1.604c-2.191,2.681-8.373,18.703-7.597,22.946c0.118,0.673,0.416,1.146,0.873,1.411l0.322,0.163
			h0.273c1.041,0,1.359-0.901,2.211-3.316c1.383-3.921,3.962-11.22,10.302-17.451c5.214-5.104,11.607-14.818,19.531-29.69
			c4.517-8.474,27.772-46.614,39.421-58.903l1.853-1.979c4.626-4.953,6.54-7.005,11.33-7.005c1.815,0,4.141,0.306,7.315,0.963
			c-6.385,12.154-14.684,30.216-17.911,42.901c-3.599,14.117-9.698,48.221-5.194,50.188l0.567,0.122c1.669,0,2.179-2.264,3.88-9.767
			c1.824-8.062,4.582-20.241,10.159-35.092c6.018-16.01,16.001-31.873,23.452-43.615c6.442,2.272,13.974,5.067,21.261,7.769
			c11.759,4.361,23.917,8.874,31.616,11.232c13.676,4.162,51.685,15.933,60.282,19.017c1.975,0.73,3.746,1.668,5.275,2.803
			c-11.979,5.496-21.252,13.383-29.809,25.337c-7.65-3.77-19.314-7.613-27.597-9.058c-2.436-0.4-5.308-0.604-8.544-0.604
			c-14.606,0-34.513,4.218-45.879,13.529c-14.402,7.524-21.171,31.608-22.901,38.809c-2.424,10.172-4.496,23.012-2.354,25.717
			c0.359,0.452,0.853,0.705,1.416,0.705c1.799-0.032,2.586-2.681,4.304-8.482c1.702-5.748,4.027-13.619,8.176-21.297
			c2.448-4.517,4.892-8.613,7.258-12.574c3.256-5.455,6.345-10.625,8.825-15.924c2.599,0.453,6.042-0.012,10.734-0.722
			c4.248-0.645,9.539-1.444,16.316-1.763c2.175-0.102,4.296-0.033,6.365,0.033c1.286,0.041,2.559,0.082,3.815,0.082
			c3.427,0,7.43-0.286,11.351-2.322c2.693,1.657,9.335,4.133,20.225,7.552c-2.828,5.239-5.483,10.816-8.095,17.014
			c-4.562,10.89-7.328,22.318-8.229,33.995c-0.122-0.049-0.245-0.094-0.367-0.139c-3.533-1.105-8.674-1.738-14.101-1.738
			c-5.496,0-13.811,0.641-22.297,3.692c-5.998,0.747-34.672,23.766-37.548,28.282c-2.701,4.252-1.473,8.924-1.041,10.233
			c-0.542,1.889-2.742,11.102,1.061,25.059c2.338,8.593,16.487,41.792,21.379,41.792c0,0,0,0,0.004,0
			c0.506-0.062,0.938-0.326,1.249-0.763c1.448-2.073-0.062-8.829-2.856-20.592c-1.041-4.357-2.114-8.866-2.885-12.849
			c-1.012-5.255-1.159-10.159-1.289-14.492c-0.192-6.434-0.347-11.579-3.084-15.291c7.136-12.689,27.348-27.1,30.073-29.005
			c1.139,0.11,4.651,0.412,8.923,0.412c2.832,0,5.438-0.135,7.756-0.404c4.472,3.672,11.363,7.731,11.702,7.932l4.969,2.603
			c2.693,26.655,13.827,48.353,38.311,74.738c37.675,40.551,59.801,59.943,83.665,60.449h0.021h0.021
			c23.864-0.506,45.985-19.895,83.664-60.449c24.484-26.386,35.614-48.083,38.312-74.738l5.015-2.627
			c0.298-0.176,7.188-4.235,11.656-7.907c2.317,0.266,4.925,0.404,7.756,0.404c4.271,0,7.78-0.302,8.923-0.412
			c2.726,1.905,22.938,16.319,30.074,29.005c-2.738,3.712-2.893,8.857-3.085,15.291c-0.13,4.333-0.277,9.237-1.289,14.492
			c-0.771,3.982-1.844,8.491-2.885,12.849c-2.799,11.763-4.309,18.519-2.855,20.592c0.306,0.437,0.742,0.701,1.432,0.771
			c4.708,0,18.862-33.207,21.2-41.8c3.802-13.957,1.604-23.17,1.061-25.059c0.433-1.31,1.66-5.981-1.041-10.233
			c-2.876-4.517-31.55-27.54-37.548-28.282c-8.486-3.052-16.802-3.692-22.297-3.692c-5.427,0-10.567,0.633-14.129,1.746
			c-0.11,0.041-0.225,0.082-0.339,0.127c-0.901-11.673-3.664-23.101-8.229-33.995c-2.615-6.198-5.268-11.775-8.095-17.014
			c10.89-3.415,17.531-5.896,20.225-7.552c3.921,2.036,7.923,2.322,11.351,2.322c1.257,0,2.525-0.041,3.814-0.082
			c2.069-0.065,4.183-0.135,6.365-0.033c6.776,0.322,12.064,1.118,16.315,1.762c4.688,0.71,8.132,1.179,10.734,0.722
			c2.481,5.3,5.569,10.465,8.825,15.924c2.366,3.962,4.814,8.058,7.259,12.571c4.149,7.678,6.475,15.553,8.176,21.297
			c1.718,5.802,2.501,8.449,4.333,8.482c0.535,0,1.028-0.253,1.388-0.706c2.138-2.709,0.069-15.545-2.354-25.721
			c-1.729-7.201-8.499-31.281-22.729-38.694c-11.538-9.425-31.444-13.644-46.051-13.644c-3.235,0-6.108,0.204-8.552,0.604
			c-8.271,1.44-19.939,5.284-27.589,9.054c-8.556-11.955-17.83-19.845-29.812-25.337c1.533-1.13,3.301-2.073,5.271-2.799
			c8.605-3.089,46.618-14.859,60.291-19.021c7.698-2.358,19.856-6.871,31.615-11.232c7.287-2.705,14.819-5.496,21.261-7.768
			c7.45,11.742,17.435,27.605,23.452,43.615c5.577,14.847,8.336,27.03,10.159,35.092c1.701,7.503,2.212,9.768,3.88,9.768l0.56-0.118
			c4.508-1.967-1.592-36.071-5.186-50.188c-3.228-12.681-11.522-30.747-17.911-42.897c3.166-0.657,5.495-0.963,7.315-0.963
			c4.794,0,6.707,2.048,11.325,7.001l1.856,1.979c11.648,12.289,34.905,50.424,39.422,58.903
			c7.923,14.875,14.316,24.586,19.53,29.69c6.345,6.234,8.923,13.534,10.302,17.454c0.854,2.416,1.172,3.317,2.212,3.317
			l0.359-0.024l0.24-0.139c0.457-0.266,0.755-0.743,0.873-1.416c0.771-4.243-5.406-20.265-7.597-22.95
			c-0.461-0.559-1.012-1.044-1.652-1.604c-1.987-1.742-4.713-4.125-7.226-11.241c-2.742-7.768-34.651-84.015-56.309-98.091
			c-0.938-0.604-2.26-0.901-4.026-0.901c-3.782,0-9.314,1.367-15.174,2.815c-3.04,0.755-6.173,1.53-9.217,2.154
			c-2.342-9.433-15.553-42.885-33.016-42.885c-4.129,0-8.205,1.856-12.113,5.52c-14.794,2.109-36.667,12.236-61.661,28.548
			c-3.945,2.57-7.556,5.014-10.877,7.271c-12.302,8.332-20.869,14.154-27.671,13.293l-0.946-0.445
			c-0.894-1.338-1.343-1.963-1.681-2.293c3.157-1.159,7.531-3.231,10.285-6.5c6.145-7.152,2.832-25.851-0.693-35.957
			c-0.596-1.709-1.13-3.386-1.645-4.998c-2.407-7.52-4.483-14.011-10.155-16.756c-1.105-0.539-2.745-0.816-4.867-0.816
			c-4.998,0-12.117,1.567-14.162,3.664c-0.477,0.49-0.714,1.02-0.701,1.583c0.062,2.248,2.085,3.452,4.423,4.839
			c2.619,1.555,5.871,3.488,8.466,7.564c1.868,2.954,3.855,8.074,5.605,12.591c0.841,2.162,1.62,4.182,2.317,5.773
			c1.355,3.048,3.733,11.857,1.588,15.553c-1.273,2.13-3.954,3.26-6.202,3.855c-1.248-1.706-2.954-3.133-5.186-4.337
			c-2.216-1.2-4.594-1.812-7.059-1.812c-3.072,0-5.495,0.942-6.617,1.477c-2.081-1.795-9.764-7.752-20.245-7.752
			c-0.449,0-0.86,0.033-1.272,0.065l-0.498,0.045l-0.608-0.045c-0.412-0.033-0.82-0.065-1.273-0.065
			c-10.481,0-18.164,5.957-20.245,7.752c-1.122-0.535-3.546-1.477-6.618-1.477c-2.464,0-4.847,0.608-7.058,1.808
			c-2.236,1.208-3.941,2.635-5.186,4.341c-2.248-0.596-4.928-1.726-6.197-3.843c-2.15-3.705,0.229-12.513,1.587-15.565
			c0.694-1.583,1.473-3.603,2.313-5.765c1.75-4.517,3.737-9.637,5.606-12.587c2.595-4.076,5.851-6.014,8.466-7.564
			c2.338-1.387,4.362-2.591,4.423-4.843c0.012-0.559-0.224-1.089-0.702-1.579c-2.044-2.097-9.164-3.664-14.162-3.664
			c-2.126,0-3.762,0.273-4.868,0.812c-5.675,2.75-7.748,9.241-10.155,16.761c-0.514,1.616-1.053,3.289-1.645,4.998
			c-3.525,10.11-6.838,28.809-0.702,35.953c2.762,3.276,7.128,5.349,10.286,6.503c-0.334,0.331-0.779,0.951-1.677,2.293
			l-0.942,0.461c-6.838,0.861-15.378-4.957-27.667-13.289c-3.325-2.252-6.936-4.7-10.881-7.271
			c-24.994-16.312-46.867-26.438-61.661-28.548c-3.909-3.664-7.985-5.52-12.114-5.52c-17.458,0-30.673,33.452-33.015,42.885
			c-3.044-0.625-6.177-1.399-9.217-2.15c-5.859-1.448-11.387-2.815-15.173-2.815C75.11,164.203,73.792,164.5,72.842,165.108z
			 M141.1,144.941c19.462,17.997,43.86,31.628,54.721,36.014c5.847,2.358,13.831,5.039,20.873,7.401
			c6.492,2.179,13.203,4.435,14.199,5.165c1.546,1.13,4.227,4.558,5.43,6.145c-1.436,3.37-2.558,6.597-3.427,9.825
			c-0.665-0.171-1.407-0.437-2.138-0.686c-3.586-1.22-7.993-3.289-14.019-6.157c-5.202-2.477-11.681-5.561-19.886-9.16
			c-3.097-1.354-6.585-2.729-10.322-4.096c-18.797-6.887-44.615-13.672-66.696-17.393c-0.551-0.094-1.118-0.196-1.665-0.286
			c4.961-8.69,14.986-25.684,22.269-26.675C140.66,145.006,140.884,144.941,141.1,144.941z M363.312,192.702
			c2.191-1.612,23.399-7.895,35.297-12.693c11.885-4.798,35.928-18.646,54.684-36.071c7.883-0.632,18.385,16.989,24.962,28.547
			c-26.096,4.121-60.147,13.305-79.883,21.938c-20.738,9.094-30.27,14.831-37.193,16.292c-1.012-4.015-2.366-7.744-3.859-11.188
			C358.213,198.328,361.44,194.072,363.312,192.702z"/>
	</g>
</g>
<g>
</g>
<g>
</g>
<g>
</g>
<g>
</g>
<g>
</g>
<g>
</g>
<g>
</g>
<g>
</g>
<g>
</g>
<g>
</g>
<g>
</g>
<g>
</g>
<g>
</g>
<g>
</g>
<g>
</g>
</svg>
