<?xml version="1.0" encoding="iso-8859-1"?>
<!-- Generator: Adobe Illustrator 16.0.0, SVG Export Plug-In . SVG Version: 6.00 Build 0)  -->
<!DOCTYPE svg PUBLIC "-//W3C//DTD SVG 1.1//EN" "http://www.w3.org/Graphics/SVG/1.1/DTD/svg11.dtd">
<svg version="1.1" id="Capa_1" xmlns="http://www.w3.org/2000/svg" xmlns:xlink="http://www.w3.org/1999/xlink" x="0px" y="0px"
	 width="577.929px" height="577.928px" viewBox="0 0 577.929 577.928" style="enable-background:new 0 0 577.929 577.928;"
	 xml:space="preserve">
<g>
	<g>
		<path d="M10.522,354.717c6.772-0.208,15.663,0.433,17.43-8.433c2.57-12.909,11.249-18.393,22.354-21.355
			c6.76-1.803,13.868-2.492,20.869-3.178c11.869-1.163,22.697-4.256,30.894-13.688c1.257-1.444,2.835-2.623,4.986-4.276
			c0.371-0.285,1.036-0.624,1.485-0.754c0.478-0.139,0.951-0.278,1.428-0.417c0.449-0.13,0.996,0.099,1.224,0.507
			c3.187,5.765,6.54,10.779,8.303,16.291c2.272,7.095-2.272,12.113-8.511,14.606c-10.449,4.178-21.363,7.213-31.755,11.514
			c-10.098,4.178-19.979,8.996-29.556,14.264c-3.244,1.783-5.479,5.397-8.078,8.352c-0.31,0.351-0.2,0.723,0.253,0.837
			c0.457,0.114,0.918,0.229,1.375,0.347c0.453,0.114,0.795,0.583,0.759,1.049c-0.331,4.463-0.665,8.951-1.028,13.863
			c-0.033,0.465,0.282,0.686,0.698,0.474c8.205-4.252,14.121-13.591,23.856-13.007c0.469,0.028,0.747,0.44,0.628,0.894
			c-2.44,9.221-4.811,18.164-7.173,27.103c-0.118,0.453,0.13,0.976,0.555,1.167l0.857,0.384c0.428,0.191,1.11,0.171,1.526-0.041
			c0.779-0.399,1.559-0.804,2.354-1.216c0.417-0.216,0.849-0.021,0.963,0.433c0.58,2.306,1.163,4.61,1.942,7.711
			c0.114,0.453,0.44,0.522,0.726,0.155c2.554-3.276,4.565-5.822,6.528-8.404c6.059-7.965,14.039-12.791,23.701-15.305
			c3.717-0.967,8.433-2.117,10.477-4.847c14.811-19.756,36.161-24.525,58.777-27.459c11.693-1.518,23.117-5.137,34.811-6.658
			c8.523-1.109,17.295-0.453,25.953-0.314c1.396,0.024,3.133,1.151,4.092,2.289c6.169,7.319,12.26,14.721,18.56,22.375
			c0.298,0.363,0.501,1.032,0.465,1.497c-0.09,1.135-0.134,2.293-0.134,3.468c0,0.755,0.028,1.51,0.077,2.261
			c0.029,0.469-0.314,0.897-0.779,0.967c-14.945,2.24-29.796,5.969-46.385,0.812c-13.721-4.269-29.821-3.95-44.301-1.828
			c-12.909,1.889-19.307,14.084-26.145,26.275c-0.229,0.407-0.053,0.632,0.4,0.497c8.56-2.509,15.7-4.598,24.198-7.087
			c0.449-0.13,0.698,0.123,0.559,0.571c-1.726,5.479-2.885,9.151-4.231,13.419c-0.139,0.445,0.098,0.67,0.535,0.502
			c8.792-3.431,16.912-6.602,25.006-9.763c0.437-0.172,0.967,0.024,1.183,0.44c0.212,0.408,0.424,0.812,0.641,1.22
			c0.216,0.416,0.094,0.983-0.282,1.265c-13.938,10.461-32.33,17.589-31.885,40.816c0.008,0.469,0.351,0.652,0.755,0.416
			c2.925-1.714,4.9-2.774,6.749-4.019c7.083-4.782,13.888-8.564,23.378-5.667c4.981,1.518,11.146-0.404,16.695-1.289
			c8.348-1.335,10.477,1.023,8.18,9.481c-1.273,4.684-2.33,9.429-3.468,14.149c-0.11,0.457,0.151,0.971,0.579,1.154
			c0.196,0.082,0.388,0.164,0.583,0.249c0.433,0.184,1.041,0.058,1.371-0.277c1.261-1.272,2.603-2.493,3.639-3.929
			c4.398-6.112,9.433-10.723,17.523-11.812c3.954-0.53,8.152-2.856,11.253-5.517c21.853-18.76,47.605-18.792,73.836-15.349
			c13.945,1.832,27.604,5.806,41.534,7.838c7.426,1.085,15.557,1.521,22.619-0.441c5.17-1.436,10.637-6.52,13.023-11.415
			c1.347-2.754-3.219-8.454-5.267-12.759c-0.462-0.967-1.539-1.636-2.293-2.477c-8.034-8.927-8.707-14.704-2.502-21.387
			c9.087-9.788,15.093-10.923,24.595-2.354c36.495,32.913,99.34,33.117,140.609,4.94c21.346-14.573,34.961-33.941,32.554-61.024
			c-1.566-17.605-9.759-31.832-26.667-39.238c-3.464-1.518-8.273-1.191-11.99-0.105c-1.041,0.302-0.841,6.402-0.457,9.755
			c1.053,9.245,2.501,18.441,3.79,27.658c0,0,2.782,57.475-58.242,53.24c-50.809-3.529-57.548-33.199-53.737-59.181
			c0.069-0.465,0.244-1.199,0.375-1.648c0.759-2.533,1.285-5.124,1.575-7.731c0.053-0.465,0.175-1.212,0.289-1.665
			c0.339-1.338,0.694-2.655,1.065-3.94c8.054-27.969,5.508-149.598-119.932-163.16c-123.506-13.35-128.288,12.322-138.516,27.275
			c-0.265,0.388-0.11,0.747,0.355,0.808l4.19,0.559c0.465,0.061,0.767,0.277,0.681,0.486c-0.086,0.208-0.449,0.62-0.804,0.922
			l-25.447,21.53c-0.359,0.302-0.673,0.926-0.673,1.391c0,1.542,0.232,4.664,2.146,4.664c1.962,0-2.387,3.28-6.622,5.169
			c-0.428,0.191-0.754,0.057-0.718-0.286c0.021-0.204,0.041-0.412,0.057-0.62c0.151-1.763,0.155-3.505,0.024-5.219
			c-0.037-0.465,0.012-1.216,0.114-1.672c1.713-7.899,2.762-21.159-1.469-40.421c-0.747-2.721-1.579-5.622-2.379-8.584
			c-0.122-0.453-0.212-0.869-0.2-0.935c0.008-0.061,0.016-0.114,0.016-0.114c0.526-3.284-0.653-5.994-2.586-7.858
			c-0.339-0.327-0.849-0.873-1.155-1.232c-1.477-1.722-3.276-2.346-5.353-1.807c-0.453,0.118-1.187,0.277-1.648,0.359
			c-2.134,0.363-4.01,1.616-5.002,3.941c-0.184,0.433-0.547,1.077-0.857,1.428c-4.765,5.414-8.698,11.824-14.19,19.4
			c-0.273,0.38-0.555,0.31-0.625-0.155c-1.199-8.16-1.803-14.733-3.296-21.098c-0.396-1.697-0.885-3.375-1.412-5.039
			c-0.139-0.445-0.208-1.187-0.2-1.652c0.029-1.844-0.583-3.427-1.599-4.688c-0.294-0.363-0.694-0.987-0.853-1.428
			c-0.522-1.461-1.04-2.921-1.538-4.386c-0.151-0.445-0.6-0.616-1.008-0.387c-1.852,1.024-3.766,1.979-5.663,2.95
			c-0.416,0.212-1.118,0.494-1.55,0.681c-0.404,0.176-0.8,0.384-1.175,0.625c-0.392,0.253-1.016,0.681-1.424,0.914
			c-2.028,1.155-3.966,2.412-5.712,3.9c-10.269,8.76-15.467,20.963-18.217,33.734c-0.167,0.771-0.351,1.53-0.531,2.293
			c-0.449,1.628-0.865,3.268-1.24,4.92c-5.214,19.106-14.374,36.047-27.426,51.159c-6.214,7.193-7.882,15.622-8.662,24.99
			c-0.824,9.89-2.966,20.017-6.561,29.25c-0.257,0.661-0.53,1.314-0.799,1.971c-0.18,0.433-0.555,1.081-0.808,1.477
			c-0.314,0.498-0.591,1.048-0.824,1.648l-2.758,7.172c-5.227,11.628-11.024,23.037-15.725,34.873
			c-2.831,7.136-3.741,15.312-4.072,23.076C-0.253,349.998,3.852,354.921,10.522,354.717z"/>
	</g>
</g>
<g>
</g>
<g>
</g>
<g>
</g>
<g>
</g>
<g>
</g>
<g>
</g>
<g>
</g>
<g>
</g>
<g>
</g>
<g>
</g>
<g>
</g>
<g>
</g>
<g>
</g>
<g>
</g>
<g>
</g>
</svg>
