<?xml version="1.0" encoding="iso-8859-1"?>
<!-- Generator: Adobe Illustrator 16.0.0, SVG Export Plug-In . SVG Version: 6.00 Build 0)  -->
<!DOCTYPE svg PUBLIC "-//W3C//DTD SVG 1.1//EN" "http://www.w3.org/Graphics/SVG/1.1/DTD/svg11.dtd">
<svg version="1.1" id="Capa_1" xmlns="http://www.w3.org/2000/svg" xmlns:xlink="http://www.w3.org/1999/xlink" x="0px" y="0px"
	 width="187.057px" height="187.057px" viewBox="0 0 187.057 187.057" style="enable-background:new 0 0 187.057 187.057;"
	 xml:space="preserve">
<g>
	<path d="M85.951,53.136c-0.643,0.703-2.725-7.563-2.725-7.563s1.172,20.082-3.188,22.192c-4.98,2.399-27.453-6.062-27.535-12.66
		c-0.073-6.588,9.74-15.588,9.84-15.762S-3.021,50.137,0.109,110.273c0.978-1.126,42.7-41.893,43.784,22.312
		c1.477-1.998,32.598-45.903,49.395,15.131c0.387-4.323,12.492-63.439,46.372-14.693c-0.243-3.105-2.223-62.952,47.276-22.194
		c0.012-3.124,5.761-50.927-63.632-71.484c2.776,1.903,11.752,6.969,7.867,13.792c-3.891,6.829-10.126,16.106-25.403,15.022
		c-4.598-0.558-3.91-20.316-3.77-22.585c0,0-1.79,8.123-2.274,7.563C98.065,51.291,88.636,50.161,85.951,53.136z"/>
</g>
<g>
</g>
<g>
</g>
<g>
</g>
<g>
</g>
<g>
</g>
<g>
</g>
<g>
</g>
<g>
</g>
<g>
</g>
<g>
</g>
<g>
</g>
<g>
</g>
<g>
</g>
<g>
</g>
<g>
</g>
</svg>
