<?xml version="1.0" encoding="iso-8859-1"?>
<!-- Generator: Adobe Illustrator 16.0.0, SVG Export Plug-In . SVG Version: 6.00 Build 0)  -->
<!DOCTYPE svg PUBLIC "-//W3C//DTD SVG 1.1//EN" "http://www.w3.org/Graphics/SVG/1.1/DTD/svg11.dtd">
<svg version="1.1" id="Capa_1" xmlns="http://www.w3.org/2000/svg" xmlns:xlink="http://www.w3.org/1999/xlink" x="0px" y="0px"
	 width="187.059px" height="187.06px" viewBox="0 0 187.059 187.06" style="enable-background:new 0 0 187.059 187.06;"
	 xml:space="preserve">
<g>
	<path d="M100.41,67.562c-4.548-2.25-9.624-1.988-12.954,0c-2.463-1.939-6.11-9.703-6.11-12.172
		c-0.375,1.199-3.082,7.179-2.798,14.355c-18.712,0-35.125-11.947-35.125-20.034C37.823,50.285,12.763,59.114,0,77.302
		c23.595-1.178,34.836,10.424,40.922,28.649c38.24-12.668,52.138,28.376,52.138,31.396c0-2.716,15.235-44.421,52.142-31.64
		c6.431-12.044,16.307-32.896,41.857-27.596c-5.347-9.116-26.287-26.734-40.798-28.214c-2.637,3.611-12.19,20.301-37.753,19.723
		c0.487-3.194-1.814-12.37-2.898-14.224C104.922,57.99,102.736,65.468,100.41,67.562z"/>
</g>
<g>
</g>
<g>
</g>
<g>
</g>
<g>
</g>
<g>
</g>
<g>
</g>
<g>
</g>
<g>
</g>
<g>
</g>
<g>
</g>
<g>
</g>
<g>
</g>
<g>
</g>
<g>
</g>
<g>
</g>
</svg>
