<?xml version="1.0" encoding="iso-8859-1"?>
<!-- Generator: Adobe Illustrator 16.0.0, SVG Export Plug-In . SVG Version: 6.00 Build 0)  -->
<!DOCTYPE svg PUBLIC "-//W3C//DTD SVG 1.1//EN" "http://www.w3.org/Graphics/SVG/1.1/DTD/svg11.dtd">
<svg version="1.1" id="Capa_1" xmlns="http://www.w3.org/2000/svg" xmlns:xlink="http://www.w3.org/1999/xlink" x="0px" y="0px"
	 width="32px" height="32px" viewBox="0 0 32 32" style="enable-background:new 0 0 32 32;" xml:space="preserve">
<g>
	<path d="M27.234,20.393c-0.846,0,1.691-1.27,0.931-2.58c0.592-0.297,3.468-5.33-2.411-7.275C24.4,10.03,19.62,10.283,20.466,0.85
		c-3.51-0.295-6.132,8.756-6.132,8.756s-2.876,0.932-6.049-5.033c-4.271,9.68,1.511,15.431,4.7,17.717
		c-0.66-0.254-1.079-0.38-1.024-0.317c-0.135,0.02-0.26,0.063-0.371,0.13c-2.777-1.645-5.18-3.864-5.997-5.197
		c-0.348-0.568-0.563-2.165-0.788-3.854c-0.264-1.963-0.557-4.148-1.137-5.333C3.739,7.632,3.785,7.524,3.78,7.404
		C3.771,7.147,3.558,6.946,3.3,6.955c-0.256,0.008-0.457,0.223-0.449,0.48c0.008,0.256,0.224,0.457,0.48,0.448
		c0.044-0.001,0.083-0.017,0.124-0.029c0.55,1.141,0.84,3.295,1.099,5.23C4.792,14.875,5,16.422,5.375,17.035
		c0.745,1.215,2.767,3.146,5.193,4.729c-1.692-0.424-8.488-2.301-9.866-5.51c0.138-0.085,0.232-0.233,0.227-0.406
		C0.92,15.593,0.706,15.392,0.45,15.4C0.192,15.409-0.008,15.623,0,15.881c0.008,0.248,0.212,0.441,0.459,0.445
		c1.583,3.786,10.039,5.689,10.408,5.771l0.466,0.227c-0.145,0.178-0.232,0.403-0.224,0.65c0.018,0.542,0.473,0.969,1.015,0.95
		c0.395-0.014,0.726-0.259,0.871-0.6c0.296,0.375,0.948,1.067,2.15,1.706c1.745,0.927,5.713,1.431,6.231,6.127
		c0.062-0.788,0.636-2.732-2.154-5.179c1.512,0.803,2.941,1.448,3.4,1.309c2.961-2.285,6.091,1.353,8.544-1.861
		C33.621,22.211,30.153,19.377,27.234,20.393z"/>
</g>
<g>
</g>
<g>
</g>
<g>
</g>
<g>
</g>
<g>
</g>
<g>
</g>
<g>
</g>
<g>
</g>
<g>
</g>
<g>
</g>
<g>
</g>
<g>
</g>
<g>
</g>
<g>
</g>
<g>
</g>
</svg>
