<?xml version="1.0" encoding="iso-8859-1"?>
<!-- Generator: Adobe Illustrator 16.0.0, SVG Export Plug-In . SVG Version: 6.00 Build 0)  -->
<!DOCTYPE svg PUBLIC "-//W3C//DTD SVG 1.1//EN" "http://www.w3.org/Graphics/SVG/1.1/DTD/svg11.dtd">
<svg version="1.1" id="Capa_1" xmlns="http://www.w3.org/2000/svg" xmlns:xlink="http://www.w3.org/1999/xlink" x="0px" y="0px"
	 width="577.714px" height="577.714px" viewBox="0 0 577.714 577.714" style="enable-background:new 0 0 577.714 577.714;"
	 xml:space="preserve">
<g>
	<g>
		<path d="M577.23,65.046c-3.578,3.798-6.85,7.12-9.955,10.592c-20.197,22.587-44.395,38.866-74.451,44.472
			c-16.365,3.052-33.244,3.236-49.744,5.7c-55.203,8.246-92.787,37.597-109.258,92.098c-4.289,14.19-8.857,28.389-14.701,41.979
			c-4.932,11.473-11.896,22.073-18.332,33.729c-3.328-4.284-5.422-6.972-7.588-9.759c2.615-5.573,3.855-10.91-0.355-15.594
			c-0.281-14.488,1.873-28.78,6.238-42.326c3.641-9.49,8.348-18.547,14.432-27.009c5.703-7.932,13.852-14.109,20.91-21.065
			c4.553-4.488,9.881-8.47,10.982-16.569c-6.678,0.131-10.443,3.268-13.541,7.214c-25.365,23.647-40.441,56.479-42.081,90.886
			c-0.024-0.053-0.049-0.106-0.069-0.163c-3.256-31.122-17.291-60.364-39.523-82.331c-0.971-1.558-1.93-3.125-2.901-4.675
			c-3.542-5.626-7.487-10.526-15.635-9.784c1.159,3.88,2.64,7.544,5.239,10.041c4.7,4.521,10.514,7.907,15.084,12.534
			c19.584,19.849,28.136,45.096,34.146,71.494c0.049,0.212,0.098,0.42,0.147,0.628c0.306,2.477,0.539,4.97,0.702,7.471
			c-0.441,1.522-1.477,2.974-3.538,4.333c-1.848,1.22-2.888,6.43-1.86,8.719c2.987,6.634-0.967,9.857-4.904,14.439
			c-2.403-3.468-4.435-6.209-6.271-9.069c-13.207-20.555-20.567-43.493-27.43-66.684c-6.997-23.64-19.004-44.276-38.018-60.404
			c-24.949-21.167-54.545-30.719-86.533-31.673C72.73,122.901,34.994,106.279,5.81,70.824C4.146,68.8,1.95,67.213,0,65.422
			c4.766,34.757,17.41,65.194,42.069,89.895c-14.68,8.527-16.271,15.957-6.72,29.192c2.627,3.644,5.492,7.258,8.854,10.192
			c6.691,5.843,13.803,11.204,20.739,16.761c-8.552,6.94-9.621,12.187-1.746,20.277c8.964,9.208,19.205,17.173,29.115,25.875
			c-4.745,9.625-3.35,15.847,7.132,22.163c6.042,3.639,12.84,7.532,19.601,8.185c18.646,1.804,37.454,2.696,56.193,2.583
			c20.465-0.127,40.625,1.048,60.425,6.564c-3.631,0.396-7.221,0.15-10.816,0.004c-21.917-0.89-43.444,1.171-64.28,8.486
			c-37.475,13.149-58.111,42.729-56.071,80.404c0.775,14.338,8.637,19.833,22.444,15.717c1.897-0.567,3.831-1.008,4.59-1.208
			c1.763,8.911,2.248,17.846,5.39,25.721c4.357,10.926,13.644,8.07,20.539,5.177c3.545,6.806,5.279,15.215,10.326,18.442
			c5.353,3.419,13.852,1.917,21.865,2.647c-3.296,17.527-9.045,33.999-24.129,45.455c-6.267,4.762-13.574,6.602-22.46,2.799
			c2.162-1.301,3.57-1.934,4.721-2.885c4.541-3.741,5.704-8.441,2.472-13.386c-3.264-4.994-8.254-5.468-13.386-3.166
			c-5.382,2.415-8.083,10.012-6.21,16.536c2.946,10.253,12.905,16.98,23.395,14.174c7.789-2.085,15.63-5.397,22.342-9.837
			c33.493-22.171,51.608-54.533,60.441-92.963c6.181-26.892,12.807-53.746,26.585-78.006c3.615-6.364,9.127-11.652,14.28-18.074
			c4.68,8.034,7.148,13.864,2.354,20.437c-1.306,1.792-1.897,4.554-1.82,6.839c0.551,16.364,0.898,32.766,2.346,49.062
			c0.469,5.268,4.039,10.262,6.912,17.091c2.733-3.753,4.374-5.238,5.067-7.074c8.217-21.706,9.801-44.162,3.361-66.239
			c-2.248-7.703-0.795-12.766,2.865-20.926c5.504,6.609,11.322,11.583,14.533,17.887c6.111,11.995,11.676,24.451,15.756,37.259
			c6.107,19.167,10.244,38.951,16.1,58.205c10.078,33.158,29.156,59.984,58.809,78.479c6.158,3.839,13.404,6.691,20.523,8.078
			c13.9,2.714,27.137-12.154,21.477-24.026c-1.754-3.681-7.168-6.749-11.428-7.654c-2.293-0.49-6.898,3.627-8.311,6.662
			c-2.285,4.917,0.203,9.185,5.295,11.6c0.738,0.352,1.195,1.294,1.938,2.134c-20.863,6.688-47.988-23.876-44.527-49.38
			c22.484,1.375,22.611,4.32,29.869-20.494c15.939,5.361,23.334,0.779,25.141-15.957c0.525-4.867,0.082-9.837,0.082-15.373
			c2.701,0.845,4.434,1.403,6.176,1.926c14.219,4.271,22.918-1.379,22.318-16.279c-0.473-11.746-1.656-24.112-5.826-34.937
			c-11.416-29.658-36.434-43.514-65.799-49.119c-19.355-3.697-39.363-3.958-58.164-5.676c9.277-1.313,19.838-3.77,30.471-4.112
			c20.66-0.661,41.357,0.077,62.035-0.176c15.039-0.184,29.58-2.962,42.48-11.334c10.441-6.773,12.098-12.767,6.818-23.787
			c4.557-3.109,9.299-6.026,13.676-9.417c4.604-3.566,9.441-7.104,13.09-11.542c3.395-4.129,6.691-9.229,7.469-14.296
			c0.482-3.125-3.83-6.985-6.041-10.6c12.811-7.809,24.664-17.132,32.346-30.666c5.834-10.273,3.432-17.226-7.123-22.587
			c-0.689-0.351-1.262-0.926-1.861-1.46c1.66-1.795,3.035-3.811,4.076-5.977C563.293,119.576,580.891,80.477,577.23,65.046z
			 M174.951,445.029c0.314-0.077,0.62-0.18,0.926-0.302c0.657,0.371,1.322,0.73,2,1.065
			C176.901,445.682,175.921,445.429,174.951,445.029z"/>
	</g>
</g>
<g>
</g>
<g>
</g>
<g>
</g>
<g>
</g>
<g>
</g>
<g>
</g>
<g>
</g>
<g>
</g>
<g>
</g>
<g>
</g>
<g>
</g>
<g>
</g>
<g>
</g>
<g>
</g>
<g>
</g>
</svg>
