<?xml version="1.0" encoding="iso-8859-1"?>
<!-- Generator: Adobe Illustrator 16.0.0, SVG Export Plug-In . SVG Version: 6.00 Build 0)  -->
<!DOCTYPE svg PUBLIC "-//W3C//DTD SVG 1.1//EN" "http://www.w3.org/Graphics/SVG/1.1/DTD/svg11.dtd">
<svg version="1.1" id="Capa_1" xmlns="http://www.w3.org/2000/svg" xmlns:xlink="http://www.w3.org/1999/xlink" x="0px" y="0px"
	 width="30.354px" height="30.354px" viewBox="0 0 30.354 30.354" style="enable-background:new 0 0 30.354 30.354;"
	 xml:space="preserve">
<g>
	<path d="M18.829,28.559c1.036-0.002,1.396,1.449,0.948,1.449c-0.446,0-1.979,0.004-2.239,0.004s-0.22-0.537-0.178-1.043
		c0.042-0.504-0.736-5.443-0.896-5.932c-0.158-0.488-1.062,0.025-4.854,0.053c-3.794,0.023-4.612-1.057-4.636-0.25
		c-0.025,0.808-0.47,1.795-0.281,2.334c0.188,0.537,0.514,3.019,0.795,3.459c0.743-0.078,1.225,1.271,0.744,1.271
		c-0.482,0-1.674,0.021-1.914,0.021c-0.241,0-0.121-0.623-0.102-0.979c0.021-0.355-0.717-2.32-1.084-2.861
		c-0.365-0.539-0.481-3.328-0.481-3.328s-2.383,2.455-2.449,2.846c-0.065,0.391-0.009,3.249-0.009,3.551
		c0.782,0.08,1.131,1.168,0.75,1.168c-0.381,0-1.688,0.031-1.979,0.031c-0.294,0-0.188-1.096-0.108-1.312
		c0.078-0.219-0.418-2.582-0.418-3.567c0-0.987,1.838-3.748,1.838-4.529c0-0.78-0.626-2.368-0.531-4
		c0.144-2.442,1.648-3.681,4.039-3.701c4.488-0.04,4.326,1.723,8.696,1.042c5.21-0.812,8.815-1.724,7.963-4.135
		c0,0-0.462-0.955-0.354-1.456c0.108-0.5,0.354-0.759,0.354-0.759s-6.435-5.003-10.544-5.933c0.5-1.286,6.541,1.394,6.541,1.394
		S17.083,1.431,12.83,0.18c4.539-1.537,10.687,7.292,10.687,7.292s3.697,1.362,6.381,6.438c0.143,1.395-0.587,1.697-1.312,1.508
		c-0.724-0.189-1.291-0.812-2.176-0.644c-0.785,0.147-3.99,4.343-3.941,5.101c0.05,0.756,0.951,4.11,1.097,4.588
		c0.183,0.602-0.289,1.957-0.278,2.268c0.01,0.311,0.269,0.346,0.44,0.885c0.17,0.537,0.118,1.483-0.604,1.645
		c-0.55-0.551-1.099-1.098-1.328-1.327c-0.229-0.229,0.316-0.61,0.348-0.759c0.029-0.148,0.17-1.836-0.189-2.52
		c-0.363-0.683-2.047-2.938-2.047-2.938s-1.5,2.136-1.438,3.291C18.558,25.789,18.731,28.322,18.829,28.559z"/>
</g>
<g>
</g>
<g>
</g>
<g>
</g>
<g>
</g>
<g>
</g>
<g>
</g>
<g>
</g>
<g>
</g>
<g>
</g>
<g>
</g>
<g>
</g>
<g>
</g>
<g>
</g>
<g>
</g>
<g>
</g>
</svg>
