<?xml version="1.0" encoding="iso-8859-1"?>
<!-- Generator: Adobe Illustrator 18.0.0, SVG Export Plug-In . SVG Version: 6.00 Build 0)  -->
<!DOCTYPE svg PUBLIC "-//W3C//DTD SVG 1.1//EN" "http://www.w3.org/Graphics/SVG/1.1/DTD/svg11.dtd">
<svg version="1.1" id="Capa_1" xmlns="http://www.w3.org/2000/svg" xmlns:xlink="http://www.w3.org/1999/xlink" x="0px" y="0px"
	 viewBox="0 0 491.837 491.837" style="enable-background:new 0 0 491.837 491.837;" xml:space="preserve">
<path id="XMLID_561_" d="M452.142,180.925c-7.625-26.702-31.114-43.952-59.83-43.952c-25.022,0-45.143,8.354-59.795,24.824
	c-23.103,25.956-31.779,70.469-27.207,141.523c-0.643-0.691-1.088-1.51-1.809-2.125c-8.404-7.095-20.461-7.767-29.598-1.676
	l-28.841,19.277c-27.784-52.48-42.626-111.092-42.737-170.659c46.203-16.142,88.813-64.807,88.813-64.807
	s-6.842-7.775-17.875-18.094l21.966-55.895c0.991-2.532,0.382-5.416-1.542-7.339c-1.922-1.927-4.789-2.526-7.326-1.525
	l-65.987,25.94c-14.734-7.727-30.394-13.147-45.627-13.147c-15.231,0-30.877,5.42-45.606,13.147L63.154,0.478
	c-2.537-1-5.404-0.401-7.331,1.525c-1.94,1.923-2.528,4.807-1.538,7.339L76.25,65.231C65.219,75.556,58.373,83.332,58.373,83.332
	s42.632,48.671,88.816,64.815c-0.113,59.902-14.811,118.06-42.728,170.659L75.623,299.52c-9.137-6.109-21.194-5.434-29.591,1.676
	c-8.384,7.101-11.063,18.894-6.548,28.914l50.681,112.477H68.088c-13.596,0-24.621,11.024-24.621,24.627
	c0,13.6,11.025,24.624,24.621,24.624h60.187c5.817,0,11.286-2.165,15.657-5.786c9.684,3.383,20.029,5.287,30.836,5.287
	c10.801,0,21.144-1.904,30.826-5.287c4.376,3.621,9.844,5.786,15.666,5.786h60.181c13.595,0,24.62-11.024,24.62-24.624
	c0-13.603-11.025-24.627-24.62-24.627h-0.289c13.977-5.184,27.718-12.873,38.699-24.398c18.244-19.143,25.651-44.626,21.997-75.759
	c-9.879-84.256-4.907-136.206,15.201-158.812c8.385-9.418,19.588-13.811,35.264-13.811c20.895,0,26.908,15.408,28.252,20.137
	c2.325,8.118,1.572,19.75-8.191,25.819c-7.695,4.786-10.053,14.909-5.279,22.604c4.797,7.72,14.9,10.077,22.627,5.275
	C450.205,230.904,459.216,205.702,452.142,180.925z M296.158,395.478c-6.156,6.486-13.951,11.222-22.223,14.758l34.053-75.573
	c0.402,3.832,0.786,7.629,1.25,11.588C311.724,367.478,307.443,383.575,296.158,395.478z"/>
<g>
</g>
<g>
</g>
<g>
</g>
<g>
</g>
<g>
</g>
<g>
</g>
<g>
</g>
<g>
</g>
<g>
</g>
<g>
</g>
<g>
</g>
<g>
</g>
<g>
</g>
<g>
</g>
<g>
</g>
</svg>
