<?xml version="1.0" standalone="no"?>
<!DOCTYPE svg PUBLIC "-//W3C//DTD SVG 20010904//EN"
 "http://www.w3.org/TR/2001/REC-SVG-20010904/DTD/svg10.dtd">
<svg version="1.0" xmlns="http://www.w3.org/2000/svg"
 width="980.000000pt" height="980.000000pt" viewBox="0 0 980.000000 980.000000"
 preserveAspectRatio="xMidYMid meet">
<metadata>
Created by potrace 1.15, written by Peter Selinger 2001-2017
</metadata>
<g transform="translate(0.000000,980.000000) scale(0.100000,-0.100000)"
fill="#000000" stroke="none">
<path d="M2655 9793 c-448 -31 -920 -187 -1315 -435 -346 -218 -680 -552 -898
-898 -181 -289 -316 -619 -380 -935 -61 -294 -57 -123 -57 -2610 0 -1806 3
-2291 13 -2375 82 -662 378 -1262 848 -1721 459 -447 1032 -721 1674 -801 84
-10 567 -13 2360 -13 2125 0 2263 1 2390 18 628 85 1183 351 1628 781 513 496
815 1136 872 1850 14 176 14 4316 0 4492 -57 707 -354 1344 -856 1835 -486
474 -1090 751 -1769 809 -110 9 -4376 12 -4510 3z m4410 -1784 c413 -51 784
-360 905 -754 51 -168 50 -104 50 -2350 0 -2243 1 -2183 -50 -2347 -109 -353
-391 -630 -745 -733 -44 -12 -120 -28 -170 -34 -118 -14 -4180 -15 -4305 -1
-373 43 -698 275 -862 616 -54 113 -84 217 -98 344 -14 119 -13 4198 0 4307
23 179 89 354 187 492 61 85 189 213 276 275 136 96 317 165 482 185 111 13
4222 13 4330 0z"/>
<path d="M4033 5963 l-871 -1058 424 -3 424 -2 0 -890 0 -890 890 0 890 0 0
890 0 890 444 2 444 3 -880 1055 c-484 580 -883 1056 -887 1058 -3 1 -398
-474 -878 -1055z"/>
</g>
</svg>
