<?xml version="1.0" encoding="iso-8859-1"?>
<!-- Generator: Adobe Illustrator 16.0.0, SVG Export Plug-In . SVG Version: 6.00 Build 0)  -->
<!DOCTYPE svg PUBLIC "-//W3C//DTD SVG 1.1//EN" "http://www.w3.org/Graphics/SVG/1.1/DTD/svg11.dtd">
<svg version="1.1" id="Capa_1" xmlns="http://www.w3.org/2000/svg" xmlns:xlink="http://www.w3.org/1999/xlink" x="0px" y="0px"
	 width="38.439px" height="38.439px" viewBox="0 0 38.439 38.439" style="enable-background:new 0 0 38.439 38.439;"
	 xml:space="preserve">
<g>
	<g>
		<path d="M28.154,17.883c0.188-2.563-7.063-4.938-7.063-4.938s-0.151-1.979,0.875-2.688c-0.688-1.25-1.938,3.25-1.938,3.25
			s-0.688-0.938-1.688,0c-0.375,0-0.5-3.625-1.5-3.563c0.438,1.5,0.25,3.625,0.25,3.625s-5.5,1.688-6.375,3.75
			s1.75,9.75,8.375,10.063C25.715,27.696,27.967,20.446,28.154,17.883z"/>
		<path d="M27.051,14.846c0.471,0.188,1.229,1.381,1.572,1.381c0.343,0,4.688-3.406,5-4.344s0.002-1.141-0.404-1.828
			C32.156,10.68,26.582,14.658,27.051,14.846z"/>
		<path d="M28.158,8.289c0.809,0.625,2.59,2.844,2.59,2.844h0.125c0.668-0.388,1.812-1.375,2.312-1.344
			c0.5,0.031-4.72-9.063-10.375-7.875c4.562,1.688,5.03,4.031,3.75,4.781c-1.281,0.75-3.625-0.813-4.812-2.375
			C21.311,8.195,27.35,7.664,28.158,8.289z"/>
		<path d="M31.869,20.963c-0.729,0.356-1.424,0.642-1.963,0.756c-0.547,0.114-0.857,0.037-1.08-0.058
			c-0.115-0.054-0.145-0.067-0.266-0.138c-0.094-0.051-0.143-0.077-0.143-0.077l-0.852,1.81c0,0,0.053,0.021,0.148,0.059
			c0.064,0.025,0.32,0.125,0.578,0.186c0.262,0.064,0.6,0.102,0.971,0.084c0.369-0.025,0.756-0.119,1.129-0.254
			c0.738-0.279,1.439-0.711,2.15-1.191c0.357-0.24,0.715-0.496,1.072-0.758c0.404-0.299,0.703-0.531,1.076-0.893
			c0.354-0.334,0.656-0.674,0.938-1.031c0.291-0.35,0.545-0.713,0.779-1.068c0.473-0.713,0.854-1.406,1.15-2.01
			c0.596-1.211,0.881-2.059,0.881-2.059s-0.4,0.802-1.146,1.904c-0.375,0.548-0.836,1.17-1.379,1.785
			c-0.271,0.307-0.561,0.616-0.873,0.902c-0.305,0.291-0.645,0.576-0.973,0.81c-0.299,0.229-0.742,0.491-1.076,0.665
			C32.615,20.59,32.236,20.787,31.869,20.963z"/>
		<path d="M37.398,22.4c-0.162,0.162-0.4,0.281-0.643,0.431c-0.229,0.158-0.529,0.259-0.818,0.396
			c-0.295,0.133-0.631,0.226-0.961,0.345c-0.684,0.194-1.418,0.366-2.166,0.479c-1.492,0.236-3.014,0.307-4.104,0.254
			c-0.267-0.024-0.521-0.035-0.722-0.065c-0.17-0.031-0.448-0.068-0.389-0.076c-0.005,0-0.011,0.008-0.019,0.021
			c-0.004,0.02-0.091-0.049-0.117-0.062c-0.076-0.047-0.117-0.07-0.117-0.07l-1.006,1.729c0,0,0.045,0.02,0.129,0.053
			c0.058,0.021,0.063,0.031,0.188,0.068c0.121,0.037,0.264,0.074,0.426,0.105c0.391,0.077,0.523,0.034,0.822,0.045
			c0.27-0.002,0.545-0.037,0.859-0.062c1.221-0.14,2.775-0.472,4.283-0.97c0.754-0.241,1.49-0.547,2.16-0.862
			c0.328-0.183,0.652-0.33,0.939-0.519c0.282-0.194,0.564-0.346,0.787-0.553c0.227-0.195,0.443-0.354,0.592-0.555
			c0.146-0.191,0.312-0.322,0.379-0.49c0.158-0.301,0.248-0.473,0.248-0.473s-0.115,0.152-0.318,0.422
			C37.754,22.139,37.564,22.245,37.398,22.4z"/>
		<path d="M30.029,32.116c-0.109-0.311-0.188-0.656-0.35-0.968c-0.139-0.323-0.303-0.642-0.49-0.942
			c-0.725-1.235-1.719-2.254-2.418-2.996c-0.17-0.183-0.326-0.346-0.465-0.491c-0.125-0.138-0.26-0.286-0.26-0.306
			c-0.016-0.021-0.029-0.037-0.047-0.051c-0.025-0.051-0.051-0.093-0.066-0.125c-0.039-0.07-0.061-0.107-0.061-0.107l-1.689,1.07
			c0,0,0.025,0.031,0.078,0.094c0.023,0.031,0.057,0.07,0.096,0.115c0.062,0.065,0.141,0.146,0.225,0.231
			c0.197,0.2,0.334,0.286,0.512,0.426c0.172,0.125,0.361,0.265,0.57,0.416c0.811,0.589,1.877,1.343,2.715,2.31
			c0.221,0.235,0.414,0.488,0.588,0.75c0.199,0.25,0.314,0.531,0.471,0.793c0.121,0.271,0.225,0.545,0.312,0.81
			c0.057,0.271,0.125,0.526,0.158,0.771c0.014,0.248,0.023,0.475,0.035,0.675c0.006,0.202-0.037,0.376-0.047,0.522
			c-0.035,0.293-0.057,0.461-0.057,0.461s0.053-0.162,0.141-0.443c0.037-0.146,0.111-0.314,0.146-0.521
			c0.026-0.209,0.06-0.442,0.095-0.7c0.014-0.262-0.011-0.543-0.017-0.85C30.164,32.759,30.109,32.439,30.029,32.116z"/>
		<path d="M23.781,28.88c-0.051-0.202-0.098-0.389-0.139-0.555c-0.016-0.074-0.027-0.146-0.041-0.209
			c-0.018-0.072-0.025-0.129-0.016-0.117c0.006-0.004-0.01-0.01,0-0.11c0.002-0.064,0.004-0.103,0.004-0.103l-1.998,0.065
			c0,0,0.008,0.035,0.02,0.103c0.004,0.033,0.035,0.219,0.104,0.455c0.037,0.131,0.072,0.205,0.105,0.275
			c0.033,0.077,0.072,0.161,0.111,0.249c0.08,0.16,0.17,0.34,0.268,0.537c0.389,0.762,0.883,1.74,1.227,2.785
			c0.18,0.52,0.305,1.053,0.393,1.562c0.076,0.513,0.102,0.996,0.092,1.416c-0.025,0.416-0.057,0.771-0.117,1.013
			c-0.049,0.244-0.076,0.386-0.076,0.386s0.059-0.132,0.158-0.36c0.113-0.229,0.225-0.567,0.348-0.989
			c0.104-0.427,0.189-0.935,0.229-1.488c0.025-0.553,0.021-1.149-0.045-1.74C24.291,30.87,23.994,29.708,23.781,28.88z"/>
		<path d="M9.82,16.226c0.344,0,1.104-1.193,1.572-1.381c0.468-0.188-5.105-4.165-6.167-4.79c-0.407,0.687-0.718,0.89-0.405,1.828
			C5.132,12.821,9.477,16.226,9.82,16.226z"/>
		<path d="M7.57,11.133h0.125c0,0,1.781-2.219,2.59-2.844s6.848-0.094,6.41-3.969c-1.188,1.563-3.531,3.125-4.813,2.375
			c-1.281-0.75-0.812-3.094,3.75-4.781C9.977,0.726,4.758,9.82,5.258,9.789C5.758,9.758,6.904,10.745,7.57,11.133z"/>
		<path d="M2.029,18.389c0.236,0.355,0.49,0.719,0.779,1.068c0.282,0.357,0.586,0.695,0.94,1.032
			c0.373,0.358,0.67,0.594,1.074,0.891c0.359,0.263,0.715,0.519,1.072,0.759c0.713,0.479,1.414,0.912,2.153,1.19
			c0.373,0.136,0.757,0.229,1.127,0.254c0.371,0.019,0.712-0.019,0.97-0.082c0.26-0.062,0.516-0.159,0.58-0.187
			c0.098-0.038,0.147-0.059,0.147-0.059l-0.852-1.809c0,0-0.049,0.025-0.142,0.076c-0.121,0.068-0.149,0.084-0.264,0.137
			c-0.225,0.096-0.535,0.174-1.082,0.059c-0.539-0.114-1.232-0.397-1.963-0.756c-0.362-0.176-0.741-0.372-1.126-0.575
			c-0.332-0.174-0.777-0.438-1.074-0.665c-0.33-0.233-0.67-0.519-0.973-0.81c-0.314-0.286-0.603-0.596-0.873-0.902
			c-0.543-0.615-1.006-1.237-1.381-1.785C0.4,15.122,0,14.32,0,14.32s0.283,0.848,0.879,2.059
			C1.178,16.982,1.559,17.676,2.029,18.389z"/>
		<path d="M10.541,26.051c0.297-0.011,0.433,0.032,0.82-0.045c0.162-0.031,0.305-0.068,0.426-0.105
			c0.125-0.037,0.131-0.05,0.188-0.068c0.086-0.033,0.131-0.053,0.131-0.053L11.1,24.05c0,0-0.041,0.023-0.119,0.07
			c-0.027,0.013-0.111,0.078-0.117,0.062c-0.008-0.013-0.012-0.021-0.018-0.021c0.062,0.008-0.218,0.045-0.388,0.076
			c-0.201,0.03-0.455,0.041-0.721,0.065c-1.094,0.053-2.611-0.018-4.104-0.254c-0.75-0.113-1.483-0.285-2.168-0.479
			c-0.329-0.119-0.666-0.212-0.959-0.345c-0.291-0.139-0.59-0.237-0.821-0.396c-0.238-0.147-0.479-0.269-0.642-0.431
			c-0.164-0.155-0.354-0.262-0.438-0.405c-0.201-0.271-0.318-0.424-0.318-0.424s0.092,0.172,0.25,0.475
			c0.064,0.166,0.232,0.298,0.379,0.49c0.146,0.197,0.365,0.356,0.592,0.554c0.222,0.208,0.505,0.356,0.785,0.553
			c0.287,0.188,0.611,0.336,0.939,0.52c0.672,0.314,1.406,0.619,2.16,0.861c1.508,0.498,3.063,0.83,4.285,0.971
			C9.994,26.014,10.271,26.049,10.541,26.051z"/>
		<path d="M14.182,27.292c0.051-0.062,0.077-0.094,0.077-0.094l-1.69-1.07c0,0-0.021,0.037-0.057,0.106
			c-0.021,0.033-0.044,0.075-0.07,0.125c-0.017,0.015-0.031,0.029-0.047,0.052c0.002,0.02-0.133,0.168-0.256,0.306
			c-0.14,0.146-0.296,0.312-0.466,0.491c-0.698,0.742-1.694,1.761-2.42,2.996c-0.188,0.303-0.352,0.619-0.489,0.942
			c-0.16,0.312-0.238,0.657-0.351,0.968c-0.078,0.323-0.133,0.645-0.176,0.94c-0.006,0.305-0.027,0.588-0.016,0.849
			c0.034,0.258,0.065,0.492,0.096,0.701c0.031,0.206,0.106,0.377,0.145,0.521c0.088,0.283,0.14,0.443,0.14,0.443
			s-0.021-0.169-0.056-0.462c-0.01-0.146-0.053-0.319-0.045-0.521c0.011-0.2,0.021-0.428,0.033-0.674
			c0.033-0.244,0.105-0.502,0.158-0.771c0.092-0.264,0.193-0.537,0.313-0.809c0.156-0.262,0.271-0.545,0.472-0.795
			c0.172-0.263,0.367-0.514,0.586-0.748c0.838-0.967,1.906-1.721,2.715-2.311c0.209-0.15,0.402-0.291,0.572-0.416
			c0.178-0.14,0.312-0.226,0.512-0.426c0.084-0.088,0.158-0.166,0.225-0.232C14.125,27.364,14.156,27.325,14.182,27.292z"/>
		<path d="M14.857,27.889c0.01,0.104-0.008,0.106,0,0.11c0.01-0.012,0.002,0.045-0.015,0.117c-0.014,0.063-0.026,0.135-0.043,0.209
			c-0.041,0.166-0.086,0.353-0.137,0.555c-0.215,0.828-0.512,1.988-0.627,3.173c-0.063,0.591-0.07,1.188-0.043,1.739
			c0.039,0.557,0.127,1.062,0.23,1.488c0.12,0.424,0.229,0.764,0.346,0.99c0.1,0.229,0.156,0.36,0.156,0.36
			s-0.027-0.141-0.074-0.387c-0.063-0.238-0.092-0.596-0.119-1.011c-0.008-0.421,0.018-0.905,0.092-1.416
			c0.09-0.511,0.213-1.044,0.394-1.562c0.342-1.046,0.836-2.023,1.227-2.785c0.098-0.197,0.188-0.377,0.269-0.537
			c0.038-0.088,0.075-0.172,0.11-0.249c0.031-0.069,0.066-0.146,0.104-0.276c0.069-0.235,0.102-0.42,0.106-0.453
			c0.013-0.066,0.019-0.104,0.019-0.104l-1.998-0.064C14.854,27.787,14.854,27.823,14.857,27.889z"/>
	</g>
</g>
<g>
</g>
<g>
</g>
<g>
</g>
<g>
</g>
<g>
</g>
<g>
</g>
<g>
</g>
<g>
</g>
<g>
</g>
<g>
</g>
<g>
</g>
<g>
</g>
<g>
</g>
<g>
</g>
<g>
</g>
</svg>
