<?xml version="1.0" encoding="iso-8859-1"?>
<!-- Generator: Adobe Illustrator 18.0.0, SVG Export Plug-In . SVG Version: 6.00 Build 0)  -->
<!DOCTYPE svg PUBLIC "-//W3C//DTD SVG 1.1//EN" "http://www.w3.org/Graphics/SVG/1.1/DTD/svg11.dtd">
<svg version="1.1" id="Capa_1" xmlns="http://www.w3.org/2000/svg" xmlns:xlink="http://www.w3.org/1999/xlink" x="0px" y="0px"
	 viewBox="0 0 217.895 217.895" style="enable-background:new 0 0 217.895 217.895;" xml:space="preserve">
<path d="M201.655,12.571c-6.988-0.363-8.207-9.605-15.042-10.038c-3.592-0.223-10.392-0.538-16.303,1.612
	c-6.587-4.503-15.042-10.02-2.686,11.472c-2.685,14.497-11.641,55.158-21.136,55.328c-9.49,0.176-15.755-17.183-23.817-17.005
	c-8.062,0.172-8.062,0.172-8.062,0.172c-9.49,0-15.735-16.786-34.921-17.363c-12-0.36-21.492,20.763-48.179,23.09
	c-7.16,0.539-18.181,3.328-19.297,19.84c0,0-15.735,14.712-8.327,48.697c1.849-16.919,2.771-31.106,8.327-40.365
	c-0.414,9.238,2.469,18.202,0,27.773c-2.468,9.56-10.315,25.914-10.315,25.914s-1.719,3.396,2.602,15.122
	c4.318,11.72,12.958,40.759,12.958,40.759c0.441,5.097,1.158,7.783,4.739,10.115c-0.898,3.391-3.919,10.199,6.825,10.199
	c4.603,0.004,0,0,10.418,0c7.279,0,4.91-6.256-6.846-11.995c0.358-4.295-2.326-8.777-4.119-9.675
	c-4.294-10.924-9.847-31.851-9.847-31.851S16.652,146.095,23.46,140c6.806-6.081,15.029-11.804,20.584-32.042
	c0.175-1.438,9.491,7.167,28.12,12.534c18.625,5.382,32.911-0.363,34.992,0.536c2.08,0.902,6.558,11.817,6.558,22.393
	c0,10.563-3.76,17.547-3.76,21.666c0,4.119,3.045,11.282,3.045,11.282s1.789,19.698-0.537,30.806
	c-1.613,6.977-4.298,10.522,6.449,10.538c10.745,0.02,25.43,2.344,6.271-10.363c1.607-3.942,0.355-9.324-1.438-11.282
	c-0.36-9.673,0.723-19.172,2.505-23.104c1.792-3.946,0.543-15.22,0.899-20.947c0.36-5.73,5.552-26.323,11.282-33.662
	c5.731-7.353,31.161-29.012,35.463-50.142c4.299-21.137,8.955-42.637,21.493-42.448c7.518,0,8.771,4.295,11.995,4.119
	c3.225-0.19,8.956-5.536,8.956-8.404C216.337,18.618,215.625,12.747,201.655,12.571z"/>
<g>
</g>
<g>
</g>
<g>
</g>
<g>
</g>
<g>
</g>
<g>
</g>
<g>
</g>
<g>
</g>
<g>
</g>
<g>
</g>
<g>
</g>
<g>
</g>
<g>
</g>
<g>
</g>
<g>
</g>
</svg>
