<?xml version="1.0" encoding="iso-8859-1"?>
<!-- Generator: Adobe Illustrator 16.0.0, SVG Export Plug-In . SVG Version: 6.00 Build 0)  -->
<!DOCTYPE svg PUBLIC "-//W3C//DTD SVG 1.1//EN" "http://www.w3.org/Graphics/SVG/1.1/DTD/svg11.dtd">
<svg version="1.1" id="Capa_1" xmlns="http://www.w3.org/2000/svg" xmlns:xlink="http://www.w3.org/1999/xlink" x="0px" y="0px"
	 width="177.671px" height="177.672px" viewBox="0 0 177.671 177.672" style="enable-background:new 0 0 177.671 177.672;"
	 xml:space="preserve">
<g>
	<g>
		<path d="M67.925,98.92c16.339-10.673,24.593-15.608,41.829-10.84c17.248,4.745,8.452,15.99,20.021,26.796
			c8.111,7.535,47.584,5.237,47.891-4.12c0.374-11.026-14.323-23.749-27.032-27.385c-11.444-3.343-18.374-18.233-24.07-25.333
			c-5.664-7.075-8.438-11.912-19.704-20.52C85.143,20.906,71.153,64.433,71.153,64.433s-6.497,23.002-17.317,28.26
			c-10.825,5.259-20.264-10.968-32.549-1.171C8.989,101.35,0,129.196,0,129.196s18.822-13.92,28.639-11.441
			c9.831,2.43,3.093,17.768,7.386,26.178C39.62,137.744,51.58,109.568,67.925,98.92z M152.307,93.946
			c2.802,0,5.122,2.319,5.122,5.138c0,2.819-2.32,5.084-5.122,5.084c-2.823,0-5.111-2.265-5.111-5.084
			C147.196,96.266,149.484,93.946,152.307,93.946z"/>
	</g>
</g>
<g>
</g>
<g>
</g>
<g>
</g>
<g>
</g>
<g>
</g>
<g>
</g>
<g>
</g>
<g>
</g>
<g>
</g>
<g>
</g>
<g>
</g>
<g>
</g>
<g>
</g>
<g>
</g>
<g>
</g>
</svg>
