<?xml version="1.0" encoding="iso-8859-1"?>
<!-- Generator: Adobe Illustrator 16.0.0, SVG Export Plug-In . SVG Version: 6.00 Build 0)  -->
<!DOCTYPE svg PUBLIC "-//W3C//DTD SVG 1.1//EN" "http://www.w3.org/Graphics/SVG/1.1/DTD/svg11.dtd">
<svg version="1.1" id="Capa_1" xmlns="http://www.w3.org/2000/svg" xmlns:xlink="http://www.w3.org/1999/xlink" x="0px" y="0px"
	 width="570.408px" height="570.408px" viewBox="0 0 570.408 570.408" style="enable-background:new 0 0 570.408 570.408;"
	 xml:space="preserve">
<g>
	<g>
		<path d="M47.449,551.265c37.152-8.906,74.893-15.332,112.347-23.016c10.062-2.064,19.968-4.944,31.012-7.76
			c1.098,0.547,2.195,1.09,3.292,1.611c21.424,10.233,44.778,14.819,68.511,12.343c46.083-4.803,85.329-28.969,120.022-58.255
			c12.496-9.294,24.512-19.266,35.805-30.24c10.576-10.273,22.551-19.372,31.678-30.776c6.85-8.56,10.172-19.942,15.062-30.069
			c0.062-0.061,0.119-0.126,0.18-0.188c0.441-0.408,0.85-0.853,1.248-1.306c8.939-9.29,17.639-18.842,27.023-27.662
			c8.445-7.936,17.576-15.194,26.764-22.285c15.406-11.889,31.098-23.411,48.85-36.724c-5.932-1.624-8.939-2.448-12.189-3.338
			c2.799-4.859,5.576-9.686,7.607-13.211c-16.629-12.064-32.211-22.995-47.381-34.472c-17.01-12.868-33.799-26.034-50.383-39.449
			c-7.977-6.451-15.039-14.023-22.896-20.637c-15.746-13.248-31.797-26.132-47.635-39.27c-5.508-4.57-10.914-9.29-16.088-14.235
			c-9.75-9.323-19.033-19.155-29.045-28.18c-4.84-4.357-11.285-6.896-16.316-11.085c-11.547-9.617-22.668-19.747-35.129-30.69
			c1.102,3.228,1.775,5.202,2.443,7.173c-0.406,0.498-0.818,0.991-1.227,1.489c-7.98-6.985-15.961-13.966-24.138-21.123
			c-0.73,1.334-1.42,2.591-2.142,3.913c-17.532-12.665-34.921-25.227-52.31-37.789c-0.425,0.547-0.853,1.089-1.277,1.636
			c0.559,1.587,1.118,3.174,2.322,6.589c-11.84-7.07-22.105-13.199-35.027-20.914c2.688,4.276,3.904,6.206,5.12,8.14
			c-0.347,0.457-0.698,0.918-1.044,1.375c-7.16-4.288-14.321-8.572-21.485-12.86L170,1.24c2.656,3.215,5.312,6.434,7.972,9.649
			c-0.257,0.542-0.514,1.089-0.771,1.632c-9.278-4.076-18.556-8.152-27.83-12.228c-0.359,0.583-0.722,1.171-1.081,1.754
			c5.442,4.411,10.881,8.821,16.324,13.231c-0.273,0.518-0.546,1.036-0.82,1.555c-9.127-4.198-18.254-8.397-27.381-12.595
			c-0.277,0.441-0.551,0.881-0.828,1.322c7.972,6.524,15.949,13.044,26.353,21.555c-7.209-0.652-11.089-1.003-16.279-1.469
			c16.43,11.612,31.799,22.477,47.169,33.338l-1.318,2.619l-11.371-3.337c-0.232,0.379-0.461,0.759-0.693,1.138
			c12.007,9.086,24.011,18.177,36.014,27.263c-0.343,0.759-0.689,1.518-1.037,2.272c-3.778-0.265-7.556-0.526-14.614-1.02
			c5.125,3.419,8.054,5.161,10.75,7.205c9.58,7.267,19.229,14.459,28.479,22.13c1.624,1.346,1.469,4.843,2.138,7.344
			c-0.886,0.51-1.771,1.016-2.656,1.526c5.492,3.382,11.016,6.785,17.887,11.016c-1.089,0.126-2.183,0.257-3.272,0.384
			c-0.734,0.085-1.44,0.257-2.126,0.469l-3.651-0.718c-0.481-0.367-1.236-0.212-1.546,0.286c-0.245,0.298-0.318,0.722-0.09,1.146
			c0.041,0.078,0.086,0.159,0.13,0.237c0.192,0.869,0.249,1.729,0.229,2.583c-0.763,1.187-1.236,2.607-1.236,4.288
			c0,0.428,0.049,0.861,0.126,1.293c-0.971,3.154-2.154,6.312-1.726,9.637c-0.277,3.545,0.396,7.344,2.338,11.22
			c4.063,8.115,2.591,18.454,1.595,27.132c-1.175,10.261-2.423,20.339-1.554,30.678c0.677,8.05,2.811,15.981,6.332,23.146
			c-0.89-0.22-1.742-0.469-2.501-0.763c-29.841-11.563-59.47-23.668-89.197-35.521c-12.66-5.047-25.402-9.894-39.045-15.198
			c7.703,5.157,14.749,10.192,22.114,14.708c6.218,3.815,8.506,8.584,8.286,16.145c-0.424,14.606,0.702,29.254,0.841,43.885
			c0.02,2.195-2.052,4.337-2.767,6.626c-5.279,16.92,0.041,33.28,3.056,49.706c0.232,1.261,3.627,1.942,4.137,2.195
			c-0.375,3.415,0.322,7.087-1.196,8.972c-4.933,6.137-9.845,12.922-16.304,17.059c-9.714,6.223-20.726,10.412-30.833,16.189
			c41.979-16.532,85.142-30.363,122.07-57.776c5.541-4.113,12.995-6.483,20.363-7.728c0.726,0.616,1.485,1.187,2.269,1.705
			c-0.824,0.771-1.636,1.559-2.469,2.325c-9.629,8.817-7.568,20.274-0.657,27.618c-3.125,10.796-3.57,22.391-4.92,33.893
			c-1.808,15.394-0.334,31.575-9.319,45.81c-4.626,7.328-7.222,15.912-11.354,23.595c-1.632,3.032-5.186,4.966-7.458,7.731
			c-5.724,6.953-17.43,9.34-20.294,15.178c-4.745,9.674-14.855,8.699-19.319,14.64c-8.413,11.191-21.562,10.926-33.076,16.071
			c-10.216-1.963-20.653-1.71-31.016,2.411c-2.452,0.975-1.383,4.985,1.102,3.998c8.274-3.292,16.295-4.047,24.121-3.183
			c-0.061,0.045-0.126,0.078-0.191,0.123c0.139-0.041,0.269-0.058,0.404-0.099c7.229,0.829,14.288,3.036,21.22,5.925
			c-14.778-3.313-29.531-1.049-44.554,8.612c4.72-0.428,10.102-0.922,15.483-1.411c0.184,0.889,0.367,1.774,0.551,2.664
			c-11.73,2.823-23.464,5.646-35.386,8.519c1.562,0.625,3.003,1.2,4.443,1.779l0.351,2.027c-15.94,2.615-31.885,5.23-47.826,7.847
			c0.028,0.461,0.053,0.918,0.082,1.379c5.573-0.314,11.146-0.629,16.72-0.938c0.241,0.86,0.481,1.726,0.722,2.587
			c-24.737,7.458-49.196,15.479-69.441,32.183C16.649,563.844,31.459,555.096,47.449,551.265z M215.838,510.199
			c11.277-6.36,23.913-10.313,37.471-15.965c-2.648,3.696-4.533,6.324-6.418,8.956c0.384,0.408,0.763,0.815,1.146,1.22
			c9.282-6.247,18.564-12.489,27.854-18.739c4.896,5.581,4.896,5.581,28.421-16.937c0.506,1.828,0.906,3.272,1.668,6.01
			c15.643-12.623,30.906-24.937,46.615-37.609v5.888c9.664-7.156,19.113-14.149,28.562-21.143c0.262,1.208,0.527,2.415,0.613,2.823
			c10.539-6.21,20.941-12.342,31.318-18.454c1.301-0.036,2.676-0.424,4.07-1.317c1.057-0.678,2.113-1.354,3.176-2.032
			c6.184-2.542,12.369-5.088,18.555-7.629c0.805-0.062,1.58-0.119,2.314-0.172c-22.959,46.324-63.898,64.823-112.797,70.723
			c23.885,0.229,46.076-6.336,67.969-16.459c-7.336,16.463-29.746,36.015-56.58,53.244c-22.6,13.99-47.219,24.48-73.441,27.459
			h-30.931c-8.866-0.942-17.646-2.729-26.006-5.867c-9.384-3.521-18.091-8.242-26.875-12.897
			C193.814,515.532,204.096,516.821,215.838,510.199z"/>
	</g>
</g>
<g>
</g>
<g>
</g>
<g>
</g>
<g>
</g>
<g>
</g>
<g>
</g>
<g>
</g>
<g>
</g>
<g>
</g>
<g>
</g>
<g>
</g>
<g>
</g>
<g>
</g>
<g>
</g>
<g>
</g>
</svg>
