<?xml version="1.0" encoding="iso-8859-1"?>
<!-- Generator: Adobe Illustrator 16.0.0, SVG Export Plug-In . SVG Version: 6.00 Build 0)  -->
<!DOCTYPE svg PUBLIC "-//W3C//DTD SVG 1.1//EN" "http://www.w3.org/Graphics/SVG/1.1/DTD/svg11.dtd">
<svg version="1.1" id="Capa_1" xmlns="http://www.w3.org/2000/svg" xmlns:xlink="http://www.w3.org/1999/xlink" x="0px" y="0px"
	 width="563.852px" height="563.852px" viewBox="0 0 563.852 563.852" style="enable-background:new 0 0 563.852 563.852;"
	 xml:space="preserve">
<g>
	<g>
		<path d="M519.063,199.536c-8.857-8.356-17.69-16.752-26.928-24.676c-8.898-7.633-17.924-15.23-27.593-21.819
			c-8.001-5.455-17.034-9.396-25.59-14.048c-4.357-2.366-8.752-4.68-12.987-7.25c-4.785-2.905-8.829-6.54-11.982-11.371
			c-7.319-11.212-17.238-19.837-28.744-26.516c-7.511-4.354-15.39-8.062-23.063-12.142c-1.853-0.988-3.538-2.289-5.133-3.77
			c6.315-1.261,11.905,0.102,17.115,3.717c-2.423-6.883-8.539-10.232-13.868-14.321c0.082-0.286,0.164-0.575,0.245-0.861
			c4.574,0.901,9.151,1.808,13.587,2.681c-0.588-2.158-2.293-4.492-6.418-7.275c-14.852-10.024-31.122-15.369-49.201-13.954
			c-6.397,0.502-12.86,1.126-19.086,2.579c-13.027,3.04-25.953,6.561-38.846,10.151c-2.685,0.747-5.173,2.477-7.528,4.084
			c-12.721,8.682-25.561,17.213-37.993,26.299c-11.236,8.213-19.547,19.188-27.181,30.735
			c-10.722,16.222-13.913,34.035-12.105,53.089c0.665,7.009,0.861,14.06,1.408,21.082c0.967,12.366-4.676,21.306-14.969,27.161
			c-10.355,5.887-21.294,6.148-31.967,0.465c-6.422-3.423-10.449-9.115-13.15-15.716c-5.708-13.941-6.471-28.197-0.877-42.215
			c5.443-13.636,11.742-26.932,17.708-40.359c7.311-16.459,14.896-32.795,20.461-49.984c4.9-15.137,5.116-30.024-0.8-44.953
			c-4.696-11.853-12.66-20.18-24.77-24.488c-16.157-5.749-32.64-7.116-49.625-4.761c-11.53,1.599-19.866,7.425-25.77,17.115
			c-2.623,4.305-5.259,8.654-7.335,13.231c-4.007,8.829-8.98,17.067-14.211,25.186c-1.412,2.195-2.583,4.549-4.043,6.711
			c-4.537,6.704-4.941,13.925-2.159,21.216c3.342,8.768,6.859,17.503,10.931,25.949c2.272,4.716,5.736,8.874,8.85,13.154
			c0.734,1.008,2.207,1.477,3.337,2.195c0.702-1.211,1.917-2.391,2.003-3.647c0.282-3.978,0.62-8.058,0.074-11.975
			c-1.983-14.268,2.113-26.928,9.082-39.131c2.644-4.635,5.863-8.017,10.833-9.906c3.9-1.485,7.613-3.48,11.546-4.859
			c7.723-2.709,13.386-7.948,18.335-14.174c1.677-2.109,3.325-4.247,4.99-6.365c2.016-2.566,4.721-3.758,7.923-3.937
			c5.859-0.331,11.191,1.46,16.186,4.288c3.729,2.109,4.855,5.831,5.002,9.792c0.31,8.303-0.302,16.483-3.088,24.451
			c-4.542,12.991-9.894,25.594-15.879,37.997c-10.167,21.069-19.543,42.514-26.924,64.762c-4.121,12.407-3.708,25.092-1.383,37.704
			c1.159,6.287,2.713,12.648,5.186,18.515c4.929,11.698,14.207,19.499,25.569,24.525c21.894,9.686,43.856,8.927,65.492-0.987
			c10.571-4.843,18.703-12.868,26.369-21.399c5.182-5.765,10.873-11,18.76-12.558c4.574-0.902,9.319-1.098,13.999-1.261
			c3.093-0.106,5.684,1.713,7.107,4.259c2.782,4.982,5.585,10.045,7.507,15.39c4.08,11.367,5.871,23.293,6.826,35.28
			c1.252,15.7,2.411,31.424,2.954,47.157c0.306,8.837-0.371,17.748-1.22,26.568c-0.698,7.267,0.167,14.35,1.853,21.232
			c3.513,14.346,3.863,28.907,4.271,43.518c0.461,16.617,1.073,33.231,1.677,49.841c0.759,20.968,1.595,41.931,2.338,62.894
			c0.106,3.031-0.012,6.079-0.232,9.106c-0.159,2.228-1.501,3.068-3.827,3.354c-12.003,1.469-23.99,3.081-35.953,4.827
			c-0.967,0.143-1.799,0.42-2.538,0.787c-6.014,0.236-12.028,0.478-18.038,0.714c-4.268,0.167-7.838,3.439-7.838,7.838
			c0,2.737,1.559,5.341,3.844,6.752c0.918,2.819,3.296,5.108,7.148,5.121c11.359,0.041,22.722,0.081,34.08,0.122
			c3.534,1.008,7.422,1.742,10.947,1.244c5.883-0.832,11.86-2.26,17.312-4.577c11.347-4.818,14.651-20.686,6.866-30.233
			c-0.913-1.122-1.538-2.803-1.604-4.251c-0.461-10.429-0.62-20.869-1.109-31.298c-1.02-21.734-2.399-43.452-3.219-65.19
			c-0.542-14.341-0.555-28.715-0.408-43.068c0.041-4.092,1.66-8.144,2.199-12.265c0.815-6.271,1.587-12.566,1.897-18.878
			c0.604-12.432-1.286-24.558-4.174-36.679c-0.351-1.465-0.636-2.942-0.894-4.427c2.493,3.341,5.231,6.512,8.225,9.494
			c2.068,2.056,5.067,2.713,7.728,1.962c0.938-0.135,1.881-0.448,2.795-0.983c3.477-2.035,5.243-7.205,2.812-10.726
			c-3.072-4.451-5.121-9.857-5.443-14.162c-0.122-1.62-0.191-3.243-0.102-4.867c0.041-0.768,0.086-1.534,0.171-2.297
			c0.021-0.123,0.041-0.27,0.073-0.457c0.502-2.677,1.253-5.247,2.293-7.765c0.412-0.995,0.507-2.04,0.355-3.055
			c3.284-0.902,6.602-1.706,9.869-2.583c7.051-1.889,14.097-3.782,21.143-5.671c26.283-7.05,52.562-14.101,78.847-21.151
			c1.342,0.396,2.794,0.445,4.206,0.033c3.938-1.146,7.87-2.293,11.808-3.439c1.22,0.743,2.632,1.155,4.076,1.155h0.783
			c2.072,0,4.08-0.833,5.545-2.297c1.464-1.464,2.297-3.472,2.297-5.544c0-0.58-0.073-1.151-0.196-1.709
			c-0.008-2.061-0.521-4.133-1.742-5.798c-1.061-1.448-2.228-2.93-3.904-3.729c-1.971-0.942-2.941-1.212-5.129-1.392
			c-0.293-0.024-0.591-0.012-0.894,0.017c-6.259-3.688-12.517-7.376-18.775-11.065c5.287-1.881,10.596-3.644,15.977-5.141
			c38.924-10.841,76.182-6.479,111.246,14.117c1.542,0.906,3.019,1.917,4.528,2.88c0.241-0.155,0.478-0.31,0.718-0.465
			c-1.317-2.962-2.395-6.059-3.994-8.857C531.561,211.694,525.392,205.509,519.063,199.536z M315.296,259.569
			c-7.96,2.134-16.01,4.06-23.893,6.455c-5.214,1.583-10.987,3.717-15.292,7.365c-0.869-7.561-1.734-15.125-2.579-22.689
			c-0.416-3.717-0.808-7.45-0.918-11.184c-0.122-4.141,1.457-5.777,5.61-5.773c5.128,0.008,10.27,0.612,15.386,0.424
			c11.371-0.42,22.737-1.057,34.088-1.832c8.683-0.591,17.34-1.55,26.015-2.272c0.905-0.074,31.942-3.378,29.249-4.292
			c1.836-0.649,3.664-1.31,5.487-1.979c6.275,3.696,12.551,7.397,18.829,11.094C376.619,243.119,345.957,251.344,315.296,259.569z"
			/>
	</g>
</g>
<g>
</g>
<g>
</g>
<g>
</g>
<g>
</g>
<g>
</g>
<g>
</g>
<g>
</g>
<g>
</g>
<g>
</g>
<g>
</g>
<g>
</g>
<g>
</g>
<g>
</g>
<g>
</g>
<g>
</g>
</svg>
