<?xml version="1.0" encoding="iso-8859-1"?>
<!-- Generator: Adobe Illustrator 18.0.0, SVG Export Plug-In . SVG Version: 6.00 Build 0)  -->
<!DOCTYPE svg PUBLIC "-//W3C//DTD SVG 1.1//EN" "http://www.w3.org/Graphics/SVG/1.1/DTD/svg11.dtd">
<svg version="1.1" id="Capa_1" xmlns="http://www.w3.org/2000/svg" xmlns:xlink="http://www.w3.org/1999/xlink" x="0px" y="0px"
	 viewBox="0 0 212.489 212.489" style="enable-background:new 0 0 212.489 212.489;" xml:space="preserve">
<path d="M187.644,55.074c-3.709,0-4.35-1.938-5.486-3.879c-1.131-1.93-4.115-5.445-10.531-5.309
	c-5.115,0.115-10.307,1.879-12.104,9.719c-1.625,8.801-38.375,16.58-59.683,18.834c-21.304,2.262-39.385,4.354-71.984,37.771
	c-6.299,0-17.197,3.273-22.761,7.746c-18.313,14.728,17.599,46.648,31.149,46.648c5.812,0,79.253,0,79.253,0
	s5.971-8.059-10.979-11.928c10.977-1.947,27.81-4.303,37.448-11.557c2.846-2.051,10.816,15.896,4.846,17.672
	c-5.977,1.771-5.33,5.813-0.648,5.813c4.682,0,49.387,0,49.387,0s7.396-3.814-1.127-5.971c-8.002-2.033-17.754,0.158-26.471-10.17
	c-8.715-10.338-14.555-16.471-11.328-20.029c3.227-3.545,17.623-18.068,29.729-39.209c7.461-13.994,28.084-20.174,25.986-26.953
	C210.238,57.498,204.918,55.237,187.644,55.074z"/>
<g>
</g>
<g>
</g>
<g>
</g>
<g>
</g>
<g>
</g>
<g>
</g>
<g>
</g>
<g>
</g>
<g>
</g>
<g>
</g>
<g>
</g>
<g>
</g>
<g>
</g>
<g>
</g>
<g>
</g>
</svg>
