<?xml version="1.0" encoding="iso-8859-1"?>
<!-- Generator: Adobe Illustrator 16.0.0, SVG Export Plug-In . SVG Version: 6.00 Build 0)  -->
<!DOCTYPE svg PUBLIC "-//W3C//DTD SVG 1.1//EN" "http://www.w3.org/Graphics/SVG/1.1/DTD/svg11.dtd">
<svg version="1.1" id="Capa_1" xmlns="http://www.w3.org/2000/svg" xmlns:xlink="http://www.w3.org/1999/xlink" x="0px" y="0px"
	 width="585.07px" height="585.07px" viewBox="0 0 585.07 585.07" style="enable-background:new 0 0 585.07 585.07;"
	 xml:space="preserve">
<g>
	<g>
		<path d="M516.665,268.961c-2.612-2.081-5.633-6.307-7.075-9.321c-15.941-33.423-61.555-43.061-104.987-41.012
			c-46.5,2.19-104.438,10.713-112.958,3.408c-7.731-6.629,6.192-1.623,21.754-12.117c2.772-1.871,2.134-3.174-1.188-2.76
			c-10.941,1.348-34.277,2.379-47.605-10.678c-2.397-2.334-5.55-6.838-6.644-9.998c-5.902-17.031,22.219-21.462,23.162-4.775
			c0.189,3.333,0.57,3.57,1.519,0.363c2.349-7.923,3.638-22.015-14.127-27.479c-22.068-6.792-41.357-4.702-49.334-14.854
			c-2.063-2.627-0.195-4.459,3.044-3.632c12.856,3.298,45.025,8.766,75.681-8.334c2.914-1.629,2.583-2.358-0.686-1.67
			c-14.118,2.984-50.596,7.554-74.712-17.522c-22.455-23.351-42.386-16.488-51.293-11.281c-2.894,1.688-7.09,1.821-9.824-0.097
			c-4.679-3.287-12.386-8.329-21.536-12.903c0,0-14.786-5.843-19.901-24.837c-5.113-18.985-10.042-3.467-9.49,4.936
			c0.301,4.678,0.78,10.719,1.138,15.149c0.272,3.328-1.217,8.128-3.584,10.489c-2.885,2.887-6.783,6.244-9.975,7.039
			c-5.84,1.457-12.049,4.2-15.155,14.423s-21.911,20.082-31.401,24.647c-9.49,4.563-27.208,17.709-23.738,25.378
			c3.467,7.669-5.296,16.976,10.961,21.548c16.252,4.563,17.709,1.64,20.995-4.933c2.973-5.946,17.741-0.541,34.853-7.149
			c3.121-1.206,8.145-1.876,11.47-1.525c4.321,0.458,10.27,0.538,15.397-1.368c9.31-3.47,4.38,5.479,4.38,10.402
			c0,4.395,1.02,48.078,3.567,67.616c0.428,3.316-0.364,8.311-1.865,11.299c-6.324,12.625-19.999,45.238-7.746,71.062
			c1.434,3.02,0.603,6.655-2.396,8.115c-7.985,3.895-24.042,10.456-42.129,10.799c-25.807,0.484-31.897,16.556-33.112,22.645
			c-1.218,6.088-29.702,41.269-28.236,53.682c1.339,11.359-12.619,18.441-13.878,38.869c-0.207,3.333,2.675,5.609,5.902,4.729
			c9.005-2.465,25.136-8.825,25.136-22.78c0-19.353-1.46-15.155,6.573-28.845c7.572-12.903,13.196-40.069,44.36-43.32
			c3.322-0.343,8.686,0.267,11.972,0.869c4.188,0.769,9.847,1.655,14.357,1.844c3.339,0.143,4.4,1.727,2.923,4.729
			c-1.889,3.843-3.839,9.387-3.251,15.097c0.346,3.321,3.88,7.247,6.646,9.12c8.473,5.745,25.561,18.205,35.261,31.428
			c1.98,2.695,5.527,6.839,8.851,7.205c2.837,0.308,7.02,0.106,13.084-1.412c15.338-3.83,17.159,2.926,18.625,4.562
			c1.46,1.644,10.406-4.93,23.915-3.646c0,0,6.204,0-4.383-9.31c-8.033-7.063-10.495-13.808-15.599-15.936
			c-3.085-1.288-8.715-0.313-11.801,0.981c-3.821,1.596-3.724,3.995-6.011,8.57c-3.106,6.206-8.402-2.193-11.136-4.386
			c-2.743-2.187-32.323-15.882-30.313-29.938c2.01-14.062,20.998-1.1,51.492-8.948c17.31-4.463,27.677-6.266,33.411-6.999
			c3.316-0.419,8.733-0.65,12.079-0.75c8.698-0.248,24.272-0.166,29.557,3.186c7.081,4.492,74.425,4.569,106.574-12.731
			c2.938-1.591,5.166-0.438,5.415,2.896c0.401,5.533,1.442,13.377,4.138,16.959c3.806,5.077,1.135,28.75-10.043,35.836
			c-2.819,1.797-8.357,2.205-11.686,2.584c-15.144,1.708-40.223,5.579-50.152,11.686c-2.855,1.749-6.325,5.828-8.973,7.867
			c-8.065,6.212-23.543,19.729-26.327,33.874c-0.641,3.28,2.341,6.224,5.678,6.283c5.139,0.101,12.69-0.077,19.204-1.46
			c3.266-0.697,6.563-4.332,7.947-7.377c3.611-7.949,12.176-21.775,28.873-24.477c19.299-3.114,40.654-6.472,51.489-9.587
			c3.216-0.916,6.597,0.461,7.282,3.729c0.887,4.197,1.524,9.978,0.023,14.99c-2.73,9.126-18.258,34.69-37.787,45.648
			c-15.203,8.518-24.648,15.049-27.497,21.828c-1.301,3.08,1.867,6.372,5.184,6.745c8.263,0.928,22.827,1.749,29.063-2.825
			c1.956-1.442,3.339-2.66,4.297-3.688c2.146-2.288,0.987-6.916,1.667-9.239c0.401-1.371,1.33-2.411,3.345-1.867
			c4.747,1.276,6.939,2.736,9.683-3.647c2.742-6.396,31.947-38.349,43.639-44.556c11.686-6.212,10.409-18.808,5.846-32.503
			c-4.568-13.689-7.488-43.272,8.21-53.132c15.705-9.859,42.18-36.15,52.949-50.756c5.798-7.861,15.562-14.563,21.408-25.227
			c1.614-2.932,3.878-3.168,5.421-0.201c12.737,24.5,18.908,55.312,0.213,69.244c-24.914,18.566-11.438,37.563-3.476,45.649
			c2.347,2.382,2.831,1.874,1.253-1.07c-11.142-20.747,13.382-25.026,17.626-14.581c3.439,8.481-3.057,31.51-6.461,42.32
			c-0.999,3.187,0.538,4.434,2.867,2.039c3.41-3.505,5.976-8.062,7.643-11.608c1.412-3.026,1.654-2.955,1.105,0.343
			c-5.385,32.09,7.229,51.932,14.191,60.106c2.163,2.548,3.446,1.726,2.92-1.572c-5.609-35.163,30.653-53.628,30.659-120.621
			C585.047,331.677,545.533,291.977,516.665,268.961z"/>
	</g>
</g>
<g>
</g>
<g>
</g>
<g>
</g>
<g>
</g>
<g>
</g>
<g>
</g>
<g>
</g>
<g>
</g>
<g>
</g>
<g>
</g>
<g>
</g>
<g>
</g>
<g>
</g>
<g>
</g>
<g>
</g>
</svg>
