<?xml version="1.0" encoding="iso-8859-1"?>
<!-- Generator: Adobe Illustrator 17.1.0, SVG Export Plug-In . SVG Version: 6.00 Build 0)  -->
<!DOCTYPE svg PUBLIC "-//W3C//DTD SVG 1.1//EN" "http://www.w3.org/Graphics/SVG/1.1/DTD/svg11.dtd">
<svg version="1.1" id="Capa_1" xmlns="http://www.w3.org/2000/svg" xmlns:xlink="http://www.w3.org/1999/xlink" x="0px" y="0px"
	 viewBox="0 0 378.669 378.669" style="enable-background:new 0 0 378.669 378.669;" xml:space="preserve">
<path d="M378.656,151.364c-0.374-3.113-10.513-4.307-47.168-5.556c-5.036-0.171-9.385-0.32-12.525-0.485
	c-18.471-0.972-44.521-2.905-57.455-8.447c-6.579-2.82-24.794-7.501-40.864-11.631c-9.684-2.488-20.385-5.238-25.121-6.781
	c14.13-3.343,23.112-21.6,25.555-33c2.255-10.523,14.064-25.65,21.12-34.688c1.729-2.214,3.222-4.126,4.311-5.622
	c2.146-2.946,1.494-5.294,0.916-6.432c-1.024-2.011-3.341-3.311-5.901-3.311c-3.39,0-7.564,2.345-9.113,8.925
	c-7.111,30.202-77.801,55.659-82.325,56.468c-2.603,0.466-4.361,0.683-5.536,0.683c-1.185,0-1.555-0.222-1.67-0.354
	c-0.334-0.381-0.155-1.71,0.033-3.117c0.44-3.286,1.105-8.252-1.488-15.15c-4.427-11.774-13.39-25.811-30.95-25.811
	c-3.995,0-8.305,0.743-12.811,2.208c-8.688,2.825-12.724,7.019-16.283,10.719c-3.468,3.604-6.207,6.45-12.355,7.226
	C53.94,79.114,22.918,86.473,3.887,98.117c-3.446,2.108-4.099,2.604-3.834,3.544c0.107,0.383,0.462,0.792,1.134,0.792
	c0.736,0,2.366-0.537,6.311-1.861c6.947-2.331,18.575-6.231,30.926-8.467c3.46-0.626,7.052-0.943,10.678-0.943
	c7.532,0,14.499,1.376,19.616,3.875c10.18,4.972,15.217,21.537,16.118,31.459c0.218,2.386-0.306,6.188-0.967,11.002
	c-2.216,16.11-5.922,43.074,7.666,77.39c9.332,23.568,28.868,39.653,43.133,51.399c4.391,3.615,8.183,6.737,11.104,9.587
	l0.785,0.766c32.926,32.102,53.6,52.858,58.211,58.445c5.914,7.163,7.8,8.15,8.957,8.15c0.536,0,0.997-0.237,1.297-0.668
	c0.976-1.402-0.02-4.768-2.62-11.784c-0.032-0.087-0.064-0.175-0.098-0.264c2.85,3.096,6.427,6.039,10.154,6.039
	c2.377,0,4.575-1.176,6.532-3.496c3.483-4.128-5.871-21.863-19.466-46.466c-5.48-9.918-10.657-19.286-10.775-21.281
	c-0.174-2.949-1.04-9.667-2.138-18.172c-2.257-17.499-6.938-53.797-4.172-56.614c4.529-0.006,6.575-0.405,21.703-3.372
	c3.978-0.78,8.864-1.734,14.947-2.911c11.139-2.156,18.333-4.568,24.68-6.704c9.406-3.166,16.836-5.648,32.543-5.648
	c1.617,0,3.33,0.064,5.091,0.117c5.104,0.155,9.851,0.305,14.11,0.305c0.002,0,0,0,0.002,0c26.103,0,31.581-2.972,33.429-5.153
	c0.732-0.865,1.026-1.957,0.849-3.022c-0.13-0.78,0.054-1.147,0.204-1.356c0.901-1.256,4.402-1.824,9.702-2.682
	c5.471-0.886,12.963-2.1,22.703-4.828C377.085,153.983,378.838,152.881,378.656,151.364z"/>
<g>
</g>
<g>
</g>
<g>
</g>
<g>
</g>
<g>
</g>
<g>
</g>
<g>
</g>
<g>
</g>
<g>
</g>
<g>
</g>
<g>
</g>
<g>
</g>
<g>
</g>
<g>
</g>
<g>
</g>
</svg>
