<?xml version="1.0" encoding="iso-8859-1"?>
<!-- Generator: Adobe Illustrator 16.0.0, SVG Export Plug-In . SVG Version: 6.00 Build 0)  -->
<!DOCTYPE svg PUBLIC "-//W3C//DTD SVG 1.1//EN" "http://www.w3.org/Graphics/SVG/1.1/DTD/svg11.dtd">
<svg version="1.1" id="Capa_1" xmlns="http://www.w3.org/2000/svg" xmlns:xlink="http://www.w3.org/1999/xlink" x="0px" y="0px"
	 width="578.181px" height="578.181px" viewBox="0 0 578.181 578.181" style="enable-background:new 0 0 578.181 578.181;"
	 xml:space="preserve">
<g>
	<g>
		<path d="M507.799,111.18c-1.632-2.366-3.733-4.406-5.492-6.434c1.991-4.402,5.056-2.077,7.993-1.212
			c0.522-1.065,0.991-2.02,1.485-3.019c-3.787-1.212-7.312-2.26-10.779-3.476c-3.709-1.302-6.933-3.321-9.352-6.557
			c-0.935-1.249-2.139-2.885-3.46-3.15c-7.128-1.436-14.374-2.791-21.632-1.505c-2.958,0.522-6.476,1.697-8.312,3.815
			c-2.261,2.603-4.325,5.336-6.932,7.662c-2.073,0.991-3.982,2.297-5.655,3.868c-0.159-0.212-0.318-0.424-0.481-0.636
			c-1.04-1.334-2.211-3.072-2.211-4.623c0-6.516-4.007-9.282-9.188-9.718c-3.957-0.334-8.078-0.085-11.832-1.146
			c-3.709-1.053-5.067,1.228-6.936,3.15c-0.604,0.62-0.959,1.477-1.461,2.269c-3.978-2.562-7.936-5.145-11.93-7.675
			c-4.893-3.101-9.144-6.83-10.551-12.688c-0.612-2.559-2.118-3.513-4.28-4.056c-8.021-2.007-16.03-4.072-24.084-5.933
			c-3.827-0.885-2.873-1.485-4.953,2.493c-0.144,0.273-0.241,0.567-0.253,0.608c-6.006-2.497-12.493-2.75-18.368-4.402
			c-0.608-3.77-1.008-7.393-1.804-10.93c-2.436-10.853-8.335-19.364-17.797-25.276c-7.984-4.99-16.12-9.743-24.035-14.835
			c-3.17-2.04-5.958-4.643-9.854-5.336c-3.402-0.608-6.772-1.428-10.191-1.946c-2.281-0.347-4.611-0.334-7.014-0.489v3.631
			c0.779,0.334,1.497,0.641,2.477,1.061c-0.702,0.804-1.171,1.828-1.917,2.109c-4.203,1.587-8.43,3.133-12.722,4.443
			c-8.454,2.575-17.034,4.79-24.925,8.919c-8.613,4.504-14.929,10.987-17.373,20.661c-0.237,0.935,0.232,2.085,0.498,3.101
			c0.498,1.91,1.685,3.848,1.526,5.684c-0.424,4.884-1.44,9.71-2.159,14.574c-0.338,2.297-0.53,4.619-0.853,7.516
			c1.93-1.64,3.133-2.893,4.562-3.791c0.894-0.559,2.146-0.804,3.194-0.706c0.335,0.033,0.808,1.648,0.727,2.489
			c-0.351,3.529-0.804,7.05-1.392,10.546c-0.64,3.815,0,5.431,3.138,7.561c0.718,0.49,1.738,1.473,1.62,2.015
			c-0.159,0.735-1.277,1.261-2.313,2.159c0.632,1.726,1.191,4.019,2.256,6.046c6.222,11.824,14.468,22.073,24.974,30.335
			c3.105,2.44,4.814,5.157,5.096,9.078c-2.064-0.469-3.986-0.971-5.94-1.322c-1.338-0.245-2.599-0.477-3.48,1.265
			c-1.783,3.513-4.055,6.777-5.769,10.314c-5.79,11.958-10.359,24.398-14.19,37.107c-0.514,1.71-1.069,3.403-1.632,5.092
			l-6.487,6.789c0.18-1.224,0.273-2.497,0.135-3.893c-1.041,1.155-1.734,1.836-2.326,2.595c-4.402,5.655-9.992,9.976-16.145,13.435
			c-8.649,4.868-17.605,9.18-26.308,13.962c-4.325,2.375-8.368,5.263-12.587,7.948c0.833,1.037,1.42,1.767,1.742,2.354
			c-20.971,9.278-39.956,22.844-55.21,40.078c-18.307,20.686-31.938,45.928-37.381,73.13c-4.892,24.447-4.129,49.604,2.129,73.745
			c3.692,14.231,9.425,27.793,16.851,40.38c1.399,2.934,2.75,5.77,4.166,8.568c0.225,0.444,1.004,0.616,1.538,0.894
			c0.143,0.073,0.298,0.139,0.461,0.2c1.481,2.158,3.015,4.279,4.598,6.368c0.347,0.686,0.673,1.379,0.951,2.089
			c0.706,1.792,1.477,2.755,2.754,2.62c0.265,0.326,0.53,0.648,0.799,0.975c2.003,3.456,3.611,6.916,6.014,9.678
			c7.984,9.181,18.417,14.436,29.976,17.842c4.729,1.396,10.192,1.314,13.656,5.839c0.62,0.812,1.559,1.411,2.432,1.986
			c5.443,3.587,10.829,7.271,16.402,10.646c0.914,0.555,1.865,1.061,2.84,1.546c5.598,5.23,11.758,9.8,18.495,13.052
			c0.065,0.347,0.13,0.694,0.184,1.049c0.077,0.498,0.856,1.146,1.412,1.265c4.08,0.894,8.16,1.901,12.293,2.436
			c5.626,0.723,11.297,1.098,16.957,1.538c2.827,0.221,4.822,1.11,5.035,4.395c0.085,1.317,0.641,2.673,1.265,3.859
			c0.433,0.824,1.261,1.828,2.069,2c3.223,0.681,6.495,1.256,9.779,1.529c7.373,0.616,14.774,0.857,22.134,1.587
			c5.504,0.547,10.677,2.269,15.083,5.88c1.734,1.42,3.542,2.864,5.545,3.814c3.623,1.726,7.434,3.061,11.139,4.627
			c2.061,0.873,4.031,1.729,6.413,1.428c3.856-0.489,7.748-0.738,11.629-1.016c5.189-0.371,10.388-0.648,15.577-1.049
			c0.489-0.036,1.113-0.555,1.366-1.02c0.522-0.972,0.837-2.053,1.004-2.493c-4.545-3.818-8.768-7.564-13.223-11.012
			c-1.641-1.273-3.823-1.849-6.271-2.982c-0.114-0.702-0.33-2.057-0.583-3.627c1.767,0,3.097-0.164,4.369,0.032
			c3.097,0.47,5.558,1.946,7.246,4.729c0.689,1.135,1.706,2.321,2.868,2.86c3.786,1.767,7.691,3.293,11.583,4.831
			c5.978,2.366,12.22,3.529,18.626,3.741c0.729,0.024,2.085-0.723,2.138-1.212c0.277-2.713,0.592-5.504,0.236-8.181
			c-0.632-4.773-3.709-8.429-6.3-12.31c-2.447-3.663-4.622-7.507-6.829-11.325c-0.225-0.384,0.053-1.551,0.293-1.616
			c0.702-0.188,1.702-0.273,2.229,0.103c0.897,0.64,1.57,1.628,2.264,2.525c4.268,5.524,12.452,8.013,18.977,5.729
			c0.204-0.07,0.334-0.339,0.616-0.646c-1.354-2.77-2.506-5.728-4.153-8.368c-3.191-5.111-6.512-10.159-10.054-15.03
			c-3.852-5.296-9.144-8.886-15.206-11.212c-9.543-3.655-19.229-2.762-28.817-0.229c-3.022,0.8-6.001,1.718-8.951,2.722
			c4.125-4.606,7.924-9.498,11.351-14.635c4.41-3.982,8.703-8.1,12.889-12.313c5.378-5.41,9.711-11.652,13.383-18.36
			c0.697-1.277,2.104-2.166,3.187-3.235c0.257,0.171,0.518,0.343,0.779,0.514c0.636-3.468,1.677-6.919,1.827-10.412
			c0.335-7.797,0.253-15.602-0.575-23.354c1.673-1.285,3.305-2.619,4.904-3.994c0.261,1.465,0.522,2.929,0.804,4.406
			c1.771-0.135,2.771,0.171,2.913,2.297c0.155,2.272,0.987,4.537,1.73,6.732c2.521,7.458,7.396,13.354,12.603,19.082
			c3.587,3.945,6.871,8.172,10.176,12.362c3.097,3.925,4.479,9.196,9.445,11.669c1.566,0.779,2.945,1.971,4.312,3.097
			c2.55,2.097,5.202,4.002,5.104,8.017c-0.049,1.971,0.983,4.02,1.751,5.945c1.986,5.002,4.051,9.976,6.201,14.908
			c0.351,0.804,1.232,1.407,1.942,2.011c2.068,1.755,4.59,3.15,6.173,5.26c2.276,3.035,3.325,3.917,6.944,3.231
			c1.179-0.225,2.346-0.897,3.488-0.837c2.293,0.127,2.852-1.326,3.468-3.003c1.27-3.468,2.465-6.973,3.986-10.33
			c1.869-4.121,3.061-4.243,6.683-1.502c5.659,4.28,11.38,8.479,17.1,12.673c0.727,0.53,1.632,0.82,2.555,1.265
			c0.999-7.458-0.445-14.32-2.326-20.897c2.934-1.926,4.517-0.151,6.173,1.437c4.084,3.912,8.887,5.577,14.492,4.818
			c0.723-4.582-0.864-8.136-4.496-11.232c-2.391-2.036-4.961-4.166-6.482-6.81c-1.167-2.028-1.841-3.023-4.398-3.142
			c-7.609-0.355-15.194-1.302-22.799-1.783c-1.808-0.114-3.138-0.526-4.199-1.922c-0.583-0.771-1.199-1.518-1.786-2.284
			c-4.219-5.508-6.59-11.661-7.446-18.254c2.456,1.036,4.725,2.578,6.834,4.659c0.232,0.697,0.547,1.371,0.935,2.02
			c1.469,2.46,3.565,4.59,5.589,6.671c2.763,2.84,3.199,2.799,5.586,1.57c0.869,0.082,1.738,0.024,2.562-0.199
			c2.28-0.629,3.855-2.146,4.676-4.052c1.248-1.167,2.248-2.166,3.374-2.986c4.777-3.493,10.086-2.84,15.377-1.677
			c6.145,1.346,12.265,2.819,18.397,4.239c0.228-0.2,0.456-0.404,0.685-0.604c-2.941-8.955-5.883-17.907-8.874-27.01
			c4.574-0.611,8.887-1.187,13.379-1.787c-1.995-6.829-6.798-10.824-13.113-13.117c-6.332-2.297-12.827-4.137-19.18-6.385
			c-5.398-1.909-10.388-4.509-13.301-9.854c-0.225-0.408-0.698-0.681-1.18-1.134c-0.004,0.09-0.004,0.167-0.008,0.257
			c-2.436-3.537-4.569-7.254-6.397-11.146c-1.661-4.451-2.909-9.025-3.737-13.705c-0.045-0.473-0.098-0.938-0.159-1.399
			c0.086-0.024,0.176-0.045,0.261-0.069c-0.444-5.92-0.693-11.86-1.396-17.748c-0.722-6.07-1.501-12.179-2.949-18.103
			c-2.742-11.216-5.969-22.313-9.017-33.456c-0.457-1.669-0.869-3.358-3.057-3.77c-0.628-0.119-1.265-0.951-1.623-1.608
			c-5.215-9.559-10.266-19.212-15.606-28.702c-3.513-6.243-7.344-12.375-12.767-17.173c-0.701-1.946-1.668-3.798-2.884-5.488
			c2.228-0.632,4.446-1.306,6.67-1.95c1.775-0.51,2.607-1.351,2.909-3.194c0.245-1.485,0.433-3.317,2.461-3.75
			c10.236-2.179,20.036-5.72,29.824-9.348c4.067-1.505,6.789-3.39,8.495-7.882c2.953-7.781,7.821-14.631,15.924-17.968
			c2.95-1.216,4.312-2.938,4.863-5.777c0.09-0.469,0.314-0.91,0.474-1.367c1.456-4.166,3.912-7.201,8.633-7.552
			c0.184-0.734,0.335-1.351,0.494-1.967c1.685-6.507,2.023-13.003,0.815-19.694c-0.416-2.289-0.979-4.529-1.628-6.732
			c1.815-0.992,3.632-1.983,5.447-2.97c0.195,0.428,0.392,0.861,0.592,1.297c3.288-2.852,6.911-2.864,10.392-3.374
			c3.333-0.486,6.842-0.616,9.135-3.631c0.714-0.938,0.991-2.224,1.742-3.121c3.904-4.667,7.932-9.233,11.853-13.889
			c4.757-5.643,6.548-12.089,4.749-19.319c-0.836-3.357-2.02-6.63-3.097-10.102c1.212-0.13,2.358-0.253,3.807-0.408
			C510.574,116.214,509.423,113.534,507.799,111.18z"/>
	</g>
</g>
<g>
</g>
<g>
</g>
<g>
</g>
<g>
</g>
<g>
</g>
<g>
</g>
<g>
</g>
<g>
</g>
<g>
</g>
<g>
</g>
<g>
</g>
<g>
</g>
<g>
</g>
<g>
</g>
<g>
</g>
</svg>
