<?xml version="1.0" encoding="iso-8859-1"?>
<!-- Generator: Adobe Illustrator 18.0.0, SVG Export Plug-In . SVG Version: 6.00 Build 0)  -->
<!DOCTYPE svg PUBLIC "-//W3C//DTD SVG 1.1//EN" "http://www.w3.org/Graphics/SVG/1.1/DTD/svg11.dtd">
<svg version="1.1" id="Capa_1" xmlns="http://www.w3.org/2000/svg" xmlns:xlink="http://www.w3.org/1999/xlink" x="0px" y="0px"
	 viewBox="0 0 214.814 214.814" style="enable-background:new 0 0 214.814 214.814;" xml:space="preserve">
<path d="M167.916,121.705c-10.478-0.898-7.074,10.205-18.129,9.062c-20.201-2.081-28.196-13.946-55.099-14.648
	c-14.286-0.375-27.467,9.228-32.072,8.379c-6.519-1.202-19.186-6.265-18.489-22.667c0.706-16.379,10.461-26.514,24.764-31.401
	c14.294-4.874,43.585-16.73,43.585-40.781C112.476,5.586,94.689,0,89.809,0c-4.877,0-5.368,4.644,0.354,6.628
	c5.928,2.057,14.29,11.155,14.29,20.218c0,9.079-1.04,24.062-35.212,33.484c-34.173,9.413-39.296,29.295-39.296,42.194
	c0,12.895,7.22,33.461,28.834,34.515c3.837-0.352,4.701,3.177,3.837,5.928c-0.932,2.973-1.402,16.426,1.04,22.713
	c2.445,6.27,0,6.27-4.877,8.704c-4.885,2.459-24.057,12.214-24.057,12.214s-4.188,3.837-1.047,8.019
	c3.139,4.181,13.94,21.271,23.009,16.732c4.188-2.441-3.833-9.4-11.501-14.986c-1.745-1.746-3.494-4.195,2.784-4.888
	c6.278-0.694,34.167-4.525,34.519-25.102c0.119-3.942,0.698-3.135,4.188-1.396c3.489,1.746,14.639,4.89,13.244,10.458
	c-1.395,5.576-1.74,18.48-1.74,23.361c-2.438,1.396-4.188,8.026,6.275,11.16c10.464,3.137,24.065,6.054,23.715,2.148
	c-0.351-3.887-13.26-5.623-19.88-8.774c-3.835-1.732-2.787-4.185,0.702-11.163c3.485-6.972,10.812-24.403,4.182-29.279
	c-2.787-1.395-0.692-3.837,4.884-2.784c5.579,1.03,7.67,1.39,4.881,5.576c-2.793,4.188-4.542,9.756-2.095,18.135
	c2.445,8.353,7.329,24.75,7.329,24.75s0.348,4.563,5.223,5.426c4.884,0.844,14.645,2.238,14.303-2.988
	c-0.35-5.23-8.024-3.828-10.808-3.486c-2.797,0.352-4.543-3.835-3.846-10.106c0.701-6.278,0.701-24.757,5.234-23.71
	c4.529,1.043,0.355,8.713,21.265,29.279c6.634,8.023,11.508,8.01,18.135,7.681c6.624-0.351,8.715-4.887-3.833-6.979
	c-7.323-0.702-6.279-0.351-9.769-8.021c-3.481-7.671-10.457-13.6-10.457-18.476c0-4.884,6.278-11.521,5.924-22.688
	c0-4.533,3.145-4.877,6.634-2.434c3.485,2.434,13.01,1.026,16.786-4.198c3.78-5.241,1.342-8.714-2.148-13.96
	C178.373,128.677,181.405,122.855,167.916,121.705z"/>
<g>
</g>
<g>
</g>
<g>
</g>
<g>
</g>
<g>
</g>
<g>
</g>
<g>
</g>
<g>
</g>
<g>
</g>
<g>
</g>
<g>
</g>
<g>
</g>
<g>
</g>
<g>
</g>
<g>
</g>
</svg>
