<?xml version="1.0" standalone="no"?>
<!DOCTYPE svg PUBLIC "-//W3C//DTD SVG 20010904//EN"
 "http://www.w3.org/TR/2001/REC-SVG-20010904/DTD/svg10.dtd">
<svg version="1.0" xmlns="http://www.w3.org/2000/svg"
 width="980.000000pt" height="984.000000pt" viewBox="0 0 980.000000 984.000000"
 preserveAspectRatio="xMidYMid meet">
<metadata>
Created by potrace 1.15, written by Peter Selinger 2001-2017
</metadata>
<g transform="translate(100.000000,984.000000) scale(0.08,-0.08)"
fill="#FFFDE7" stroke="none">
<path d="M4495 9815 c-1181 -133 -2247 -638 -3060 -1450 -795 -794 -1286
-1812 -1412 -2927 -24 -217 -24 -809 0 -1028 77 -690 281 -1304 641 -1929 368
-638 867 -1173 1496 -1603 273 -187 744 -430 1070 -553 391 -147 828 -246
1310 -297 167 -17 792 -17 960 0 1075 111 2038 527 2847 1228 509 441 956
1045 1229 1659 110 247 231 561 221 571 -2 2 -69 -48 -148 -112 -437 -352
-785 -550 -1239 -705 -410 -141 -780 -202 -1220 -202 -808 -1 -1568 242 -2230
711 -1462 1037 -1954 2992 -1156 4592 181 362 397 661 686 951 191 191 339
314 535 444 320 211 612 358 939 472 55 19 114 42 131 50 l30 16 -25 9 c-74
28 -336 69 -600 94 -237 22 -835 28 -1005 9z"/>
</g>
</svg>
