<?xml version="1.0" encoding="iso-8859-1"?>
<!-- Generator: Adobe Illustrator 18.0.0, SVG Export Plug-In . SVG Version: 6.00 Build 0)  -->
<!DOCTYPE svg PUBLIC "-//W3C//DTD SVG 1.1//EN" "http://www.w3.org/Graphics/SVG/1.1/DTD/svg11.dtd">
<svg version="1.1" id="Capa_1" xmlns="http://www.w3.org/2000/svg" xmlns:xlink="http://www.w3.org/1999/xlink" x="0px" y="0px"
	 viewBox="0 0 222.003 222.003" style="enable-background:new 0 0 222.003 222.003;" xml:space="preserve">
<path d="M24.551,175.972c9.649-0.364,16.292-8.734,17.34-9.542c1.047-0.816,0.932,1.159,0.351,3.138
	c-0.583,1.973-4.431,12.561-16.411,16.056c-7.104,1.904-7.992,6.531-6.984,10.123c1.053,3.726,6.792,8.362,14.055,7.262
	c10.94-1.65,29.827-10.649,35.391-41.232c2.287-12.574,6.051-16.056,7.678-15.941c1.63,0.116,3.373,3.029,2.908,13.489
	c-0.463,10.474-0.467,31.53-10.701,45.258c-2.563,2.793-6.167,11.282,0.231,15.239c6.398,3.956,13.261,0.818,20.242-9.066
	c6.979-9.889,14.639-59.969,22.354-60.035l0,0c7.707,0.066,15.371,50.145,22.35,60.035c6.984,9.884,13.846,13.023,20.247,9.066
	c6.398-3.957,2.788-12.445,0.232-15.239c-10.238-13.728-10.238-34.784-10.706-45.258c-0.466-10.46,1.279-13.372,2.909-13.489
	c1.628-0.116,5.388,3.366,7.676,15.941c5.569,30.583,24.455,39.583,35.396,41.232c7.253,1.1,12.997-3.536,14.048-7.262
	c1.011-3.592,0.126-8.219-6.984-10.123c-11.982-3.495-15.824-14.083-16.404-16.056c-0.577-1.979-0.699-3.954,0.345-3.138
	c1.05,0.808,7.694,9.178,17.343,9.542c21.363,0.799,24.661-17.677,24.545-28.266c-0.115-10.59-8.045-17.697-13.261-21.161
	c-4.654-3.097-6.99-2.147-8.358,0.153c-0.581,0.971-1.177,4.691,0.681,6.239c2.125,1.77,7.797,6.047,7.678,12.1
	c-0.122,6.047-4.535,12.104-11.574,12.108c-13.374,0.007-28.159-28.882-27.08-31.076c4.699-7.913,19.656-11.714,19.163-15.421
	c-2.476-12.618-30.229-1.455-33.941-1.951c-1.518-0.202-1.729-2.72-1.729-2.72c-0.495-17.568,13.152-23.048,13.152-54.238
	c0-10.894-10.393-51.22-55.728-51.22l0,0c-45.334,0-55.727,40.327-55.727,51.22c0,31.19,13.648,36.67,13.151,54.238
	c0,0-0.213,2.518-1.733,2.72c-3.711,0.497-31.458-10.666-33.932,1.951c-0.501,3.707,14.455,7.509,19.157,15.421
	c1.077,2.193-13.708,31.083-27.077,31.076c-7.04-0.003-11.458-6.061-11.577-12.108c-0.116-6.053,5.556-10.33,7.677-12.1
	c1.859-1.548,1.262-5.269,0.684-6.239c-1.376-2.3-3.708-3.251-8.36-0.153c-5.215,3.463-13.147,10.571-13.263,21.161
	C-0.117,158.295,3.184,176.771,24.551,175.972z"/>
<g>
</g>
<g>
</g>
<g>
</g>
<g>
</g>
<g>
</g>
<g>
</g>
<g>
</g>
<g>
</g>
<g>
</g>
<g>
</g>
<g>
</g>
<g>
</g>
<g>
</g>
<g>
</g>
<g>
</g>
</svg>
