<?xml version="1.0" encoding="iso-8859-1"?>
<!-- Generator: Adobe Illustrator 18.0.0, SVG Export Plug-In . SVG Version: 6.00 Build 0)  -->
<!DOCTYPE svg PUBLIC "-//W3C//DTD SVG 1.1//EN" "http://www.w3.org/Graphics/SVG/1.1/DTD/svg11.dtd">
<svg version="1.1" id="Capa_1" xmlns="http://www.w3.org/2000/svg" xmlns:xlink="http://www.w3.org/1999/xlink" x="0px" y="0px"
	 viewBox="0 0 200.725 200.725" style="enable-background:new 0 0 200.725 200.725;" xml:space="preserve">
<path d="M145.699,5.898C142.88,1.939,134.159,0,127.971,0c-17.977,0-42.054,25.069-48.158,113.352
	c-5.771,74.485-41.411,76.412-41.411,76.412s24.986,10.571,52.302,10.938c0.077,0.006,0.159,0.022,0.239,0.022
	c0.132,0,0.308-0.005,0.461-0.005c0.968,0.01,1.925,0,2.893-0.018c14.764-0.089,61.424-0.394,61.424-4.675
	c0-4.792-14.427-6.641-21.813-7.279c14.012-10.331,24.327-28.615,25.858-59.515c1.915-36.114-27.333-75.291-27.611-101.293
	c0.311-11.874,30.185-13.511,30.169-15.406C162.313,11.295,149.313,10.97,145.699,5.898z"/>
<g>
</g>
<g>
</g>
<g>
</g>
<g>
</g>
<g>
</g>
<g>
</g>
<g>
</g>
<g>
</g>
<g>
</g>
<g>
</g>
<g>
</g>
<g>
</g>
<g>
</g>
<g>
</g>
<g>
</g>
</svg>
