<?xml version="1.0" encoding="iso-8859-1"?>
<!-- Generator: Adobe Illustrator 16.0.0, SVG Export Plug-In . SVG Version: 6.00 Build 0)  -->
<!DOCTYPE svg PUBLIC "-//W3C//DTD SVG 1.1//EN" "http://www.w3.org/Graphics/SVG/1.1/DTD/svg11.dtd">
<svg version="1.1" id="Capa_1" xmlns="http://www.w3.org/2000/svg" xmlns:xlink="http://www.w3.org/1999/xlink" x="0px" y="0px"
	 width="461.215px" height="461.215px" viewBox="0 0 461.215 461.215" style="enable-background:new 0 0 461.215 461.215;"
	 xml:space="preserve">
<g>
	<path d="M454.135,236.848c-1.688-1.051-3.537-2.293-5.498-3.693c-9.262-6.619-16.318-14.196-20.971-22.522
		c-3.182-5.694-5.078-14.061-7.273-23.756c-4.756-20.999-10.676-47.132-33.191-67.534c-22.23-22.286,2.73-40.739,1.604-53.286
		c-0.613-6.821-5.771-12.361-12.529-13.462c-1.482-0.241-3.178-0.364-5.039-0.364c-26.602,0-61.926,33.025-64.277,34.053h-0.002
		l-0.025-0.004c-0.244-0.041-24.811-4.032-57.789-4.032c-36.309,0-88.396,4.828-130.352,27.831
		C94.5,123.396,76.066,141.314,64,163.334c-11.271,20.57-17.268,45.336-17.865,73.665c-2.398-0.069-4.76-0.369-7.031-0.959
		c6.479-9.181,9.021-23.978-4.369-27.91c-12.324-3.62-22.66,6.31-19.525,18.563c1.058,4.134,3.157,7.576,5.929,10.381
		c-5.649,0.564-9.313-4.446-11.812-8.859c-3.176-5.611-11.816-0.573-8.635,5.047c4.109,7.26,9.997,13.097,18.625,13.843
		c4.174,0.36,8.285-1.142,11.841-3.457c4.746,1.995,9.977,3.054,14.949,3.291c0.688,56.901,13.072,81.276,55.059,110.819
		c0.392,0.275,0.796,0.533,1.212,0.77c2.896,1.648,6.802,7.32,8.96,24.982c0.327,2.67,0.604,5.541,0.819,8.53
		c0.536,7.404,6.407,13.303,13.81,13.872l17.97,1.385c0.393,0.029,0.782,0.031,1.177,0.044c8.282-0.002,14.995-6.718,14.995-15
		c0-0.376-0.014-0.75-0.041-1.119c-0.08-5.334,0.71-9.093,2.353-11.176c1.252-1.59,2.874-2.19,5.116-1.842
		c18.798,4.618,41.458,6.96,67.35,6.96c34.045,0,64.412-4.141,73.244-5.736c0.387-0.07,0.771-0.105,1.146-0.105
		c6.041,0,8.73,9.718,9.791,15.513c0.096,0.517,0.186,1.031,0.268,1.543c1.186,7.323,7.514,12.605,14.793,12.605
		c0.475,0,0.953-0.021,1.436-0.068l21.098-2.006c4.168-0.396,7.982-2.518,10.52-5.852s3.561-7.575,2.83-11.699
		c-0.115-0.653-0.23-1.312-0.344-1.98c-0.771-4.562-3.119-18.441-0.689-20.882l0.002-0.002
		c15.129-10.781,28.303-23.227,39.16-36.994l0.346-0.408c13.004-14.17,29.029-19.383,40.207-21.258
		c7.229-1.211,12.521-7.467,12.521-14.793v-43.457C461.209,244.401,458.535,239.586,454.135,236.848z M34.83,222.699
		c-0.134,2.468-1.84,5.938-4.309,8.29c-0.387,0.369-0.786,0.712-1.189,1.045c-0.008,0.01-0.016,0.021-0.024,0.031
		c-0.002-0.001-0.004-0.003-0.006-0.005c-0.001,0.002-0.003,0.003-0.005,0.005c-0.009-0.01-0.017-0.021-0.024-0.031
		c-0.404-0.333-0.803-0.676-1.189-1.045c-2.469-2.352-4.175-5.821-4.309-8.29c-0.143-2.649,2.492-4.782,5.526-4.782
		C32.335,217.917,34.972,220.05,34.83,222.699z M366.516,195.349c-9.23,0-16.738-7.515-16.738-16.751
		c0-9.239,7.508-16.756,16.738-16.756c9.227,0,16.732,7.517,16.732,16.756C383.25,187.835,375.742,195.349,366.516,195.349z"/>
</g>
<g>
</g>
<g>
</g>
<g>
</g>
<g>
</g>
<g>
</g>
<g>
</g>
<g>
</g>
<g>
</g>
<g>
</g>
<g>
</g>
<g>
</g>
<g>
</g>
<g>
</g>
<g>
</g>
<g>
</g>
</svg>
