<?xml version="1.0" standalone="no"?>
<!DOCTYPE svg PUBLIC "-//W3C//DTD SVG 20010904//EN"
 "http://www.w3.org/TR/2001/REC-SVG-20010904/DTD/svg10.dtd">
<svg version="1.0" xmlns="http://www.w3.org/2000/svg"
 width="626.000000pt" height="626.000000pt" viewBox="0 0 626.000000 626.000000"
 preserveAspectRatio="xMidYMid meet">
<metadata>
Created by potrace 1.15, written by Peter Selinger 2001-2017
</metadata>
<g transform="translate(0.000000,626.000000) scale(0.100000,-0.100000)"
fill="#000000" stroke="none">
<path d="M3055 6254 c-114 -29 -216 -81 -271 -138 -40 -42 -92 -126 -115 -188
l-24 -63 -3 -1122 -2 -1123 -1123 -2 -1122 -3 -63 -24 c-62 -23 -146 -75 -188
-115 -83 -81 -139 -219 -139 -346 0 -214 121 -382 331 -462 l59 -23 1123 -3
1122 -2 0 -1089 c0 -632 4 -1109 9 -1137 46 -243 241 -409 481 -409 127 0 265
56 346 139 40 42 92 126 115 188 l24 63 3 1122 2 1123 1123 2 1122 3 63 24
c124 46 221 130 272 236 44 89 64 178 57 255 -21 230 -182 407 -411 451 -28 5
-505 9 -1137 9 l-1089 0 0 1089 c0 632 -4 1109 -9 1137 -35 182 -156 326 -323
384 -61 21 -192 34 -233 24z"/>
</g>
</svg>
