<?xml version="1.0" encoding="iso-8859-1"?>
<!-- Generator: Adobe Illustrator 16.0.0, SVG Export Plug-In . SVG Version: 6.00 Build 0)  -->
<!DOCTYPE svg PUBLIC "-//W3C//DTD SVG 1.1//EN" "http://www.w3.org/Graphics/SVG/1.1/DTD/svg11.dtd">
<svg version="1.1" id="Capa_1" xmlns="http://www.w3.org/2000/svg" xmlns:xlink="http://www.w3.org/1999/xlink" x="0px" y="0px"
	 width="236.348px" height="236.348px" viewBox="0 0 236.348 236.348" style="enable-background:new 0 0 236.348 236.348;"
	 xml:space="preserve">
<g>
	<path d="M233.282,200.765c0.531-0.922,0.874-1.974,0.874-3.133c0-2.081-1.028-3.871-2.535-5.083
		c0.006-0.101,0.059-0.189,0.059-0.29c0-3.197-2.589-5.786-5.792-5.786c-1.502,0-2.844,0.603-3.866,1.537
		c-0.55-1.396-1.637-2.447-3.168-2.619l-10.326-21.497c0.509-0.455,1.064-0.815,1.537-1.289c1.561,1.135,3.398,1.951,5.485,1.951
		c5.254,0,9.51-4.268,9.51-9.517c0-1.212-0.337-2.317-0.798-3.357c4.889-1.265,8.5-5.662,8.5-10.947
		c0-3.747-1.839-7.033-4.634-9.102c1.607-1.171,2.707-2.968,2.707-5.119c0-2.436-1.383-4.469-3.346-5.615
		c0.981-1.667,1.69-3.487,1.69-5.544c0-6.165-5.001-11.166-11.165-11.166c-1.928,0-3.659,0.624-5.237,1.484
		c-1.661-1.889-4.031-3.136-6.756-3.136l0,0l2.417-11.931c0.645,0.127,1.312,0.201,1.998,0.201c6.059,0,10.965-4.915,10.965-10.974
		c0-0.156-0.042-0.31-0.048-0.467c3.062-0.919,5.344-3.649,5.344-7.016c0-4.108-3.334-7.442-7.441-7.442h-0.006
		c-0.201-0.662-0.319-1.327-0.604-1.945c0.308-0.963,0.615-1.941,0.615-3.015c0-5.476-4.445-9.927-9.931-9.927
		c-3.9,0-7.193,2.308-8.818,5.577c-0.532,0.204-0.993,0.491-1.502,0.756c-1.004-0.559-2.104-0.957-3.321-0.957
		c-3.89,0-7.034,3.147-7.034,7.034c0,1.312,0.414,2.495,1.064,3.523c-3.653,2.08-6.147,5.967-6.147,10.477
		c0,6.573,5.243,11.898,11.78,12.076l-1.377,6.765c-0.308,0.023-0.58,0.139-0.869,0.195c-3.41-2.864-7.761-4.655-12.572-4.655
		c-4.61,0-8.795,1.652-12.152,4.309c-1.845-1.029-3.925-1.676-6.194-1.676c-6.254,0-11.243,4.418-12.626,10.252
		c-5.473-0.6-11.845-1.011-17.975-0.751c-4.167,0.189-8.15,0.704-11.818,1.333c-0.305-2.436-1.037-4.711-2.143-6.792
		c2.905-1.785,4.864-4.92,4.864-8.6c0-4.977-3.582-8.934-8.266-9.921c1.005-1.103,1.652-2.536,1.652-4.141
		c0-0.659-0.189-1.259-0.375-1.851c2.65-1.146,4.51-3.771,4.51-6.835c0-3.038-1.829-5.627-4.433-6.783
		c0.086-0.502,0.298-0.958,0.298-1.489c0-2.488-1.084-4.619-2.725-6.212c1.895-2.479,3.068-5.55,3.068-8.908
		c0-5.509-3.056-10.255-7.527-12.791c0.331-0.839,0.567-1.723,0.567-2.68c0-4.111-3.328-7.445-7.439-7.445
		c-0.845,0-1.628,0.225-2.385,0.479c0.426-0.762,0.733-1.605,0.733-2.542c0-2.816-2.184-5.048-4.938-5.29
		c-1.206-2.483-3.697-4.227-6.641-4.227c-1.064,0-2.075,0.248-2.994,0.642c-1.212-1.762-3.124-2.977-5.388-3.086
		C77.991,2.323,74.125,0,69.687,0c-4.817,0-8.952,2.76-11.032,6.759c-1.362,0.594-2.598,1.418-3.65,2.441
		c-1.64-2.021-4.073-3.408-6.924-3.408c-5.024,0-9.097,4.067-9.097,9.097c0,5.03,4.072,9.097,9.097,9.097
		c1.634,0,3.094-0.553,4.406-1.3c0.104,0.222,0.295,0.387,0.411,0.612c-2.34,1.25-3.993,3.635-3.993,6.476
		c0,1.658,0.647,3.118,1.572,4.35c-16.467,9.25-24.065,8.99-26.74,8.195c0.438-1.22,0.774-2.494,0.774-3.859
		c0-6.398-5.181-11.579-11.579-11.579c-6.396,0-11.576,5.181-11.576,11.579c0,6.396,5.181,11.579,11.576,11.579
		c1.176,0,2.234-0.346,3.301-0.668c3.133,13.057,10.519,13.891,16.137,13.896c9.422,0.006,14.954,2.296,18.35,4.947
		c0.08,2.595,0.151,5.192,0.423,7.672c-3.195,1.129-5.458,3.887-6.053,7.294c-0.81-0.139-1.542-0.484-2.391-0.484
		c-7.82,0-14.121,6.242-14.375,14.002c-1.232-0.37-2.462-0.768-3.818-0.768c-7.53,0-13.642,6.105-13.642,13.642
		c0,5.278,3.091,9.727,7.486,11.996c-0.018,0-0.029-0.012-0.047-0.012c-8.674,0-15.708,7.039-15.708,15.711
		c0,8.683,7.034,15.717,15.708,15.717c1.67,0,3.183-0.461,4.69-0.946c-1.277,2.282-2.202,4.765-2.202,7.565
		c0,8.678,7.031,15.711,15.705,15.711c3.851,0,7.258-1.536,9.986-3.842c1.333,3.44,4.141,6.029,7.657,7.199l4.534,9.451
		c-0.047,0.219-0.26,0.385-0.26,0.633c0,0.467,0.34,0.804,0.502,1.212c-0.018,0.012-0.035,0.023-0.053,0.029
		c-0.364-0.077-0.692-0.213-1.073-0.213c-2.857,0-5.169,2.317-5.169,5.172c0,0.857,0.272,1.626,0.647,2.329
		c-0.429,0.124-0.854,0.271-1.253,0.461c-0.139-0.035-0.272-0.112-0.429-0.112c-1.561,0-2.808,1.177-3.021,2.684
		c-1.664,1.868-2.707,4.315-2.707,7.011c0,5.84,4.746,10.592,10.592,10.592c0.027,0,0.044-0.012,0.068-0.012l-4.442,14.6
		l12.661,3.842l5.515-18.099c0.053,0,0.092,0.059,0.145,0.059c2.016,0,3.62-1.631,3.679-3.629c0.795,0.686,1.8,1.146,2.938,1.146
		c0.458,0,0.884-0.142,1.301-0.271l-5.157,16.952l12.661,3.842l5.988-19.684c0.6,0.249,1.253,0.391,1.941,0.391
		c1.835,0,3.366-1.005,4.28-2.436c0.745,0.166,1.507,0.272,2.299,0.272c5.849,0,10.592-4.753,10.592-10.593
		c0-4.243-2.509-7.873-6.105-9.563c-0.449-0.851-1.07-1.584-1.821-2.187c0.006-0.106,0.059-0.189,0.059-0.29
		c0-3.197-2.589-5.786-5.792-5.786c-1.173,0-2.208,0.438-3.124,1.04l-7.069-14.729c6.091-1.868,10.604-7.317,10.604-14.021
		c0-0.484-0.233-0.893-0.271-1.371c0.363-0.366,0.659-0.757,1.011-1.123c18.267,0.213,33.989-8.264,33.989-8.264
		c1.626,3.464,7.95,6.242,13.271,8.051c0.111,6.076,5.035,10.964,11.123,10.964c0.763,0,1.431-0.283,2.146-0.419
		c0.213,7.565,6.359,13.665,13.984,13.665c2.488,0,4.705-0.827,6.727-1.95l5.604,11.68c-1.555,0.354-2.813,1.396-3.499,2.778
		c-4.221,1.383-7.288,5.319-7.288,10.001c0,4.516,2.843,8.346,6.809,9.871c0.462,0.709,1.183,1.253,2.052,1.524l-5.58,18.324
		l12.661,3.854l5.875-19.281c0.674,0.733,1.607,1.229,2.684,1.229c2.021,0,3.617-1.626,3.683-3.635
		c0.396,0.36,0.856,0.644,1.365,0.833l-5.166,17l12.661,3.854l6.514-21.392c0.248,0.195,0.496,0.385,0.756,0.55
		c0.91,0.934,2.141,1.549,3.553,1.549c0.124,0,0.248-0.059,0.372-0.07c0.556,0.082,1.129,0.165,1.696,0.165
		c5.846,0,10.593-4.753,10.593-10.593C235.031,204.43,234.387,202.432,233.282,200.765z M77.234,192.756
		c-0.277-1.537-1.427-2.701-3-2.844l-7.045-14.682c1.318-1.479,2.154-3.287,2.651-5.272c0.393-0.048,0.78-0.083,1.167-0.13
		l8.062,16.792c-0.411,0.556-0.786,1.165-0.786,1.909c0,0.881,0.375,1.655,0.925,2.246
		C78.464,191.391,77.823,192.029,77.234,192.756z M205.809,192.756c-0.284-1.638-1.561-2.974-3.286-2.974
		c-0.154,0-0.261,0.147-0.402,0.172c-0.52-0.792-1.265-1.401-2.281-1.401c-0.166,0-0.26,0.137-0.42,0.16
		c-0.023,0-0.053,0-0.07-0.012l-7.762-16.172c1.939-0.373,3.783-1.005,5.604-1.686l9.824,20.487
		C206.542,191.74,206.21,192.278,205.809,192.756z"/>
</g>
<g>
</g>
<g>
</g>
<g>
</g>
<g>
</g>
<g>
</g>
<g>
</g>
<g>
</g>
<g>
</g>
<g>
</g>
<g>
</g>
<g>
</g>
<g>
</g>
<g>
</g>
<g>
</g>
<g>
</g>
</svg>
