<?xml version="1.0" standalone="no"?>
<!DOCTYPE svg PUBLIC "-//W3C//DTD SVG 20010904//EN"
 "http://www.w3.org/TR/2001/REC-SVG-20010904/DTD/svg10.dtd">
<svg version="1.0" xmlns="http://www.w3.org/2000/svg"
 width="512.000000pt" height="512.000000pt" viewBox="0 0 512.000000 512.000000"
 preserveAspectRatio="xMidYMid meet">
<metadata>
Created by potrace 1.15, written by Peter Selinger 2001-2017
</metadata>
<g transform="translate(0.000000,512.000000) scale(0.100000,-0.100000)"
fill="#aaaaaa" stroke="none">
<path d="M2990 4929 c-372 -28 -717 -218 -944 -519 -77 -102 -162 -259 -192
-353 l-17 -54 -61 19 c-132 41 -338 40 -481 -3 -291 -88 -519 -336 -578 -632
l-13 -62 -69 -8 c-352 -38 -605 -320 -605 -671 0 -116 20 -199 72 -306 59
-120 169 -230 288 -288 121 -60 187 -74 324 -70 l114 3 22 -32 c66 -96 265
-250 404 -313 408 -183 888 -106 1213 193 l42 39 63 -51 c77 -63 188 -121 288
-153 66 -20 95 -23 240 -23 145 0 174 3 240 23 192 61 350 178 458 340 19 28
36 52 38 52 1 0 24 -9 51 -21 132 -57 363 -77 513 -45 337 71 605 342 674 678
33 160 15 355 -45 508 -91 226 -299 423 -526 497 l-83 27 0 37 c0 102 -62 324
-127 454 -93 184 -252 373 -411 488 -259 186 -564 270 -892 246z"/>
<path d="M864 1413 c-188 -395 -265 -636 -248 -777 13 -112 54 -205 121 -277
62 -66 115 -89 205 -89 62 0 81 5 124 29 61 35 105 83 141 154 86 169 71 332
-62 661 -64 162 -195 436 -207 436 -5 0 -38 -62 -74 -137z"/>
<path d="M3744 1413 c-138 -290 -224 -520 -245 -654 -22 -142 24 -300 116
-398 62 -67 117 -91 203 -91 116 0 207 61 268 182 83 163 74 303 -38 603 -62
168 -215 495 -231 495 -4 0 -38 -62 -73 -137z"/>
<path d="M2333 1298 c-239 -508 -280 -714 -184 -914 62 -128 157 -197 274
-196 79 0 124 19 191 82 64 61 110 153 127 259 16 97 2 186 -56 356 -63 187
-242 585 -263 585 -5 0 -45 -78 -89 -172z"/>
</g>
</svg>
