<?xml version="1.0" encoding="iso-8859-1"?>
<!-- Generator: Adobe Illustrator 16.0.0, SVG Export Plug-In . SVG Version: 6.00 Build 0)  -->
<!DOCTYPE svg PUBLIC "-//W3C//DTD SVG 1.1//EN" "http://www.w3.org/Graphics/SVG/1.1/DTD/svg11.dtd">
<svg version="1.1" id="Capa_1" xmlns="http://www.w3.org/2000/svg" xmlns:xlink="http://www.w3.org/1999/xlink" x="0px" y="0px"
	 width="585.918px" height="585.918px" viewBox="0 0 585.918 585.918" style="enable-background:new 0 0 585.918 585.918;"
	 xml:space="preserve">
<g>
	<g>
		<path d="M351.529,327.224c0.27-1.889,0.061-3.852,0.33-5.74c0.164-1.143,0.824-2.211,1.262-3.312
			c0.322,0.024,0.645,0.049,0.967,0.077c0.836,3.293,1.525,6.63,2.561,9.857c0.689,2.146,1.344,5.014,2.963,6.006
			c3.717,2.276,7.875,4.304,12.109,5.169c10.885,2.224,21.82,0.375,32.713-0.734c5.477-0.559,9.021-4.06,12.33-7.943
			c6.055-7.104,11.799-14.501,18.266-21.204c3.893-4.035,9.156-6.716,13.314-10.539c2.383-2.187,4.564-2.288,7.322-1.807
			c2.723,0.477,5.447,0.514,7.066-1.767c0.438-1.86,0.875-3.721,1.246-5.312c-4.533,1.62-8.924,2.648-13.686,2.362
			c-1.93-0.118-4.332,0.269-5.814,1.379c-4.039,3.023-7.604,6.667-11.541,9.841c-2.236,1.8-4.859,3.117-7.264,4.713
			c-1.631,1.085-3.52,2.007-4.725,3.472c-3.129,3.807-5.988,7.842-8.873,11.849c-1.326,1.844-2.574,2.228-4.848,1.272
			c-10.865-4.586-21.734-4.691-32.461,0.633c-0.309,0.155-0.754,0.041-0.5,0.032c-2.109-7.634-4.023-15.014-6.207-22.313
			c-2.17-7.262-4.609-14.443-6.887-21.521c8.482,0.518,16.422,1.146,24.375,1.452c9.068,0.351,15.666-3.333,19.359-12.023
			c2.639-6.21,5.707-12.249,8.828-18.238c2.896-5.553,6.039-10.979,9.258-16.353c0.67-1.114,2.045-2.281,3.26-2.497
			c3.188-0.571,6.014-1.501,7.609-3.827c-0.85-1.685-1.559-3.097-2.297-4.569c-2.547,4.415-6.479,6.062-11.258,6.271
			c-0.828,0.037-1.934,0.322-2.402,0.906c-2.521,3.149-4.957,6.373-7.279,9.673c-2.676,3.807-4.76,8.124-9.457,10.31
			c0.082,0.392,0.479,1.085,0.277,1.477c-2.227,4.366-4.613,8.654-6.805,13.036c-0.828,1.661-1.588,1.783-3.312,1.122
			c-8.156-3.109-16.484-3.823-24.998-1.371c-0.65,0.188-2.049-0.539-2.363-1.196c-1.484-3.076-2.701-6.287-4.043-9.433
			c-3.416-8.005-6.643-16.104-10.367-23.966c-1.543-3.26-1.738-7.43-5.439-9.494c0.625-4.055-1.518-6.993-3.953-9.816
			c-0.061-0.073-0.068-0.188-0.113-0.281c-2.123-4.452-4.811-8.242-10.172-9.123c-0.703-0.114-1.861-0.689-1.898-1.13
			c-0.264-3.211-0.297-6.442-0.402-9.666c0.395-0.114,0.791-0.224,1.182-0.338c1.633,1.457,3.428,2.77,4.863,4.398
			c3.82,4.329,7.541,8.744,11.197,13.207c5.25,6.418,11.137,5.251,17.004,0.935c7.617-5.602,11.992-13.591,16.1-21.799
			c0.482-0.963,1.752-2.211,2.615-2.179c2.799,0.098,5.57,0.967,8.373,1.106c3.701,0.18,7.871,1.008,11.045-0.331
			c6.883-2.893,13.35-6.94,18.375-12.656c9.096-10.338,17.055-21.322,20.377-35.133c0.896-3.733,5.303-6.022,4.781-10.942
			c-0.232-2.183,2.174-4.565,3.121-6.965c3.293-8.335,4.477-17.12,4.068-25.961c-0.291-6.23-2.262-12.375-2.678-18.613
			c-0.525-7.871-0.09-15.802-0.326-23.697c-0.387-12.934-1.545-25.851-7.082-37.732C437.873,10.412,433.762,5.222,430.449,0
			c-1.922,0.343-3.037,0.542-4.592,0.82c0.299,1.297,0.418,2.599,0.902,3.742c1.061,2.497,2.672,4.81,3.416,7.385
			c1.867,6.495,3.537,13.06,4.977,19.666c0.836,3.823,0.971,7.792,1.607,11.665c1.768,10.771,0.506,21.33-3.631,31.241
			c-2.6,6.234-6.492,11.921-8.771,18.413c-3.408,9.698-3.889,19.465,2.508,27.638c3.277,4.186,1.49,5.104-1.027,7.417
			c-3.338,3.064-6.209,6.667-9.697,9.527c-2.816,2.309-6.338,3.737-9.361,5.818c-1.141,0.788-1.521,2.722-2.676,3.436
			c-4.178,2.591-6.043,7.654-10.648,9.735c-0.24,0.11-0.293,0.734-0.352,1.126c-0.387,2.762-0.578,5.565-1.211,8.266
			c-0.236,1.008-1.562,2.595-2.244,2.521c-3.297-0.351-6.756-0.682-9.734-1.987c-2.4-1.053-4.867-3.117-6.117-5.39
			c-2.305-4.194-3.74-8.866-5.535-13.342c-0.373-0.934-0.715-1.877-1.07-2.815c-0.004,0-0.008,0.004-0.008,0.004
			c-0.424-1.163-0.848-2.326-1.27-3.488c-0.191-2.546-0.693-4.998-0.953-7.475c-0.156-1.449-0.127-3.199,0.551-4.402
			c1.594-2.84,3.443-5.492,2.811-8.841c-1.082-0.918-2.109-1.792-3.068-2.607c-0.303,0.988-0.607,1.987-0.914,2.987l-5.504,13.256
			c-0.387,0.938,0.191,1.648,0.947,1.869c0.645,2.738,1.615,5.418,2.244,8.168c0.828,3.64,1.387,7.34,2.092,11.179
			c-2.137-0.795-3.703-1.228-5.127-1.942c-2.67-1.338-5.562-2.468-7.803-4.354c-3.699-3.117-7.273-5.741-12.387-3.554
			c-0.424-1.036-0.922-1.848-1.084-2.721c-0.764-4.158-3.848-5.32-7.365-5.268c-2.182,0.033-4.398,1.648-6.516,1.485
			c-4.088-0.31-7.062,1.616-10.225,3.595c-3.203,2.003-5.59,4.325-6.055,8.376c-0.465,4.039-2.143,4.468-5.867,2.538
			c-1.139-0.592-3.668-0.359-4.418,0.493c-1.293,1.481-2.799,2.31-4.313,2.379c-1.514-0.073-3.015-0.902-4.312-2.379
			c-0.747-0.853-3.28-1.085-4.418-0.493c-3.721,1.934-5.402,1.505-5.867-2.538c-0.465-4.051-2.856-6.373-6.055-8.376
			c-3.162-1.979-6.136-3.905-10.225-3.595c-2.122,0.163-4.333-1.453-6.516-1.485c-3.517-0.053-6.602,1.106-7.364,5.268
			c-0.159,0.873-0.661,1.689-1.085,2.721c-5.112-2.187-8.687,0.437-12.387,3.554c-2.24,1.885-5.133,3.015-7.801,4.354
			c-1.424,0.714-2.986,1.142-5.128,1.942c0.706-3.835,1.269-7.54,2.093-11.179c0.624-2.75,1.599-5.43,2.244-8.168
			c0.755-0.225,1.338-0.935,0.947-1.869l-5.504-13.256c-0.306-1-0.612-2-0.914-2.987c-0.955,0.812-1.987,1.689-3.068,2.607
			c-0.632,3.345,1.216,6.001,2.812,8.841c0.677,1.204,0.702,2.95,0.551,4.402c-0.261,2.477-0.767,4.929-0.955,7.475
			c-0.424,1.163-0.849,2.325-1.273,3.484c0,0-0.004,0-0.008,0c-0.355,0.938-0.698,1.885-1.069,2.815
			c-1.791,4.476-3.227,9.147-5.536,13.342c-1.249,2.272-3.713,4.333-6.116,5.39c-2.979,1.305-6.438,1.636-9.735,1.987
			c-0.681,0.073-2.011-1.514-2.244-2.521c-0.632-2.701-0.824-5.508-1.211-8.266c-0.057-0.396-0.11-1.02-0.351-1.126
			c-4.606-2.081-6.471-7.144-10.649-9.735c-1.154-0.718-1.534-2.648-2.676-3.436c-3.023-2.085-6.544-3.509-9.359-5.818
			c-3.489-2.864-6.361-6.463-9.698-9.527c-2.521-2.31-4.305-3.231-1.028-7.417c6.397-8.168,5.916-17.94,2.509-27.638
			c-2.281-6.492-6.169-12.179-8.772-18.413c-4.133-9.911-5.398-20.469-3.631-31.241c0.637-3.872,0.771-7.842,1.607-11.665
			c1.44-6.606,3.109-13.17,4.978-19.666c0.742-2.575,2.354-4.888,3.415-7.385c0.486-1.143,0.6-2.44,0.902-3.742
			c-1.554-0.277-2.664-0.477-4.59-0.82c-3.313,5.222-7.426,10.412-10.147,16.254c-5.537,11.881-6.695,24.794-7.083,37.732
			c-0.237,7.895,0.2,15.822-0.326,23.697c-0.417,6.234-2.387,12.378-2.677,18.613c-0.408,8.841,0.775,17.625,4.068,25.961
			c0.947,2.395,3.354,4.782,3.121,6.965c-0.522,4.924,3.884,7.213,4.782,10.942c3.321,13.811,11.281,24.794,20.375,35.133
			c5.031,5.716,11.498,9.764,18.376,12.656c3.174,1.338,7.344,0.51,11.044,0.331c2.803-0.135,5.569-1.004,8.372-1.106
			c0.861-0.032,2.134,1.216,2.616,2.179c4.104,8.213,8.482,16.202,16.1,21.799c5.871,4.316,11.754,5.483,17.005-0.935
			c3.656-4.467,7.376-8.882,11.195-13.207c1.436-1.628,3.231-2.941,4.863-4.398c0.396,0.114,0.792,0.224,1.184,0.338
			c-0.106,3.228-0.139,6.455-0.404,9.666c-0.037,0.437-1.191,1.016-1.897,1.13c-5.357,0.881-8.05,4.671-10.171,9.123
			c-0.045,0.089-0.049,0.208-0.114,0.281c-2.436,2.823-4.578,5.765-3.954,9.816c-3.696,2.064-3.892,6.234-5.438,9.494
			c-3.721,7.862-6.953,15.961-10.367,23.966c-1.343,3.149-2.554,6.356-4.043,9.433c-0.318,0.657-1.718,1.383-2.362,1.196
			c-8.515-2.452-16.846-1.738-24.998,1.371c-1.726,0.661-2.481,0.539-3.313-1.122c-2.195-4.382-4.578-8.67-6.806-13.036
			c-0.2-0.392,0.196-1.089,0.277-1.477c-4.696-2.191-6.777-6.507-9.457-10.31c-2.322-3.296-4.757-6.524-7.279-9.674
			c-0.465-0.583-1.575-0.869-2.403-0.905c-4.778-0.208-8.711-1.861-11.257-6.271c-0.738,1.469-1.448,2.884-2.297,4.569
			c1.595,2.326,4.423,3.256,7.609,3.827c1.216,0.216,2.591,1.383,3.26,2.497c3.219,5.373,6.361,10.8,9.257,16.353
			c3.122,5.989,6.189,12.028,8.829,18.238c3.692,8.686,10.29,12.375,19.36,12.023c7.952-0.31,15.892-0.934,24.374-1.452
			c-2.277,7.079-4.717,14.26-6.887,21.521c-2.183,7.304-4.092,14.685-6.206,22.313c0.253,0.004-0.192,0.123-0.502-0.032
			c-10.726-5.324-21.595-5.219-32.46-0.633c-2.272,0.959-3.521,0.571-4.847-1.272c-2.88-4.007-5.74-8.042-8.874-11.849
			c-1.204-1.465-3.092-2.387-4.725-3.472c-2.407-1.6-5.026-2.913-7.262-4.713c-3.938-3.17-7.507-6.813-11.542-9.841
			c-1.477-1.105-3.88-1.497-5.814-1.379c-4.761,0.286-9.151-0.743-13.684-2.362c0.371,1.591,0.808,3.452,1.244,5.312
			c1.62,2.284,4.345,2.243,7.066,1.767c2.754-0.481,4.941-0.38,7.324,1.807c4.162,3.823,9.421,6.504,13.313,10.539
			c6.467,6.703,12.211,14.104,18.266,21.204c3.313,3.884,6.859,7.389,12.33,7.943c10.894,1.109,21.828,2.958,32.713,0.734
			c4.235-0.865,8.393-2.893,12.109-5.169c1.62-0.992,2.272-3.86,2.962-6.006c1.041-3.228,1.726-6.564,2.562-9.857
			c0.322-0.024,0.645-0.049,0.967-0.077c0.437,1.102,1.098,2.17,1.261,3.312c0.27,1.889,0.061,3.852,0.331,5.74
			c1.742,12.191,3.59,24.366,5.3,36.557c0.204,1.461-0.249,3.016-0.449,5.084c4.333,1.562,3.472,6.753,4.476,10.702
			c1.44,5.675,3.375,10.946,6.749,15.732c0.51,0.727,0.616,2.171,0.261,3.003c-3.533,8.205-5.149,16.81-5.888,25.663
			c-0.502,6.022-1.289,12.023-2.134,18.009c-0.114,0.804-1.183,1.873-2.003,2.098c-2.586,0.701-5.263,1.407-7.919,1.452
			c-2.681,0.049-5.386-0.624-8.062-1.081c-7.185-1.22-14.35-2.562-21.547-3.668c-1.089-0.167-2.57,0.392-3.468,1.109
			c-3.497,2.819-6.711,5.994-10.302,8.671c-0.889,0.665-2.799-0.033-4.035-0.095c1.718,4.521,7.455,6.035,11.367,2.538
			c0.453-0.408,1.069-0.751,1.301-1.265c2.179-4.749,6.377-4.945,10.543-4.301c6.197,0.963,12.383,2.163,18.429,3.799
			c2.289,0.62,4.109,2.836,6.259,4.137c6.597,3.99,12.852,2.09,18.837-1.473c3.954-2.354,5.847-5.679,6.136-10.645
			c0.347-5.908,2.199-11.722,3.313-17.593c0.938-4.933,1.754-9.89,2.624-14.835l1.012-0.266c0.747,0.809,1.628,1.53,2.224,2.44
			c2.428,3.704,4.761,7.475,7.14,11.212c0.216,0.338,0.416,0.836,0.734,0.942c0,0,0.428,0.249,1.261,0.637
			c-1.146,3.871-2.281,7.747-3.166,11.677c-1.212,5.369-2.187,10.942-0.461,16.463c1.13,3.61,3.399,6.54,6.255,8.895
			c2.244,1.852,3.615,6.581,2.48,8.89c-2.436,4.953-4.753,9.972-6.924,15.047c-0.91,2.126-1.285,4.477-1.983,6.7
			c-0.285,0.918-0.783,1.771-1.399,3.121c-1.244-1.555-1.958-3.027-3.129-3.791c-2.729-1.778-5.695-3.19-8.535-4.806
			c-1.016-0.579-1.946-1.31-2.901-1.987c-0.245-0.176-0.437-0.604-0.653-0.607c-5.357-0.024-9.837-4.725-15.402-3.146
			c-5.537,1.571-10.988,3.464-16.41,5.395c-9.184,3.271-18.079,7.36-26.039,12.913c-6.854,4.781-13.293,10.322-19.197,16.242
			c-3.321,3.329-5.304,8.05-7.621,12.289c-0.588,1.073-0.4,2.741-0.147,4.06c0.506,2.636,1.522,5.186,1.921,7.829
			c0.571,3.771,1.922,6.472,5.439,8.744c4.712,3.043,8.617,7.319,12.982,10.93c3.729,3.081,7.483,6.182,11.481,8.887
			c4.419,2.99,9.017,5.761,13.75,8.217c3.337,1.73,7.034,2.758,10.551,4.146c0.918,0.363,1.836,0.804,2.636,1.375
			c2.636,1.877,5.369,2.913,8.772,2.591c3.586-0.339,7.25,0.204,10.849-0.069c1.604-0.122,3.46-0.938,4.623-2.048
			c5.855-5.586,11.75-11.163,17.197-17.141c6.822-7.482,13.297-15.296,19.776-23.085c2.231-2.68,4.044-5.712,6.019-8.601
			c0.451-0.665,1.098-1.395,1.117-2.117c0.061-1.889,0.893-2.836,2.631-3.55c0.797-0.326,1.523-1.66,1.652-2.623
			c0.645-4.818,1.098-9.661,1.588-14.496c0.674-6.639,1.391-13.272,1.967-19.923c0.461-5.349,0.877-10.706,1.035-16.067
			c0.066-2.264-0.596-4.545-0.9-6.821c-0.318-2.351-0.307-4.456,1.93-6.193c1.109-0.865,2.02-2.591,2.158-4.011
			c0.791-8.267,1.42-16.553,1.906-24.844c0.24-4.088,0.301-8.188,0.326-12.284c1.896-3.007,3.789-6.019,5.736-8.992
			c0.596-0.91,1.473-1.633,2.223-2.44l1.012,0.266c0.869,4.944,1.689,9.902,2.623,14.835c1.115,5.871,2.971,11.685,3.314,17.593
			c0.289,4.965,2.182,8.295,6.135,10.645c5.986,3.562,12.24,5.463,18.838,1.473c2.15-1.301,3.971-3.517,6.26-4.137
			c6.045-1.632,12.234-2.836,18.428-3.799c4.166-0.645,8.365-0.444,10.543,4.301c0.236,0.51,0.85,0.856,1.303,1.265
			c3.912,3.492,9.648,1.982,11.367-2.538c-1.236,0.062-3.143,0.764-4.035,0.094c-3.592-2.676-6.811-5.854-10.303-8.67
			c-0.898-0.722-2.379-1.276-3.469-1.109c-7.201,1.105-14.365,2.448-21.545,3.668c-2.678,0.457-5.383,1.13-8.062,1.081
			c-2.656-0.049-5.328-0.751-7.92-1.452c-0.824-0.225-1.893-1.294-2.004-2.098c-0.844-5.985-1.631-11.987-2.133-18.009
			c-0.738-8.85-2.354-17.454-5.887-25.663c-0.359-0.833-0.254-2.277,0.26-3.003c3.375-4.786,5.309-10.062,6.748-15.732
			c1.004-3.945,0.148-9.136,4.477-10.702c-0.205-2.068-0.656-3.623-0.449-5.084C347.939,351.59,349.791,339.415,351.529,327.224z
			 M263.442,161.413c-0.135,0.686-0.339,1.363-0.535,2.04c-0.343,1.179-0.722,2.354-1.077,3.534c0.229,1.317,0.372,2.219,0.379,2.9
			c0.008,0.576-0.102,0.992-0.363,1.293c-0.506,0.592-1.591,0.836-3.676,1.302c-0.857,0.192-1.706,0.975-2.301,1.701
			c-2.109,2.579-2.619,6.806-7.205,6.801c-0.257,0-0.49,0.608-0.779,0.886c-5.047,4.818-10.082,9.649-15.182,14.415
			c-0.498,0.465-1.387,0.51-2.093,0.75c-0.167-0.636-0.306-1.281-0.514-1.901c-0.652-1.958-0.995-4.125-2.077-5.814
			c-1.856-2.909-4.031-5.626-6.23-8.298c-0.163-0.2-0.322-0.408-0.49-0.608c-1.187-1.432-1.24-2.26,0.359-3.395
			c3.5-2.468,6.769-5.283,10.331-7.654c5.051-3.362,10.106-6.797,15.508-9.506c2.497-1.257,5.251-5.414,8.809-1.249
			c0.241,0.282,1.143-0.045,1.73,0c1.559,0.114,3.162,0.106,4.635,0.526C263.136,159.271,263.581,160.695,263.442,161.413z
			 M221.104,537.312c-4.243-2.073-8.078-3.949-12.093-5.912c4.668-1.742,9.184-3.423,13.864-5.169
			C222.295,529.865,221.711,533.496,221.104,537.312z M264.099,531.326c-10.163,4.532-19.123,10.8-27.12,18.503
			c-0.478,0.461-1.804,0.889-2,0.669c-2.35-2.604-5.842-5.035-6.544-8.087c-1.416-6.173,0.232-12.162,4.732-16.107
			c7.279,1.868,13.839,4.088,20.857,2.925c7.634-1.265,12.081-6.716,15.79-13.288c1.828,3.807,3.366,7.014,4.953,10.314
			C271.165,527.977,267.668,529.73,264.099,531.326z M323.279,159.14c1.477-0.42,3.08-0.412,4.635-0.526
			c0.588-0.045,1.488,0.282,1.73,0c3.557-4.166,6.311-0.008,8.809,1.249c5.4,2.709,10.457,6.145,15.508,9.506
			c3.562,2.375,6.83,5.186,10.33,7.654c1.604,1.13,1.547,1.958,0.359,3.395c-0.168,0.2-0.322,0.408-0.49,0.608
			c-2.203,2.672-4.373,5.39-6.23,8.299c-1.08,1.693-1.424,3.855-2.076,5.814c-0.207,0.62-0.342,1.269-0.514,1.901
			c-0.705-0.24-1.596-0.285-2.094-0.75c-5.1-4.765-10.135-9.596-15.182-14.415c-0.289-0.277-0.521-0.885-0.779-0.885
			c-4.586,0.004-5.096-4.227-7.205-6.801c-0.592-0.727-1.439-1.51-2.301-1.702c-2.086-0.469-3.166-0.714-3.676-1.301
			c-0.262-0.306-0.367-0.722-0.363-1.293c0.008-0.682,0.15-1.587,0.379-2.901c-0.355-1.179-0.734-2.354-1.076-3.533
			c-0.197-0.678-0.4-1.354-0.535-2.04C322.381,160.695,322.826,159.271,323.279,159.14z"/>
	</g>
</g>
<g>
</g>
<g>
</g>
<g>
</g>
<g>
</g>
<g>
</g>
<g>
</g>
<g>
</g>
<g>
</g>
<g>
</g>
<g>
</g>
<g>
</g>
<g>
</g>
<g>
</g>
<g>
</g>
<g>
</g>
</svg>
