<?xml version="1.0" encoding="iso-8859-1"?>
<!-- Generator: Adobe Illustrator 16.0.0, SVG Export Plug-In . SVG Version: 6.00 Build 0)  -->
<!DOCTYPE svg PUBLIC "-//W3C//DTD SVG 1.1//EN" "http://www.w3.org/Graphics/SVG/1.1/DTD/svg11.dtd">
<svg version="1.1" id="Capa_1" xmlns="http://www.w3.org/2000/svg" xmlns:xlink="http://www.w3.org/1999/xlink" x="0px" y="0px"
	 width="569.342px" height="569.342px" viewBox="0 0 569.342 569.342" style="enable-background:new 0 0 569.342 569.342;"
	 xml:space="preserve">
<g>
	<g>
		<path d="M7.829,327.335c12.97-0.657,25.255-4.537,37.523-8.381c10.698-3.354,20.339-8.861,29.572-15.124
			c8.213-5.569,15.765-11.738,20.828-20.575c3.635-6.345,7.715-12.437,11.718-18.564c0.571-0.873,2.093-2.052,2.672-1.823
			c2.024,0.804,4.296,1.782,5.602,3.402c1.791,2.228,3.868,3.496,6.491,4.092c6.756,1.538,13.554,2.905,20.261,4.615
			c1.64,0.42,3.798,1.583,4.361,2.958c1.877,4.59,5.476,5.365,9.694,5.52c9.253,0.339,18.511,0.719,27.76,1.171
			c1.085,0.054,2.411,0.376,3.166,1.073c3.35,3.089,7.409,4.655,11.742,4.562c11.082-0.24,22.155-0.963,33.232-1.392
			c1.061-0.04,2.395,0.348,3.174,1.024c2.244,1.963,4.447,2.905,7.654,2.529c10.2-1.195,19.804-4.549,29.499-7.589
			c2.256-0.71,3.954-0.836,5.01,1.702c0.738,1.767,2.003,2.02,3.811,1.351c11.755-4.354,23.558-8.585,35.309-12.95
			c1.697-0.629,2.79-0.404,3.672,1.126c1.411,2.448,2.848,4.876,4.251,7.327c0.967,1.689,1.938,3.379,2.823,5.112
			c1.935,3.799,5.39,5.427,10.229,6.565c-2.606,3.606-4.822,6.523-6.874,9.551c-2.562,3.774-5.573,7.389-7.369,11.518
			c-4.002,9.209-7.107,18.805-11.053,28.042c-7.735,18.124-15.858,36.084-23.7,54.162c-6.169,14.228-11.963,28.617-15.872,43.656
			c-1.791,6.879-3.178,13.872-4.451,20.869c-0.547,2.999,0.453,3.913,3.538,3.949c4.594,0.049,9.025-1.053,12.681-3.798
			c10.983-8.254,22.077-16.402,32.591-25.235c9.164-7.694,18.274-15.659,26.197-24.578c13.261-14.924,25.623-30.657,38.255-46.137
			c13.129-16.091,23.035-33.811,26.977-54.483c1.032-5.423,1.946-10.796-0.522-16.071c-1.611-3.439-3.292-6.847-4.953-10.266
			c-3.419-7.038-6.613-14.178-7.091-22.126c-0.314-5.198,1.641-9.629,6.491-11.804c3.428-1.533,6.36-3.594,9.07-5.936
			c9.196,6.789,19.331,12.08,30.225,15.769c16.512,8.613,32.207,18.585,46.977,30.074c11.135,8.666,21.959,17.731,33.048,26.459
			c1.347,1.061,3.905,2.048,5.08,1.452c1.232-0.624,2.007-3.199,2.016-4.925c0.012-2.46-0.53-5.047-1.412-7.36
			c-3.312-8.731-6.585-17.495-10.392-26.014c-4.871-10.902-11.967-20.294-21.105-28.034c-9.074-7.683-18.246-15.247-27.418-22.812
			c-0.041-0.032-0.102-0.049-0.146-0.077c-0.694-0.832-1.453-1.628-2.322-2.346c4.117-0.025,8.238-0.037,12.354-0.086
			c4.97-0.058,10.021-0.645,14.896,0.012c11.652,1.571,23.198,0.833,34.7-0.828c8.074-1.167,16.251-2.395,23.982-4.851
			c4.553-1.444,7.98-2.118,11.42,1.473c0.105,0.11,0.363,0.081,0.824,0.167c3.5-6.63,6.214-13.007,4.039-21.232
			c-3.439-13.015-10.163-22.758-22.411-28.638c-9.226-4.427-18.924-6.572-29.087-6.939c-11.302-0.404-22.647-0.49-33.566-4.072
			c-16.495-5.414-31.22-14.149-45.296-24.104c-12.117-8.568-24.206-17.201-38.43-22.061c-20.465-6.989-41.379-12.375-63.011-13.57
			c-20.037-1.105-40.144-1.346-60.217-1.306c-15.52,0.029-31.032,1.453-46.067,5.614c-8.242,2.281-16.239,5.451-24.301,8.348
			c-12.016,4.312-24.039,8.601-35.965,13.142c-16.585,6.312-32.583,13.93-48.323,22.118c-13.375,6.956-26.863,13.692-40.38,20.371
			c-6.891,3.407-13.852,6.708-20.963,9.612c-4.696,1.918-5.692,3.256-3.986,8.079c0.163,0.461,0.372,0.905,0.551,1.358
			c2.187,5.59,1.612,7.446-3.305,10.82c-0.8,0.551-1.559,1.162-2.334,1.754c-1.689,1.285-1.921,2.917-0.861,4.644
			c0.706,1.146,1.587,2.215,2.542,3.17c4.757,4.753,9.596,9.425,14.345,14.187c3.117,3.125,6.136,6.348,9.192,9.522
			c-1.412,0.73-2.803,1.257-3.978,2.089c-6.744,4.773-13.794,9.196-20.069,14.529c-15.872,13.492-30.229,28.494-42.661,45.259
			c-4.859,6.553-9.074,13.379-9.865,21.841C-0.499,325.54,1.19,327.67,7.829,327.335z"/>
	</g>
</g>
<g>
</g>
<g>
</g>
<g>
</g>
<g>
</g>
<g>
</g>
<g>
</g>
<g>
</g>
<g>
</g>
<g>
</g>
<g>
</g>
<g>
</g>
<g>
</g>
<g>
</g>
<g>
</g>
<g>
</g>
</svg>
