<?xml version="1.0" encoding="iso-8859-1"?>
<!-- Generator: Adobe Illustrator 16.0.0, SVG Export Plug-In . SVG Version: 6.00 Build 0)  -->
<!DOCTYPE svg PUBLIC "-//W3C//DTD SVG 1.1//EN" "http://www.w3.org/Graphics/SVG/1.1/DTD/svg11.dtd">
<svg version="1.1" id="Capa_1" xmlns="http://www.w3.org/2000/svg" xmlns:xlink="http://www.w3.org/1999/xlink" x="0px" y="0px"
	 width="462.144px" height="462.144px" viewBox="0 0 462.144 462.144" style="enable-background:new 0 0 462.144 462.144;"
	 xml:space="preserve">
<g>
	<path d="M413.748,136.491c-6.153-4.363-18.406-11.722-30.461-11.534c6.542,7.853,7.864,15.82,3.718,22.438
		c-4.971,7.942-10.885,9.608-14.969,9.608c-7.966,0-15.243-6.071-19.056-11.27c-9.035-12.321-21.502-14.907-30.371-14.907
		c-3.456,0-7.107,0.461-10.854,1.369c-14.845,3.611-24.17,13.932-26.254,29.062c-1.568,11.402,4.521,24.438,13.861,29.673
		c9.821,5.51,20.104,4.997,29.566-1.462c7.064-4.824,10.249-12.027,9.204-20.833c-0.81-6.812-3.674-12.127-8.064-14.964
		c-1.843-1.19-2.407-3.679-1.257-5.546c0.745-1.215,2.042-1.938,3.466-1.938c0.72,0,1.43,0.191,2.052,0.557
		c9.945,5.812,15.039,14.886,15.137,26.976c0.117,14.142-6.252,24.871-18.929,31.891c-6.707,3.718-13.887,5.601-21.342,5.601
		c-16.906,0-32.53-9.961-40.778-25.997c-7.023-13.656-8.242-29.052-3.429-43.343c5.209-15.464,16.819-28.16,32.692-35.751
		c9.134-4.367,19.49-6.676,29.954-6.676c7.026,0,14.013,1.007,20.802,2.997c-1.662-6.345-4.576-12.219-8.687-17.496
		c-9.339-11.989-23.4-18.866-38.577-18.866c-36.194,0-51.861,33.527-51.861,33.527s-13.832-41.746-54.45-41.746
		c-15.929,0-30.599,7.295-40.246,20.012l-5.777,7.611l-7.902-5.37c-8.732-5.937-18.946-9.071-29.543-9.071
		c-29.021,0-52.63,23.61-52.63,52.63c0,4.308,0.528,8.61,1.572,12.788l1.897,7.601l-6.905,3.707
		c-8.189,4.394-14.583,11.148-18.555,19.158c-14.629,6.037-31.928,15.496-35.912,27.566c-1.781,5.396-0.798,10.881,2.922,16.3
		c2.27,3.306,4.807,5.395,7.539,6.209c7.833,2.335,15.962-5.785,23.904-14.692c3.677,9.37,10.489,17.172,19.145,22.11
		c0.318,16.523,13.803,29.822,30.401,29.822c0.433,0,0.862-0.015,1.291-0.031c0.079,16.381,10.355,30.387,24.793,36.002v97.068
		c0,9.374,7.626,17,17,17s17-7.626,17-17v-78.646c8.542,9.595,20.801,15.228,34.111,15.228c11.487,0,22.472-4.276,30.934-12.042
		l4.986-4.577l6.118,2.89c6.674,3.151,13.819,4.748,21.24,4.748c15.232,0,29.245-6.914,38.523-18.216v90.617c0,9.374,7.626,17,17,17
		s17-7.626,17-17V277.75c1.458,0.137,2.924,0.207,4.398,0.207c20.22,0,38.129-12.867,44.568-32.017
		c1.634-4.861,3.428-12.171,3.445-12.245l0.566-2.309l1.972,1.329c0.397,0.269,40.263,26.877,69.665,26.877
		c3.828,0,7.353-0.457,10.473-1.357c4.255-1.229,6.979-4.001,8.575-8.723C472.115,208.979,445.893,159.285,413.748,136.491z"/>
</g>
<g>
</g>
<g>
</g>
<g>
</g>
<g>
</g>
<g>
</g>
<g>
</g>
<g>
</g>
<g>
</g>
<g>
</g>
<g>
</g>
<g>
</g>
<g>
</g>
<g>
</g>
<g>
</g>
<g>
</g>
</svg>
