<?xml version="1.0" encoding="iso-8859-1"?>
<!-- Generator: Adobe Illustrator 16.0.0, SVG Export Plug-In . SVG Version: 6.00 Build 0)  -->
<!DOCTYPE svg PUBLIC "-//W3C//DTD SVG 1.1//EN" "http://www.w3.org/Graphics/SVG/1.1/DTD/svg11.dtd">
<svg version="1.1" id="Capa_1" xmlns="http://www.w3.org/2000/svg" xmlns:xlink="http://www.w3.org/1999/xlink" x="0px" y="0px"
	 width="593.175px" height="593.174px" viewBox="0 0 593.175 593.174" style="enable-background:new 0 0 593.175 593.174;"
	 xml:space="preserve">
<g>
	<g>
		<path d="M583.304,375.49l-6.602-4.782c-26.336-19.073-53.57-38.796-77.903-60.832c-18.033-16.333-40.249-34.501-68.295-45.407
			c-6.259-2.436-8.438-5.443-8.964-12.383c-3.477-45.578-12.387-81.955-28.05-114.477c-5.398-11.22-12.51-22.575-22.387-35.733
			c-0.657-0.873-1.881-1.077-2.771-0.469c-0.902,0.604-1.171,1.807-0.616,2.737c14.717,24.651,25.545,50.029,32.183,75.431
			c6.854,26.222,11.273,48.911,10.437,72.167c-18.103-41.457-39.983-83.521-80.853-113.252c-0.886-0.641-2.118-0.481-2.791,0.371
			c-0.682,0.849-0.579,2.085,0.24,2.807c33.644,29.694,57.851,67.422,73.975,115.309l-0.493,0.412
			c-0.433-0.445-0.869-0.886-1.302-1.33c-1.815-1.849-3.696-3.758-5.324-5.757c-5.063-6.214-10.029-12.521-14.994-18.83
			c-10.91-13.859-22.188-28.193-34.415-41.297c-6.821-7.32-15.545-12.914-23.974-18.323c-3.733-2.396-7.593-4.872-11.204-7.446
			c-0.453-0.322-1.028-0.449-1.579-0.339c-0.551,0.11-1.032,0.441-1.33,0.918l-1.84,2.929c-0.298,0.469-0.392,1.041-0.253,1.583
			c0.139,0.543,0.485,1,0.967,1.273c28.446,16.23,69.675,59.466,79.104,81.494l-15.419-12.538c-0.493-0.404-1.146-0.542-1.771-0.4
			c-0.62,0.151-1.134,0.583-1.387,1.167c-0.837,1.922-1.526,3.505-1.95,4.464l-39.649,6.601c-0.698,0.114-1.281,0.583-1.555,1.236
			l-0.535,1.314l-5.3-2.159c-0.481-0.196-1.023-0.2-1.514-0.008c-1.86,0.73-3.59,1.534-5.234,2.297
			c-3.215,1.498-5.989,2.787-8.674,2.974c-7.54,0.522-15.251,0.119-21.812-1.269c-9.547-2.028-19.2-4.407-28.544-6.708
			c-9.445-2.33-19.216-4.737-28.911-6.789c-13.468-2.848-27.234-5.284-40.547-7.642c-5.904-1.044-11.815-2.089-17.711-3.17
			c-1.077-0.221-2.158,0.518-2.37,1.624c-0.11,0.592-0.233,1.089-0.327,1.485c-0.249,1.036-0.587,2.456,0.739,3.325
			c16.503,10.596,23.35,24.186,21.538,42.767c-1.42,14.602,5.284,25.162,19.033,30.384c-11.326,1.681-20.727,0.167-29.535-4.733
			c-3.872-2.154-7.821-4.17-11.771-6.186c-5.088-2.595-10.347-5.279-15.309-8.217c-27.548-16.3-58.654-22.318-96.174-18.523
			c-12.656,1.281-25.471,2.921-37.862,4.504l-4.904,0.625c-1.955,0.253-3.746,0.963-4.819,1.391
			c-0.249,0.098-0.437,0.175-0.571,0.216c-0.958,0.302-1.554,1.261-1.403,2.256c0.151,0.996,1.008,1.73,2.016,1.73l12.281-0.024
			c10.502-0.037,21.457-0.073,32.403,0.102c6.075,0.094,13.203,0.371,19.996,1.685c13.342,2.579,19.743,10.331,19.584,23.697
			c-0.282,23.403-1.036,46.446-2.244,68.491c-0.885,16.141-6.308,21.42-22.313,21.726c-7.213,0.143-14.562-0.212-21.685-0.547
			c-6.063-0.289-12.334-0.587-18.536-0.587l-2.17,0.012c-1.004,0.013-1.853,0.755-1.995,1.746c-0.143,0.992,0.457,1.946,1.42,2.24
			c17.356,5.365,37.989,10.849,59.38,10.849c14.459,0,27.752-2.464,40.637-7.536c2.574-1.016,5.165-1.999,7.756-2.986
			c7.875-2.994,16.014-6.091,23.648-9.979c10.616-5.406,24.603-8.262,40.453-8.262c8.964,0,18.193,0.93,26.773,2.664
			c-17.079,1.714-23.925,8.698-25.965,26.096c-0.387,3.264-0.702,6.459-0.355,9.674c1.477,13.651-4.573,22.75-19.628,29.502
			c-0.967,0.437-1.967,0.812-2.971,1.191l-1.477,0.567c-0.914,0.359-1.44,1.31-1.261,2.272l0.608,3.325
			c0.2,1.094,1.252,1.808,2.326,1.648l14.602-2.301c19.996-3.15,39.996-6.3,59.98-9.499c2.13-0.338,4.104-1.044,6.275-1.86
			c16.621-6.25,36.471-12.636,57.674-12.636c7.793,0,15.239,0.833,22.763,2.542c4.468,1.016,9.384,1.485,15.472,1.485
			c4.219,0,8.507-0.217,13.043-0.449c2.726-0.139,5.509-0.277,8.348-0.375c-2.814,2.509-4.581,5.259-5.275,8.221
			c-1.02,4.357,0.2,8.997,3.726,14.179c5.345,7.854,2.391,14.157-1.351,22.138c-0.555,1.184-1.114,2.379-1.66,3.611
			c-0.352,0.787-0.168,1.705,0.452,2.301c0.625,0.596,1.563,0.738,2.317,0.351l10.646-5.308l1.272,6.234
			c0.159,0.767,0.742,1.379,1.502,1.57c0.163,0.041,0.33,0.062,0.497,0.062c0.596,0,1.175-0.262,1.567-0.734
			c2.407-2.889,4.794-5.562,7.082-8.14c4.982-5.59,9.683-10.873,13.281-16.813c3.818-6.304,6.434-13.24,8.743-19.356
			c0.767-2.023,1.493-3.957,2.224-5.744c10.037-1.714,19.992-3.436,29.894-5.145c26.341-4.554,51.221-8.854,76.692-12.869
			c9.307-1.469,18.96-2.085,28.303-2.68c3.782-0.241,7.561-0.481,11.33-0.775c8.833-0.694,19.682-2.823,25.198-13.235
			c0.314-0.592,0.318-1.298,0.012-1.89c-0.306-0.592-0.885-0.999-1.55-1.085l-18.728-2.452l27.887-5.104
			c0.768-0.139,1.392-0.71,1.6-1.46C594.568,387.269,591.896,381.724,583.304,375.49z"/>
	</g>
</g>
<g>
</g>
<g>
</g>
<g>
</g>
<g>
</g>
<g>
</g>
<g>
</g>
<g>
</g>
<g>
</g>
<g>
</g>
<g>
</g>
<g>
</g>
<g>
</g>
<g>
</g>
<g>
</g>
<g>
</g>
</svg>
