<?xml version="1.0" encoding="iso-8859-1"?>
<!-- Generator: Adobe Illustrator 16.0.0, SVG Export Plug-In . SVG Version: 6.00 Build 0)  -->
<!DOCTYPE svg PUBLIC "-//W3C//DTD SVG 1.1//EN" "http://www.w3.org/Graphics/SVG/1.1/DTD/svg11.dtd">
<svg version="1.1" id="Capa_1" xmlns="http://www.w3.org/2000/svg" xmlns:xlink="http://www.w3.org/1999/xlink" x="0px" y="0px"
	 width="119.998px" height="119.998px" viewBox="0 0 119.998 119.998" style="enable-background:new 0 0 119.998 119.998;"
	 xml:space="preserve">
<g>
	<path d="M99.801,31.872c-1.1-3.2-0.9-6.2-0.5-9.3c0.3-1.9-1.3-3.6-3.2-3.4c-13.5,1.2-24.399,11.7-19.1,25.8
		c1,2.8-2.101,5.2-4.5,3.5c-4.9-3.5-9.601-5.1-15.3-6.8c-5-1.5-10.2-3.4-13.7-7.5c-2.7-3.2-3.4-7.3-5.6-10.7
		c-3.4-5.3-9.4-5.8-9.4-5.8l-2.6-4.4c-1.4-2.5-5.1-1.8-5.6,0.9c-0.3,1.7-0.5,3-0.5,3c0,0.1-0.5,0.2-0.5,0.3
		c-1.4,0.6-2.9,1.1-4.2,1.8c-1.2,0.7-2.4,1.5-3.5,2.4c-2.4,1.9-4.3,4.4-5.9,7c-0.4,0.8-0.8,1.5-1.2,2.3c-0.9,2-1.6,4.1-2.1,6.3
		c-0.9,4.3-1,9.8,2.7,12.8c2.5,2.1,5.9,2.5,9.1,2.6c0.7,0,7.5,0,7.5-0.2c0,3.8-3.4,9.1-7.7,7.9c-2.1-0.6-4.3-1-6.6-1.1
		c-2.1,0-4.9,0.2-6.3,1.8c-1.4,1.5-1.7,4.2,0.5,5.1c0.7,0.301,1.6,0.4,2.5,0.4h3.7c3.4,0,6.4,3.6,8.8,5.5c3.6,2.9,7.6,4.9,12.3,3.1
		c2.3-0.8,3.8-2.3,5.4-4.1c1.4-1.6,3-3.5,5-4.2c0.5-0.2,2.9,0.101,3,0.101c-0.1,0.199-10.3,7.3-10.3,16c0,8.8,6.8,16.699,6.8,16.699
		c-3.4,0-6.8,1.5-8.5,4.601c-0.6,1.2-0.6,4,1.3,4c0.2,0,49.799,0,49.799,0c3.601,0,7.2-0.5,10.7-1.5c4.101-1.2,7.9-3.2,11.3-5.8
		c15.601-11.5,22.2-34.5,11-51.301C110.201,43.271,102.4,39.372,99.801,31.872z M14.401,40.972c-2.3,0-4.1-1.8-4.1-4.1
		c0-2.3,1.8-4.1,4.1-4.1c2.3,0,4.1,1.8,4.1,4.1C18.501,39.071,16.701,40.972,14.401,40.972z"/>
</g>
<g>
</g>
<g>
</g>
<g>
</g>
<g>
</g>
<g>
</g>
<g>
</g>
<g>
</g>
<g>
</g>
<g>
</g>
<g>
</g>
<g>
</g>
<g>
</g>
<g>
</g>
<g>
</g>
<g>
</g>
</svg>
