<svg id="Capa_1" enable-background="new 0 0 512.14 512.14" height="512" viewBox="0 0 512.14 512.14" width="512" xmlns="http://www.w3.org/2000/svg"><g><path d="m435.417 332.742c0-20.95-5.644-40.969-16.321-57.89-.503-.797-1.015-1.588-1.539-2.377-29.505-44.426-83.675-62.98-120.752-41.348-12.191 7.111-21.401 18.081-26.632 31.722-1.529 3.986-4.684 7.132-8.674 8.649l-.326.124c-7.736 2.941-16.393-.938-19.345-8.671-5.226-13.688-14.449-24.693-26.672-31.825-37.076-21.627-91.247-3.078-120.754 41.353-.524.788-1.035 1.577-1.535 2.37-10.679 16.924-16.322 36.941-16.322 57.893v2.214c55.999 4.382 100.225 51.349 100.225 108.454 0 .15.003.301.007.45.517 37.701 31.346 68.21 69.167 68.21h20.685c37.049 0 67.389-29.279 69.099-65.913.166-.893.253-1.811.253-2.747 0-56.836 43.813-103.625 99.438-108.384v-2.284zm-235.458-15.032c-5.79 2.395-12.641.857-16.856-3.78-4.218-4.64-5.047-11.616-2.114-17.14 2.931-5.519 9.253-8.708 15.435-7.769 6.25.95 11.194 5.746 12.505 11.899 1.301 6.951-2.381 14.066-8.97 16.79zm57.191 137.404h-5.512c-8.284 0-15-6.716-15-15s6.716-15 15-15h5.512c8.284 0 15 6.716 15 15s-6.715 15-15 15zm66.51-137.404c-5.789 2.39-12.635.858-16.85-3.78-4.212-4.635-5.05-11.624-2.11-17.14 2.942-5.52 9.241-8.705 15.434-7.769 6.162.932 11.314 5.749 12.496 11.899 1.434 6.916-2.468 14.106-8.97 16.79z"/><path d="m484.425 213.825c-13.105-17.683-29.196-33.711-44.283-47.584 30.421-69.266 6.068-151.855 4.962-155.513-1.428-4.721-5.084-8.438-9.781-9.942-4.695-1.507-9.833-.606-13.738 2.406l-78.645 60.654c-29.146-13.854-70.666-15.158-88.636-15.023-17.977-.14-59.489 1.17-88.635 15.024l-78.644-60.655c-3.906-3.012-9.042-3.91-13.737-2.407-4.696 1.505-8.353 5.222-9.781 9.942-1.133 3.744-26.072 88.324 6.105 158.082-35.068 33.169-69.612 71.934-69.612 117.269 0 8.284 6.716 15 15 15 8.933 0 21.851.76 34.601 2.122 3.335-15.827 9.36-30.836 17.893-44.358.624-.989 1.264-1.978 1.918-2.962 18.244-27.47 44.697-47.96 74.486-57.693 30.723-10.04 61.397-7.543 86.374 7.026 10.02 5.846 18.672 13.403 25.709 22.377 7.037-8.975 15.69-16.532 25.708-22.376 24.977-14.571 55.652-17.065 86.375-7.027 29.79 9.733 56.243 30.224 74.487 57.694.654.986 1.293 1.973 1.918 2.964 8.535 13.526 14.561 28.54 17.895 44.374 12.806-1.374 25.801-2.141 34.775-2.141 8.284 0 15-6.716 15-15 .001-23.453-9.065-47.087-27.714-72.253z"/></g></svg>